<svg xmlns="http://www.w3.org/2000/svg" width="704.553" height="307.662" viewBox="0 0 704.553 307.662"><defs><style>.a{opacity:0.55;}.b{opacity:0.4;}.c{fill:maroon;}.d{opacity:0.3;}</style></defs><g class="a"><g class="b" transform="translate(560.162 170.599)"><g transform="translate(27.02)"><path class="c" d="M423.828,135.844l-1.737-2.091-13.5,11.24L399.5,134.048,413,122.809l-1.735-2.089,19.4-3.33Z" transform="translate(-399.497 -117.39)"/></g><g transform="translate(22.517 17.219)"><path class="c" d="M400.808,127.014l9.091,10.944-3.828,3.187L396.98,130.2Z" transform="translate(-396.98 -127.014)"/></g><g transform="translate(18.012 21.477)"><g transform="translate(0 0)"><rect class="c" width="4.188" height="14.225" transform="matrix(0.769, -0.639, 0.639, 0.769, 0, 2.676)"/></g></g><g transform="translate(13.508 25.732)"><g transform="translate(0 0)"><rect class="c" width="3.395" height="14.228" transform="matrix(0.769, -0.639, 0.639, 0.769, 0, 2.169)"/></g></g><g transform="translate(9.005 29.988)"><g transform="translate(0 0)"><rect class="c" width="2.602" height="14.228" transform="translate(0 1.663) rotate(-39.717)"/></g></g><g transform="translate(4.504 34.243)"><path class="c" d="M388.3,136.529l9.089,10.943L396,148.63l-9.089-10.944Z" transform="translate(-386.912 -136.529)"/></g><g transform="translate(0 38.497)"><g transform="translate(0 0)"><rect class="c" width="1.015" height="14.228" transform="translate(0 0.648) rotate(-39.708)"/></g></g></g><g class="b" transform="translate(570.769 42.227)"><g transform="translate(27.019)"><path class="c" d="M429.757,64.092,428.02,62l-13.5,11.239L405.426,62.3l13.5-11.239-1.735-2.089,19.4-3.33Z" transform="translate(-405.426 -45.638)"/></g><g transform="translate(22.517 17.219)"><path class="c" d="M406.737,55.262l9.091,10.944L412,69.393l-9.09-10.944Z" transform="translate(-402.909 -55.262)"/></g><g transform="translate(18.012 21.477)"><g transform="translate(0 0)"><rect class="c" width="4.188" height="14.225" transform="matrix(0.769, -0.639, 0.639, 0.769, 0, 2.676)"/></g></g><g transform="translate(13.508 25.732)"><g transform="translate(0 0)"><rect class="c" width="3.395" height="14.228" transform="matrix(0.769, -0.639, 0.639, 0.769, 0, 2.169)"/></g></g><g transform="translate(9.005 29.988)"><g transform="translate(0 0)"><rect class="c" width="2.602" height="14.228" transform="translate(0 1.663) rotate(-39.717)"/></g></g><g transform="translate(4.504 34.243)"><path class="c" d="M394.23,64.777l9.089,10.943-1.389,1.158-9.089-10.944Z" transform="translate(-392.841 -64.777)"/></g><g transform="translate(0 38.497)"><g transform="translate(0 0)"><rect class="c" width="1.015" height="14.228" transform="translate(0 0.648) rotate(-39.708)"/></g></g></g><g class="b" transform="translate(86.786 140.865)"><g transform="translate(27.019 0)"><path class="c" d="M159.24,119.225l-1.737-2.091L144,128.373l-9.092-10.944,13.5-11.24-1.735-2.089,19.4-3.33Z" transform="translate(-134.909 -100.77)"/></g><g transform="translate(22.517 17.219)"><path class="c" d="M136.22,110.394l9.091,10.944-3.828,3.187-9.09-10.944Z" transform="translate(-132.392 -110.394)"/></g><g transform="translate(18.012 21.477)"><g transform="translate(0 0)"><rect class="c" width="4.188" height="14.225" transform="matrix(0.769, -0.639, 0.639, 0.769, 0, 2.676)"/></g></g><g transform="translate(13.508 25.732)"><g transform="translate(0 0)"><rect class="c" width="3.395" height="14.228" transform="matrix(0.769, -0.639, 0.639, 0.769, 0, 2.169)"/></g></g><g transform="translate(9.005 29.988)"><g transform="translate(0 0)"><rect class="c" width="2.602" height="14.228" transform="matrix(0.769, -0.639, 0.639, 0.769, 0, 1.663)"/></g></g><g transform="translate(4.504 34.243)"><path class="c" d="M123.713,119.91l9.089,10.943-1.389,1.157-9.089-10.944Z" transform="translate(-122.324 -119.91)"/></g><g transform="translate(0 38.497)"><g transform="translate(0 0)"><rect class="c" width="1.015" height="14.228" transform="matrix(0.769, -0.639, 0.639, 0.769, 0, 0.648)"/></g></g></g><g transform="translate(0 102.514)"><g transform="translate(36.367 21.386)"><path class="c" d="M92.3,94.419a.671.671,0,0,1-.671-.671V91.959a.671.671,0,0,1,1.342,0v1.789A.671.671,0,0,1,92.3,94.419Z" transform="translate(-91.625 -91.288)"/><g transform="translate(0 5.235)"><path class="c" d="M92.3,161.035a.671.671,0,0,1-.671-.671v-3.446a.671.671,0,1,1,1.342,0v3.446A.671.671,0,0,1,92.3,161.035Zm0-6.893a.671.671,0,0,1-.671-.671v-3.446a.671.671,0,1,1,1.342,0v3.446A.671.671,0,0,1,92.3,154.142Zm0-6.892a.671.671,0,0,1-.671-.671v-3.446a.671.671,0,1,1,1.342,0v3.446A.671.671,0,0,1,92.3,147.25Zm0-6.893a.671.671,0,0,1-.671-.671v-3.444a.671.671,0,1,1,1.342,0v3.444A.671.671,0,0,1,92.3,140.357Zm0-6.892a.671.671,0,0,1-.671-.671v-3.446a.671.671,0,1,1,1.342,0v3.446A.671.671,0,0,1,92.3,133.465Zm0-6.892a.671.671,0,0,1-.671-.671v-3.448a.671.671,0,1,1,1.342,0V125.9A.671.671,0,0,1,92.3,126.573Zm0-6.893a.671.671,0,0,1-.671-.671v-3.446a.671.671,0,1,1,1.342,0v3.446A.671.671,0,0,1,92.3,119.68Zm0-6.892a.671.671,0,0,1-.671-.671V108.67a.671.671,0,1,1,1.342,0v3.448A.671.671,0,0,1,92.3,112.788Zm0-6.893a.671.671,0,0,1-.671-.671v-3.446a.671.671,0,1,1,1.342,0v3.446A.671.671,0,0,1,92.3,105.9ZM92.3,99a.671.671,0,0,1-.671-.671V94.885a.671.671,0,1,1,1.342,0v3.448A.671.671,0,0,1,92.3,99Z" transform="translate(-91.625 -94.214)"/></g><g transform="translate(0 74.16)"><path class="c" d="M92.3,135.87a.671.671,0,0,1-.671-.671V133.41a.671.671,0,1,1,1.342,0V135.2A.671.671,0,0,1,92.3,135.87Z" transform="translate(-91.625 -132.739)"/></g></g><g transform="translate(0.361 21.386)"><path class="c" d="M72.171,94.419a.671.671,0,0,1-.671-.671V91.959a.671.671,0,0,1,1.342,0v1.789A.671.671,0,0,1,72.171,94.419Z" transform="translate(-71.5 -91.288)"/><g transform="translate(0 5.235)"><path class="c" d="M72.171,161.035a.671.671,0,0,1-.671-.671v-3.446a.671.671,0,1,1,1.342,0v3.446A.671.671,0,0,1,72.171,161.035Zm0-6.893a.671.671,0,0,1-.671-.671v-3.446a.671.671,0,1,1,1.342,0v3.446A.671.671,0,0,1,72.171,154.142Zm0-6.892a.671.671,0,0,1-.671-.671v-3.446a.671.671,0,1,1,1.342,0v3.446A.671.671,0,0,1,72.171,147.25Zm0-6.893a.671.671,0,0,1-.671-.671v-3.444a.671.671,0,0,1,1.342,0v3.444A.671.671,0,0,1,72.171,140.357Zm0-6.892a.671.671,0,0,1-.671-.671v-3.446a.671.671,0,0,1,1.342,0v3.446A.671.671,0,0,1,72.171,133.465Zm0-6.892a.671.671,0,0,1-.671-.671v-3.448a.671.671,0,1,1,1.342,0V125.9A.671.671,0,0,1,72.171,126.573Zm0-6.893a.671.671,0,0,1-.671-.671v-3.446a.671.671,0,1,1,1.342,0v3.446A.671.671,0,0,1,72.171,119.68Zm0-6.892a.671.671,0,0,1-.671-.671V108.67a.671.671,0,0,1,1.342,0v3.448A.671.671,0,0,1,72.171,112.788Zm0-6.893a.671.671,0,0,1-.671-.671v-3.446a.671.671,0,1,1,1.342,0v3.446A.671.671,0,0,1,72.171,105.9Zm0-6.892a.671.671,0,0,1-.671-.671V94.885a.671.671,0,0,1,1.342,0v3.448A.671.671,0,0,1,72.171,99Z" transform="translate(-71.5 -94.214)"/></g><g transform="translate(0 74.16)"><path class="c" d="M72.171,135.87a.671.671,0,0,1-.671-.671V133.41a.671.671,0,1,1,1.342,0V135.2A.671.671,0,0,1,72.171,135.87Z" transform="translate(-71.5 -132.739)"/></g></g><g transform="translate(64.545 33.947)"><path class="c" d="M108.046,101.44a.671.671,0,0,1-.671-.671V98.98a.671.671,0,1,1,1.342,0v1.789A.671.671,0,0,1,108.046,101.44Z" transform="translate(-107.375 -98.309)"/><g transform="translate(0 5.235)"><path class="c" d="M108.046,168.056a.671.671,0,0,1-.671-.671v-3.446a.671.671,0,1,1,1.342,0v3.446A.671.671,0,0,1,108.046,168.056Zm0-6.893a.67.67,0,0,1-.671-.671v-3.446a.671.671,0,1,1,1.342,0v3.446A.67.67,0,0,1,108.046,161.163Zm0-6.892a.671.671,0,0,1-.671-.671v-3.446a.671.671,0,1,1,1.342,0V153.6A.671.671,0,0,1,108.046,154.271Zm0-6.893a.671.671,0,0,1-.671-.671v-3.444a.671.671,0,0,1,1.342,0v3.444A.671.671,0,0,1,108.046,147.378Zm0-6.892a.671.671,0,0,1-.671-.671v-3.446a.671.671,0,1,1,1.342,0v3.446A.671.671,0,0,1,108.046,140.486Zm0-6.892a.671.671,0,0,1-.671-.671v-3.448a.671.671,0,0,1,1.342,0v3.448A.671.671,0,0,1,108.046,133.594Zm0-6.893a.671.671,0,0,1-.671-.671v-3.446a.671.671,0,0,1,1.342,0v3.446A.671.671,0,0,1,108.046,126.7Zm0-6.892a.671.671,0,0,1-.671-.671v-3.448a.671.671,0,1,1,1.342,0v3.448A.671.671,0,0,1,108.046,119.809Zm0-6.893a.671.671,0,0,1-.671-.671V108.8a.671.671,0,0,1,1.342,0v3.446A.671.671,0,0,1,108.046,112.916Zm0-6.892a.671.671,0,0,1-.671-.671v-3.448a.671.671,0,1,1,1.342,0v3.448A.671.671,0,0,1,108.046,106.024Z" transform="translate(-107.375 -101.235)"/></g><g transform="translate(0 74.16)"><path class="c" d="M108.046,142.891a.671.671,0,0,1-.671-.671v-1.789a.671.671,0,1,1,1.342,0v1.789A.671.671,0,0,1,108.046,142.891Z" transform="translate(-107.375 -139.76)"/></g></g><g transform="translate(49.745 6.689)"><path class="c" d="M127.518,83.207l-.036-.023a1.041,1.041,0,0,0-.9-.016L99.37,96.732l-.2.2L99.121,97c-.057.14.023.277.184.37l.079.047,29.307,12.094a1.043,1.043,0,0,0,.934-.093,19.408,19.408,0,0,0,5.575-6.865l.021-.052C138.292,95.736,135.427,88.522,127.518,83.207Zm6.416,19.111-.011.047a18.358,18.358,0,0,1-5.008,6.285L100.794,97.042,126.943,84C134.236,89.095,136.859,95.908,133.933,102.318Z" transform="translate(-99.103 -83.073)"/></g><path class="c" d="M137.607,112.418l-28.679-11.838L135.6,87.292c.283-.14.317-.383.064-.542-.615-.42-1.279-.844-1.952-1.233a47.814,47.814,0,0,0-16.438-5.453A59.92,59.92,0,0,0,89.5,82.2c-8.455,2.836-14.486,7.412-16.984,12.887v.039l-.034.032a8.244,8.244,0,0,0-.36.9c-2.635,7.076,1.106,14.377,9.994,19.507a41.608,41.608,0,0,0,8.182,3.555,52.733,52.733,0,0,0,8.312,1.947,61.932,61.932,0,0,0,10.046.712c11.522-.093,22.4-3.4,29.1-8.826a.279.279,0,0,0,.123-.283.416.416,0,0,0-.188-.209C137.666,112.445,137.638,112.43,137.607,112.418Zm-20.024-31.5a45.408,45.408,0,0,1,15.189,5.156c.5.284.979.581,1.446.886L109.137,99.465ZM90.168,82.86a57.871,57.871,0,0,1,26.13-2.151l-8.852,19.448-33.469-5.23C76.474,89.811,82.211,85.536,90.168,82.86ZM83.05,115.023c-8.568-4.945-12.171-11.983-9.625-18.809.045-.157.113-.317.179-.487l33.311,5.151L90.366,118.261A39.489,39.489,0,0,1,83.05,115.023Zm15.9,5.3a52.722,52.722,0,0,1-7.423-1.694l15.78-16.555.664,18.934A59.866,59.866,0,0,1,98.952,120.326Zm10.341.673-.691-19.607,27.685,11.422C129.941,117.76,119.938,120.793,109.293,121Z" transform="translate(-71.298 -79.334)"/><g transform="translate(0 76.832)"><path class="c" d="M137.607,155.361l-28.679-11.837,26.67-13.289c.283-.14.317-.383.064-.542-.615-.42-1.279-.843-1.952-1.233a47.814,47.814,0,0,0-16.438-5.453A59.968,59.968,0,0,0,89.5,125.143c-8.455,2.836-14.486,7.412-16.984,12.887v.039l-.034.032a8.124,8.124,0,0,0-.36.9c-2.635,7.076,1.106,14.375,9.994,19.507a41.823,41.823,0,0,0,8.182,3.555,52.736,52.736,0,0,0,8.312,1.945,61.932,61.932,0,0,0,10.046.714c11.522-.093,22.4-3.4,29.1-8.826a.282.282,0,0,0,.123-.283.426.426,0,0,0-.188-.211C137.666,155.388,137.638,155.374,137.607,155.361Zm-20.024-31.5a45.367,45.367,0,0,1,15.189,5.154q.743.429,1.446.886L109.137,142.41ZM90.168,125.8a57.9,57.9,0,0,1,26.13-2.151L107.445,143.1l-33.469-5.228C76.474,132.754,82.211,128.482,90.168,125.8ZM83.05,157.968c-8.568-4.947-12.171-11.983-9.625-18.811.045-.157.113-.315.179-.487l33.311,5.151L90.366,161.206A39.608,39.608,0,0,1,83.05,157.968Zm15.9,5.3a52.725,52.725,0,0,1-7.423-1.694l15.78-16.553.664,18.934A60.1,60.1,0,0,1,98.952,163.269Zm10.341.673-.691-19.607,27.685,11.423C129.941,160.7,119.938,163.738,109.293,163.942Z" transform="translate(-71.298 -122.279)"/></g></g><g transform="translate(510.981 42.688)"><g transform="translate(4.275 66.653)"><g transform="translate(0 0)"><rect class="c" width="98.418" height="1.124" transform="matrix(0.887, -0.462, 0.462, 0.887, 0, 45.449)"/></g></g><g transform="translate(91.856 66.635)"><rect class="c" width="34.519" height="1.121"/></g><g transform="translate(126.015 4.082)"><g transform="translate(0)"><rect class="c" width="88.648" height="1.119" transform="translate(0 62.754) rotate(-45.065)"/></g></g><g transform="translate(0 108.044)"><path class="c" d="M361.411,106.285a4.511,4.511,0,1,0,4.517,4.509A4.508,4.508,0,0,0,361.411,106.285Zm0,7.342a2.832,2.832,0,1,1,2.836-2.834A2.835,2.835,0,0,1,361.411,113.627Z" transform="translate(-356.906 -106.285)"/><g transform="translate(1.68 1.678)"><path class="c" d="M360.67,107.223a2.832,2.832,0,1,0,2.836,2.83A2.833,2.833,0,0,0,360.67,107.223Zm0,4.449a1.62,1.62,0,1,1,1.624-1.619A1.621,1.621,0,0,1,360.67,111.672Z" transform="translate(-357.845 -107.223)"/></g><g transform="translate(2.888 2.888)"><path class="c" d="M361.762,109.52a1.621,1.621,0,1,1-1.624-1.621A1.621,1.621,0,0,1,361.762,109.52Z" transform="translate(-358.52 -107.899)"/></g></g><g transform="translate(87.344 62.681)"><path class="c" d="M410.235,80.93a4.514,4.514,0,1,0,4.514,4.512A4.513,4.513,0,0,0,410.235,80.93Zm0,7.348a2.831,2.831,0,1,1,2.834-2.836A2.839,2.839,0,0,1,410.235,88.278Z" transform="translate(-405.726 -80.93)"/><g transform="translate(1.678 1.685)"><path class="c" d="M409.494,81.872a2.831,2.831,0,1,0,2.834,2.827A2.831,2.831,0,0,0,409.494,81.872Zm0,4.446A1.619,1.619,0,1,1,411.11,84.7,1.62,1.62,0,0,1,409.494,86.318Z" transform="translate(-406.664 -81.872)"/></g><g transform="translate(2.888 2.893)"><path class="c" d="M410.576,84.166a1.618,1.618,0,1,1-1.616-1.619A1.615,1.615,0,0,1,410.576,84.166Z" transform="translate(-407.34 -82.547)"/></g></g><g transform="translate(121.82 62.681)"><path class="c" d="M429.5,80.93a4.514,4.514,0,1,0,4.514,4.512A4.514,4.514,0,0,0,429.5,80.93Zm0,7.348a2.831,2.831,0,1,1,2.836-2.836A2.837,2.837,0,0,1,429.5,88.278Z" transform="translate(-424.996 -80.93)"/><g transform="translate(1.68 1.685)"><path class="c" d="M428.764,81.872A2.831,2.831,0,1,0,431.6,84.7,2.83,2.83,0,0,0,428.764,81.872Zm0,4.446a1.619,1.619,0,1,1,1.616-1.619A1.619,1.619,0,0,1,428.764,86.318Z" transform="translate(-425.935 -81.872)"/></g><g transform="translate(2.889 2.893)"><path class="c" d="M429.846,84.166a1.617,1.617,0,1,1-1.616-1.619A1.61,1.61,0,0,1,429.846,84.166Z" transform="translate(-426.611 -82.547)"/></g></g><g transform="translate(184.549)"><path class="c" d="M464.566,45.9a4.512,4.512,0,1,0,4.514,4.512A4.511,4.511,0,0,0,464.566,45.9Zm0,7.342a2.831,2.831,0,1,1,2.83-2.83A2.834,2.834,0,0,1,464.566,53.237Z" transform="translate(-460.058 -45.895)"/><g transform="translate(1.678 1.68)"><path class="c" d="M463.826,46.834a2.831,2.831,0,1,0,2.83,2.832A2.834,2.834,0,0,0,463.826,46.834Zm0,4.448a1.619,1.619,0,1,1,1.617-1.616A1.618,1.618,0,0,1,463.826,51.282Z" transform="translate(-460.996 -46.834)"/></g><g transform="translate(2.888 2.889)"><path class="c" d="M464.91,49.133a1.619,1.619,0,1,1-1.617-1.623A1.615,1.615,0,0,1,464.91,49.133Z" transform="translate(-461.672 -47.51)"/></g></g></g><g transform="translate(498.708 60.55)"><g transform="translate(101.458 66.697)"><path class="c" d="M494.1,139.512l.519-.994L407.274,93.159l-.519.995Z" transform="translate(-406.755 -93.159)"/></g><g transform="translate(67.198 66.635)"><rect class="c" width="34.519" height="1.12"/></g><g transform="translate(4.116 4.117)"><path class="c" d="M415.03,121.653l.795-.791L353.136,58.18l-.79.791Z" transform="translate(-352.347 -58.18)"/></g><g transform="translate(184.548 108.042)"><path class="c" d="M453.2,120.778a4.512,4.512,0,1,0,4.519-4.51A4.522,4.522,0,0,0,453.2,120.778Zm1.684,0a2.83,2.83,0,1,1,2.836,2.834A2.834,2.834,0,0,1,454.881,120.778Z" transform="translate(-453.197 -116.268)"/><g transform="translate(1.684 1.68)"><path class="c" d="M454.138,120.037a2.83,2.83,0,1,0,2.836-2.83A2.838,2.838,0,0,0,454.138,120.037Zm1.213,0a1.619,1.619,0,1,1,1.623,1.619A1.624,1.624,0,0,1,455.351,120.037Z" transform="translate(-454.138 -117.207)"/></g><g transform="translate(2.897 2.888)"><path class="c" d="M454.816,119.5a1.619,1.619,0,1,0,1.623-1.623A1.621,1.621,0,0,0,454.816,119.5Z" transform="translate(-454.816 -117.882)"/></g></g><g transform="translate(97.205 62.681)"><path class="c" d="M404.378,95.424a4.512,4.512,0,1,0,4.512-4.51A4.522,4.522,0,0,0,404.378,95.424Zm1.68,0a2.831,2.831,0,1,1,2.832,2.836A2.83,2.83,0,0,1,406.058,95.424Z" transform="translate(-404.378 -90.914)"/><g transform="translate(1.68 1.684)"><path class="c" d="M405.317,94.682a2.831,2.831,0,1,0,2.832-2.827A2.836,2.836,0,0,0,405.317,94.682Zm1.217,0a1.619,1.619,0,1,1,1.616,1.619A1.616,1.616,0,0,1,406.534,94.682Z" transform="translate(-405.317 -91.855)"/></g><g transform="translate(2.897 2.893)"><path class="c" d="M406,94.148a1.619,1.619,0,1,0,1.616-1.617A1.615,1.615,0,0,0,406,94.148Z" transform="translate(-405.997 -92.531)"/></g></g><g transform="translate(62.728 62.681)"><path class="c" d="M385.107,95.424a4.511,4.511,0,1,0,4.516-4.51A4.523,4.523,0,0,0,385.107,95.424Zm1.684,0a2.83,2.83,0,1,1,2.832,2.836A2.83,2.83,0,0,1,386.791,95.424Z" transform="translate(-385.107 -90.914)"/><g transform="translate(1.684 1.684)"><path class="c" d="M386.048,94.682a2.83,2.83,0,1,0,2.832-2.827A2.836,2.836,0,0,0,386.048,94.682Zm1.215,0A1.617,1.617,0,1,1,388.88,96.3,1.615,1.615,0,0,1,387.263,94.682Z" transform="translate(-386.048 -91.855)"/></g><g transform="translate(2.898 2.893)"><path class="c" d="M386.727,94.148a1.617,1.617,0,1,0,1.617-1.617A1.613,1.613,0,0,0,386.727,94.148Z" transform="translate(-386.727 -92.531)"/></g></g><path class="c" d="M350.046,60.388a4.511,4.511,0,1,0,4.512-4.509A4.517,4.517,0,0,0,350.046,60.388Zm1.682,0a2.83,2.83,0,1,1,2.83,2.834A2.83,2.83,0,0,1,351.728,60.388Z" transform="translate(-350.046 -55.879)"/><g transform="translate(1.682 1.678)"><path class="c" d="M350.986,59.647a2.83,2.83,0,1,0,2.83-2.83A2.834,2.834,0,0,0,350.986,59.647Zm1.215,0a1.619,1.619,0,1,1,1.615,1.617A1.619,1.619,0,0,1,352.2,59.647Z" transform="translate(-350.986 -56.817)"/></g><g transform="translate(2.897 2.888)"><path class="c" d="M351.665,59.114a1.619,1.619,0,1,0,1.615-1.621A1.614,1.614,0,0,0,351.665,59.114Z" transform="translate(-351.665 -57.493)"/></g></g><g transform="translate(195.82 199.374)"><path class="c" d="M181.421,135.709a.671.671,0,0,1-.671-.671v-.895a.671.671,0,1,1,1.342,0v.895A.671.671,0,0,1,181.421,135.709Z" transform="translate(-180.75 -133.473)"/><g transform="translate(0 4.455)"><path class="c" d="M181.421,203.185a.671.671,0,0,1-.671-.671v-1.78a.671.671,0,1,1,1.342,0v1.78A.671.671,0,0,1,181.421,203.185Zm0-5.34a.671.671,0,0,1-.671-.671v-1.78a.671.671,0,1,1,1.342,0v1.78A.671.671,0,0,1,181.421,197.844Zm0-5.342a.671.671,0,0,1-.671-.671v-1.782a.671.671,0,1,1,1.342,0v1.782A.671.671,0,0,1,181.421,192.5Zm0-5.342a.671.671,0,0,1-.671-.671v-1.78a.671.671,0,1,1,1.342,0v1.78A.671.671,0,0,1,181.421,187.16Zm0-5.34a.671.671,0,0,1-.671-.671v-1.78a.671.671,0,1,1,1.342,0v1.78A.671.671,0,0,1,181.421,181.819Zm0-5.342a.671.671,0,0,1-.671-.671v-1.78a.671.671,0,1,1,1.342,0v1.78A.671.671,0,0,1,181.421,176.477Zm0-5.342a.671.671,0,0,1-.671-.671v-1.78a.671.671,0,1,1,1.342,0v1.78A.671.671,0,0,1,181.421,171.135Zm0-5.34a.671.671,0,0,1-.671-.671v-1.78a.671.671,0,1,1,1.342,0v1.78A.671.671,0,0,1,181.421,165.794Zm0-5.342a.671.671,0,0,1-.671-.671V158a.671.671,0,1,1,1.342,0v1.78A.671.671,0,0,1,181.421,160.452Zm0-5.34a.671.671,0,0,1-.671-.671v-1.782a.671.671,0,1,1,1.342,0v1.782A.671.671,0,0,1,181.421,155.112Zm0-5.342a.671.671,0,0,1-.671-.671v-1.78a.671.671,0,0,1,1.342,0v1.78A.671.671,0,0,1,181.421,149.769Zm0-5.342a.671.671,0,0,1-.671-.671v-1.78a.671.671,0,0,1,1.342,0v1.78A.671.671,0,0,1,181.421,144.427Zm0-5.342a.67.67,0,0,1-.671-.671v-1.78a.671.671,0,1,1,1.342,0v1.78A.67.67,0,0,1,181.421,139.085Z" transform="translate(-180.75 -135.963)"/></g><g transform="translate(0 73.897)"><path class="c" d="M181.421,177.013a.671.671,0,0,1-.671-.671v-.895a.671.671,0,1,1,1.342,0v.895A.671.671,0,0,1,181.421,177.013Z" transform="translate(-180.75 -174.777)"/></g></g><g transform="translate(193.695 199.124)"><path class="c" d="M180.233,142.278a.707.707,0,0,1-.181-.023.672.672,0,0,1-.465-.828l2.125-7.6a.671.671,0,1,1,1.292.363l-2.124,7.6A.673.673,0,0,1,180.233,142.278Z" transform="translate(-179.562 -133.333)"/></g><g transform="translate(195.82 199.124)"><path class="c" d="M183.545,142.278a.672.672,0,0,1-.646-.488l-2.124-7.6a.671.671,0,1,1,1.292-.363l2.125,7.6a.674.674,0,0,1-.465.828A.71.71,0,0,1,183.545,142.278Z" transform="translate(-180.75 -133.334)"/></g><g transform="translate(195.82 143.24)"><path class="c" d="M181.421,123.141a.671.671,0,0,1-.671-.671v-19.7a.671.671,0,1,1,1.342,0v19.7A.671.671,0,0,1,181.421,123.141Z" transform="translate(-180.75 -102.098)"/></g><g transform="translate(193.695 142.99)"><path class="c" d="M180.233,110.9a.705.705,0,0,1-.181-.023.672.672,0,0,1-.465-.828l2.125-7.6a.671.671,0,1,1,1.292.363l-2.124,7.6A.673.673,0,0,1,180.233,110.9Z" transform="translate(-179.562 -101.958)"/></g><g transform="translate(195.82 142.991)"><path class="c" d="M183.545,110.9a.672.672,0,0,1-.646-.488l-2.124-7.6a.671.671,0,1,1,1.292-.363l2.125,7.6a.674.674,0,0,1-.465.828A.709.709,0,0,1,183.545,110.9Z" transform="translate(-180.75 -101.958)"/></g><g transform="translate(251.63 286.617)"><path class="c" d="M212.615,203.282a.671.671,0,0,1-.671-.671v-19.7a.671.671,0,1,1,1.342,0v19.7A.671.671,0,0,1,212.615,203.282Z" transform="translate(-211.944 -182.237)"/></g><g transform="translate(249.504 286.369)"><path class="c" d="M211.427,191.043a.708.708,0,0,1-.181-.025.671.671,0,0,1-.465-.827l2.124-7.6a.671.671,0,1,1,1.294.36l-2.124,7.6A.675.675,0,0,1,211.427,191.043Z" transform="translate(-210.756 -182.098)"/></g><g transform="translate(251.629 286.369)"><path class="c" d="M214.739,191.043a.672.672,0,0,1-.646-.492l-2.125-7.6a.671.671,0,1,1,1.294-.36l2.125,7.6a.672.672,0,0,1-.467.827A.687.687,0,0,1,214.739,191.043Z" transform="translate(-211.943 -182.098)"/></g><g class="d" transform="translate(87.373)"><g transform="translate(14.992)"><path class="c" d="M132.172,26.436h-.507l0,69.574h-2.647l0-69.574h-.506l1.83-4.4Z" transform="translate(-128.514 -22.035)"/></g><g transform="translate(28.398 23.765)"><path class="c" d="M144.747,56.467h-1.208l.008,21.794h-6.323l-.008-21.794h-1.208l4.37-21.149Z" transform="translate(-136.007 -35.318)"/><g transform="translate(1.217 44.031)"><rect class="c" width="6.323" height="6.179"/></g><g transform="translate(1.22 52.284)"><rect class="c" width="6.323" height="5.194"/></g><g transform="translate(1.223 60.536)"><rect class="c" width="6.324" height="4.212"/></g><g transform="translate(1.226 68.79)"><rect class="c" width="6.323" height="3.226"/></g><g transform="translate(1.228 77.041)"><rect class="c" width="6.324" height="2.242"/></g><g transform="translate(1.231 85.294)"><rect class="c" width="6.324" height="1.258"/></g></g><g transform="translate(0 34.446)"><path class="c" d="M128.874,54.787h-1.209l.009,13.909h-6.324l-.008-13.909h-1.207l4.37-13.5Z" transform="translate(-120.134 -41.289)"/><g transform="translate(1.216 28.103)"><rect class="c" width="6.324" height="3.943"/></g><g transform="translate(1.22 33.37)"><rect class="c" width="6.323" height="3.315"/></g><g transform="translate(1.222 38.637)"><rect class="c" width="6.324" height="2.688"/></g><g transform="translate(1.225 43.905)"><rect class="c" width="6.324" height="2.059"/></g><g transform="translate(1.228 49.171)"><rect class="c" width="6.323" height="1.431"/></g><g transform="translate(1.23 54.437)"><path class="c" d="M120.822,71.716h6.324v.8h-6.324Z" transform="translate(-120.822 -71.716)"/></g></g></g></g></svg>