<svg xmlns="http://www.w3.org/2000/svg" width="324.874" height="370.138" viewBox="0 0 324.874 370.138"><defs><style>.a{opacity:0.86;}.b{fill:maroon;}</style></defs><g class="a"><g transform="translate(0 0)"><g transform="translate(55.814 54.514)"><g transform="translate(2.803 4.705)"><path class="b" d="M343.141,265.662h-94.69a.9.9,0,0,1-.88-.732c-2.836-15.27-12.855-33.256-34.583-62.087a102.879,102.879,0,0,1-21.017-62.613,103.821,103.821,0,1,1,207.641,0,102.881,102.881,0,0,1-20.873,62.429.8.8,0,0,1-.046.07c-21.79,28.894-31.833,46.916-34.673,62.2A.894.894,0,0,1,343.141,265.662Zm-93.951-1.789H342.4c3.07-15.408,13.218-33.513,34.807-62.15a.708.708,0,0,1,.048-.072,101.115,101.115,0,0,0,20.566-61.422,102.032,102.032,0,1,0-204.063,0,101.115,101.115,0,0,0,20.655,61.536C235.981,230.382,246.12,248.47,249.19,263.873Z" transform="translate(-191.971 -36.408)"/><g transform="translate(58.811 255.761)"><path class="b" d="M310.647,190.237h-81.59c-2.324,0-4.213-2.44-4.213-5.441s1.889-5.433,4.213-5.433h81.59c2.322,0,4.212,2.439,4.212,5.433C314.858,187.847,313.008,190.237,310.647,190.237Zm-81.59-9.085c-1.315,0-2.424,1.669-2.424,3.644s1.109,3.652,2.424,3.652h81.59c1.313,0,2.422-1.671,2.422-3.652s-1.109-3.644-2.422-3.644Z" transform="translate(-224.843 -179.363)"/></g><g transform="translate(58.811 273.062)"><path class="b" d="M310.647,199.907h-81.59c-2.324,0-4.213-2.439-4.213-5.437s1.889-5.437,4.213-5.437h81.59c2.322,0,4.212,2.44,4.212,5.437C314.858,197.519,313.008,199.907,310.647,199.907Zm-81.59-9.085c-1.315,0-2.424,1.671-2.424,3.648s1.109,3.648,2.424,3.648h81.59c1.313,0,2.422-1.669,2.422-3.648s-1.109-3.648-2.422-3.648Z" transform="translate(-224.843 -189.033)"/></g><g transform="translate(58.811 238.457)"><path class="b" d="M310.647,180.571h-81.59c-2.324,0-4.213-2.44-4.213-5.439s1.889-5.441,4.213-5.441h81.59c2.362,0,4.212,2.39,4.212,5.441C314.858,178.13,312.969,180.571,310.647,180.571Zm-81.59-9.09c-1.315,0-2.424,1.673-2.424,3.652s1.109,3.65,2.424,3.65h81.59c1.313,0,2.422-1.671,2.422-3.65s-1.109-3.652-2.422-3.652Z" transform="translate(-224.843 -169.691)"/></g><g transform="translate(70.192 291.015)"><path class="b" d="M264.834,218.972a39.417,39.417,0,0,1-33.492-18.532.9.9,0,0,1,.757-1.372h65.467a.9.9,0,0,1,.757,1.372A39.406,39.406,0,0,1,264.834,218.972Zm-31.073-18.115a37.731,37.731,0,0,0,62.143,0Z" transform="translate(-231.204 -199.068)"/></g></g><path class="b" d="M220.41,166.516a5.6,5.6,0,1,1,5.6,5.6A5.6,5.6,0,0,1,220.41,166.516Z" transform="translate(-166.726 66.548)"/><path class="b" d="M200.981,131.529a5.6,5.6,0,1,1,5.6,5.6A5.6,5.6,0,0,1,200.981,131.529Z" transform="translate(-182.058 38.94)"/><path class="b" d="M190.4,86.074a5.6,5.6,0,1,1,5.6,5.6A5.6,5.6,0,0,1,190.4,86.074Z" transform="translate(-190.404 3.07)"/><path class="b" d="M214,49.353a5.6,5.6,0,1,1,5.6,5.6A5.6,5.6,0,0,1,214,49.353Z" transform="translate(-171.782 -25.907)"/><path class="b" d="M246.871,39.378a5.6,5.6,0,1,1,5.6,5.6A5.6,5.6,0,0,1,246.871,39.378Z" transform="translate(-145.846 -33.778)"/><path class="b" d="M246.871,71.492a5.6,5.6,0,1,1,5.6,5.6A5.6,5.6,0,0,1,246.871,71.492Z" transform="translate(-145.846 -8.437)"/><path class="b" d="M246.871,102.948a5.6,5.6,0,1,1,5.6,5.6A5.6,5.6,0,0,1,246.871,102.948Z" transform="translate(-145.846 16.385)"/><path class="b" d="M246.871,148.579a5.6,5.6,0,1,1,5.6,5.6A5.6,5.6,0,0,1,246.871,148.579Z" transform="translate(-145.846 52.393)"/><path class="b" d="M219.79,92.334a5.6,5.6,0,1,1,5.6,5.6A5.6,5.6,0,0,1,219.79,92.334Z" transform="translate(-167.215 8.01)"/><path class="b" d="M229.572,131.529a5.6,5.6,0,1,1,5.6,5.6A5.6,5.6,0,0,1,229.572,131.529Z" transform="translate(-159.496 38.94)"/><g transform="translate(4.704 88.249)"><path class="b" d="M246.5,96.093a.953.953,0,0,1-.186-.02l-52.574-11.2a.9.9,0,1,1,.372-1.752l52.575,11.2a.9.9,0,0,1-.186,1.771Z" transform="translate(-193.033 -83.104)"/></g><g transform="translate(46.926 22.551)"><path class="b" d="M227.88,125.07a.9.9,0,0,1-.886-.775L216.64,47.4a.895.895,0,1,1,1.773-.24l10.354,76.9a.894.894,0,0,1-.766,1.005A.95.95,0,0,1,227.88,125.07Z" transform="translate(-216.633 -46.383)"/></g><g transform="translate(45.799 22.552)"><path class="b" d="M276.827,87.781a.89.89,0,0,1-.492-.148L216.4,48.023a.895.895,0,1,1,.988-1.492l59.93,39.609a.895.895,0,0,1-.494,1.641Z" transform="translate(-216.003 -46.383)"/></g><g transform="translate(105.729 4.705)"><path class="b" d="M250.395,95.652h0a.9.9,0,0,1-.895-.895l.009-57.455a.9.9,0,0,1,.895-.895h0a.894.894,0,0,1,.895.895l-.009,57.455A.9.9,0,0,1,250.395,95.652Z" transform="translate(-249.5 -36.408)"/></g><g transform="translate(23.639 99.449)"><path class="b" d="M204.512,161.411a.876.876,0,0,1-.386-.088.9.9,0,0,1-.42-1.193l33.64-70.258a.895.895,0,0,1,1.614.773L205.318,160.9A.893.893,0,0,1,204.512,161.411Z" transform="translate(-203.617 -89.364)"/></g><g transform="translate(57.28 99.45)"><path class="b" d="M240.814,161.278a.9.9,0,0,1-.868-.676l-17.5-70.127a.894.894,0,1,1,1.735-.433l17.5,70.127a.9.9,0,0,1-.651,1.084A.92.92,0,0,1,240.814,161.278Z" transform="translate(-222.42 -89.364)"/></g><g transform="translate(74.78 118.439)"><path class="b" d="M233.1,152.9a.894.894,0,0,1-.764-1.356l30.95-51.138a.894.894,0,1,1,1.53.927l-30.95,51.136A.888.888,0,0,1,233.1,152.9Z" transform="translate(-232.202 -99.978)"/></g><g transform="translate(57.279 99.448)"><path class="b" d="M271.764,110.143a.87.87,0,0,1-.326-.063l-48.451-18.99a.895.895,0,0,1,.653-1.666l48.451,18.991a.894.894,0,0,1-.327,1.726Z" transform="translate(-222.42 -89.363)"/></g><g transform="translate(57.279 62.16)"><path class="b" d="M223.315,107.6a.894.894,0,0,1-.546-1.6l48.449-37.288a.895.895,0,0,1,1.093,1.417l-48.451,37.288A.891.891,0,0,1,223.315,107.6Z" transform="translate(-222.42 -68.522)"/></g><g transform="translate(105.729 62.161)"><path class="b" d="M250.395,126.589a.9.9,0,0,1-.895-.895V69.417a.895.895,0,0,1,1.789,0v56.278A.894.894,0,0,1,250.395,126.589Z" transform="translate(-249.5 -68.522)"/></g><g transform="translate(105.729 118.439)"><path class="b" d="M250.395,183.406a.9.9,0,0,1-.895-.895V100.873a.895.895,0,0,1,1.789,0v81.638A.894.894,0,0,1,250.395,183.406Z" transform="translate(-249.5 -99.978)"/></g><g transform="translate(58.388 200.078)"><path class="b" d="M223.935,179.491a.894.894,0,0,1-.5-1.635l47.341-32.093a.895.895,0,1,1,1,1.481l-47.341,32.093A.892.892,0,0,1,223.935,179.491Z" transform="translate(-223.039 -145.609)"/></g><g transform="translate(58.388 169.576)"><path class="b" d="M223.935,192.944a.836.836,0,0,1-.227-.03.891.891,0,0,1-.639-1.091l16.392-62.593a.894.894,0,1,1,1.73.453l-16.392,62.6A.9.9,0,0,1,223.935,192.944Z" transform="translate(-223.039 -128.561)"/></g><g transform="translate(23.639 169.575)"><path class="b" d="M204.512,130.481a.895.895,0,0,1,0-1.789l51.14-.132h0a.895.895,0,0,1,0,1.789l-51.14.132Z" transform="translate(-203.617 -128.56)"/></g><g transform="translate(74.781 169.575)"><path class="b" d="M264.045,160.851a.893.893,0,0,1-.628-.258l-30.948-30.5a.894.894,0,1,1,1.256-1.274l30.95,30.5a.9.9,0,0,1-.63,1.531Z" transform="translate(-232.202 -128.56)"/></g><path class="b" d="M284.541,166.516a5.6,5.6,0,1,0-5.6,5.6A5.6,5.6,0,0,0,284.541,166.516Z" transform="translate(-124.958 66.548)"/><path class="b" d="M303.969,131.529a5.6,5.6,0,1,0-5.6,5.6A5.6,5.6,0,0,0,303.969,131.529Z" transform="translate(-109.628 38.94)"/><path class="b" d="M314.545,86.074a5.6,5.6,0,1,0-5.6,5.6A5.6,5.6,0,0,0,314.545,86.074Z" transform="translate(-101.281 3.07)"/><path class="b" d="M290.947,49.353a5.6,5.6,0,1,0-5.6,5.6A5.6,5.6,0,0,0,290.947,49.353Z" transform="translate(-119.902 -25.907)"/><path class="b" d="M285.16,92.334a5.6,5.6,0,1,0-5.6,5.6A5.6,5.6,0,0,0,285.16,92.334Z" transform="translate(-124.47 8.01)"/><path class="b" d="M275.377,131.529a5.6,5.6,0,1,0-5.6,5.6A5.6,5.6,0,0,0,275.377,131.529Z" transform="translate(-132.188 38.94)"/><g transform="translate(154.195 88.249)"><path class="b" d="M277.485,96.093a.9.9,0,0,1-.188-1.771l52.576-11.2a.9.9,0,1,1,.374,1.752l-52.576,11.2A.953.953,0,0,1,277.485,96.093Z" transform="translate(-276.59 -83.104)"/></g><g transform="translate(154.196 22.551)"><path class="b" d="M277.486,125.07a.929.929,0,0,1-.122-.009.892.892,0,0,1-.766-1.005l10.355-76.9a.894.894,0,1,1,1.771.24L278.37,124.3A.892.892,0,0,1,277.486,125.07Z" transform="translate(-276.59 -46.383)"/></g><g transform="translate(105.747 22.552)"><path class="b" d="M250.406,87.781a.895.895,0,0,1-.5-1.641l59.93-39.609a.894.894,0,1,1,.986,1.492L250.9,87.632A.894.894,0,0,1,250.406,87.781Z" transform="translate(-249.51 -46.383)"/></g><g transform="translate(105.738 4.705)"><path class="b" d="M250.408,95.652a.9.9,0,0,1-.895-.895L249.505,37.3a.895.895,0,1,1,1.789,0l.009,57.455A.894.894,0,0,1,250.408,95.652Z" transform="translate(-249.505 -36.408)"/></g><g transform="translate(154.195 99.448)"><path class="b" d="M311.127,161.411a.893.893,0,0,1-.809-.508l-33.64-70.258a.895.895,0,1,1,1.614-.773l33.642,70.258a.9.9,0,0,1-.422,1.193A.869.869,0,0,1,311.127,161.411Z" transform="translate(-276.59 -89.364)"/></g><g transform="translate(136.695 99.449)"><path class="b" d="M267.7,161.279a.919.919,0,0,1-.218-.025.9.9,0,0,1-.651-1.084l17.5-70.127a.9.9,0,1,1,1.737.433l-17.5,70.127A.9.9,0,0,1,267.7,161.279Z" transform="translate(-266.808 -89.364)"/></g><g transform="translate(105.746 118.438)"><path class="b" d="M281.354,152.9a.891.891,0,0,1-.766-.431l-30.95-51.136a.9.9,0,0,1,1.531-.927l30.948,51.138a.894.894,0,0,1-.764,1.356Z" transform="translate(-249.51 -99.978)"/></g><g transform="translate(105.747 99.448)"><path class="b" d="M250.4,110.143a.894.894,0,0,1-.326-1.726l48.447-18.991a.895.895,0,1,1,.653,1.666l-48.447,18.99A.879.879,0,0,1,250.4,110.143Z" transform="translate(-249.51 -89.363)"/></g><g transform="translate(105.747 62.16)"><path class="b" d="M298.853,107.6a.891.891,0,0,1-.546-.186L249.859,70.125a.894.894,0,0,1,1.091-1.417L299.4,106a.894.894,0,0,1-.544,1.6Z" transform="translate(-249.51 -68.522)"/></g><g transform="translate(105.747 62.161)"><path class="b" d="M250.4,126.589a.9.9,0,0,1-.895-.895V69.417a.895.895,0,1,1,1.789,0v56.278A.894.894,0,0,1,250.4,126.589Z" transform="translate(-249.51 -68.522)"/></g><g transform="translate(105.747 118.439)"><path class="b" d="M250.4,183.406a.9.9,0,0,1-.895-.895V100.873a.895.895,0,1,1,1.789,0v81.638A.894.894,0,0,1,250.4,183.406Z" transform="translate(-249.51 -99.978)"/></g><g transform="translate(105.746 200.078)"><path class="b" d="M297.746,179.491a.9.9,0,0,1-.5-.154L249.9,147.244a.9.9,0,1,1,1.005-1.481l47.34,32.093a.894.894,0,0,1-.5,1.635Z" transform="translate(-249.51 -145.609)"/></g><g transform="translate(136.695 169.575)"><path class="b" d="M284.1,192.944a.9.9,0,0,1-.866-.667l-16.392-62.6a.894.894,0,1,1,1.73-.453l16.392,62.593a.893.893,0,0,1-.637,1.091A.835.835,0,0,1,284.1,192.944Z" transform="translate(-266.809 -128.56)"/></g><g transform="translate(136.696 169.575)"><path class="b" d="M318.845,130.481h0l-51.141-.132a.895.895,0,0,1,0-1.789h0l51.14.132a.895.895,0,0,1,0,1.789Z" transform="translate(-266.809 -128.56)"/></g><g transform="translate(105.746 169.576)"><path class="b" d="M250.4,160.851a.895.895,0,0,1-.628-1.531l30.95-30.5a.894.894,0,1,1,1.254,1.274l-30.948,30.5A.89.89,0,0,1,250.4,160.851Z" transform="translate(-249.51 -128.561)"/></g><g transform="translate(74.747 169.707)"><path class="b" d="M295.061,130.423H233.078a.895.895,0,0,1,0-1.789h61.983a.895.895,0,0,1,0,1.789Z" transform="translate(-232.183 -128.634)"/></g><g transform="translate(45.799 22.552)"><path class="b" d="M335.649,48.172H216.9a.895.895,0,0,1,0-1.789H335.649a.895.895,0,0,1,0,1.789Z" transform="translate(-216.003 -46.383)"/></g></g><g transform="translate(161.543)"><path class="b" d="M250.395,36.007a.894.894,0,0,1-.895-.895V4.2a.895.895,0,0,1,1.789,0v30.91A.894.894,0,0,1,250.395,36.007Z" transform="translate(-249.5 -3.308)"/></g><g transform="translate(61.704 32.438)"><path class="b" d="M212.759,48.238a.891.891,0,0,1-.725-.369l-18.167-25.01a.895.895,0,0,1,1.447-1.052l18.167,25.01a.893.893,0,0,1-.2,1.249A.879.879,0,0,1,212.759,48.238Z" transform="translate(-193.696 -21.439)"/></g><g transform="translate(0 117.367)"><path class="b" d="M189.5,80.252a.879.879,0,0,1-.277-.043l-29.4-9.556a.895.895,0,0,1,.553-1.7l29.4,9.556a.894.894,0,0,1-.276,1.744Z" transform="translate(-159.207 -68.909)"/></g><g transform="translate(0 212.794)"><path class="b" d="M160.1,133.584a.894.894,0,0,1-.276-1.744l29.4-9.548a.894.894,0,0,1,.553,1.7l-29.4,9.548A.879.879,0,0,1,160.1,133.584Z" transform="translate(-159.207 -122.247)"/></g><g transform="translate(61.704 282.266)"><path class="b" d="M194.59,187.87a.895.895,0,0,1-.723-1.421l18.172-25a.894.894,0,0,1,1.446,1.052l-18.17,25A.9.9,0,0,1,194.59,187.87Z" transform="translate(-193.696 -161.078)"/></g><g transform="translate(243.215 282.26)"><path class="b" d="M314.211,187.873a.9.9,0,0,1-.725-.369l-18.167-25.01a.895.895,0,0,1,1.447-1.052l18.167,25.01a.895.895,0,0,1-.723,1.421Z" transform="translate(-295.15 -161.074)"/></g><g transform="translate(293.687 212.788)"><path class="b" d="M353.653,133.587a.86.86,0,0,1-.276-.043l-29.4-9.556a.895.895,0,0,1,.553-1.7l29.4,9.556a.894.894,0,0,1-.276,1.744Z" transform="translate(-323.36 -122.244)"/></g><g transform="translate(293.685 117.367)"><path class="b" d="M324.253,80.248a.9.9,0,0,1-.276-1.746l29.4-9.55a.894.894,0,1,1,.551,1.7l-29.4,9.552A.934.934,0,0,1,324.253,80.248Z" transform="translate(-323.359 -68.909)"/></g><g transform="translate(243.208 32.439)"><path class="b" d="M296.039,48.238a.879.879,0,0,1-.524-.172.893.893,0,0,1-.2-1.249l18.174-25.01a.895.895,0,0,1,1.447,1.052l-18.174,25.01A.891.891,0,0,1,296.039,48.238Z" transform="translate(-295.146 -21.439)"/></g></g></g></svg>