<svg xmlns="http://www.w3.org/2000/svg" width="78.484" height="220.9" viewBox="0 0 78.484 220.9"><defs><style>.a{fill:#30307c;}.b{fill:#146ecf;}.c{fill:#ffc1a9;}.d{fill:#eceeff;}.e{fill:#dadada;}.f{fill:#f49e8e;}.g{fill:#232374;}.h{fill:#f2f3ff;}.i{fill:#ff9500;}.j{fill:#e4e7ff;}.k,.n{fill:#fff;}.l{fill:#ffbc2d;}.m{fill:#aac6ef;}.n{opacity:0.2;}</style></defs><g transform="translate(0 0)"><path class="a" d="M148.428,190.171l5.834,94.271a2.69,2.69,0,0,0,5.364.068l0-.05,8.23-94.221a9.749,9.749,0,1,0-19.424-1.7,9.615,9.615,0,0,0-.023,1.4Z" transform="translate(-134.757 -66.845)"/><g transform="translate(18.843 214.313)"><path class="a" d="M168.071,242.363c-.682,1.073-15.086.558-15.978-.29s-1.574-5.555,1.118-5.63,2.959-.061,2.959-.061S168.75,241.288,168.071,242.363Z" transform="translate(-151.305 -236.382)"/></g><g transform="translate(13.208 122.645)"><path class="b" d="M154.218,276.765a.448.448,0,0,1-.447-.419l-5.614-90.724a.443.443,0,0,1,.417-.474.449.449,0,0,1,.476.415l.016.234,5.6,90.493a.445.445,0,0,1-.417.474Z" transform="translate(-148.155 -185.145)"/></g><g transform="translate(64.628 5.385)"><path class="c" d="M184.932,119.724a.98.98,0,0,0-1.328.39c-6.452,11.837-8.187,14.765-5.478,15.975a2.122,2.122,0,0,0,2.1-.054,1.956,1.956,0,0,0,.592-.623l2.784-4.657a3.094,3.094,0,0,0,1.746-.515,3.05,3.05,0,0,0-1.984-5.571c.694-1.281,1.376-2.541,1.966-3.618A.978.978,0,0,0,184.932,119.724Z" transform="translate(-176.896 -119.604)"/></g><g transform="translate(24.698 16.05)"><path class="d" d="M195.477,125.565c-1.63,2.549-3.016,5.06-3.367,5.546-8.917,12.415-19.369,27.577-31.68,37.068-6.026,2.244-8.017,10.221-3.02,14.69,2.676,2.4,12.171,3.369,13.588-1.451,10.5-11.749,17.648-28.583,24.233-42.738.909-1.957,3.512-6.392,5.24-10.57ZM160.69,168.049c-.032.011-.057.032-.086.043C160.9,167.874,161.051,167.768,160.69,168.049Z" transform="translate(-154.578 -125.565)"/></g><g transform="translate(35.875 214.252)"><path class="a" d="M177.591,242.327c-.685,1.075-15.089.56-15.98-.29s-1.574-5.553,1.115-5.628,2.963-.061,2.963-.061S178.267,241.254,177.591,242.327Z" transform="translate(-160.825 -236.348)"/></g><path class="a" d="M156.339,195.679l.494.413a2.021,2.021,0,0,1-.5-.589c3.358,2.864,5.308,9.171,7.051,13.06,2.639,5.9,5.017,11.931,7.056,18.065,1.412,4.246,3.342,9.142,3.333,13.683-.871,3.535-.882,7.534-1.306,11.132-1.3,11.017-2.965,22-4.551,32.978a2.475,2.475,0,1,0,4.825,1.1q1.986-6.519,3.968-13.041c3-9.871,6.666-19.975,8.627-30.114,2.181-11.1-2.235-24.548-5.156-35.159-2.312-8.4-4.789-22.2-12.955-27.234C157.239,173.82,147.2,188.385,156.339,195.679Z" transform="translate(-131.322 -67.747)"/><g transform="translate(14.105 53.444)"><path class="e" d="M156.348,155.312c-1.56-1.435-7.058-3.406-7.691-5.029,1.036-1.964,2.963.5,6.276-.5,3.931-1.193,5.076-3.764,6.038-3.244C161.585,149.035,159.415,158.124,156.348,155.312Z" transform="translate(-148.657 -146.466)"/></g><g transform="translate(16.89 42.89)"><path class="c" d="M156.036,164.858a3.342,3.342,0,0,1-3.122-1.419c-3.521-5.07-2.984-16.744-1.818-20.523a3.339,3.339,0,1,1,6.376,1.988c-.85,2.757-.891,12.118.92,14.73a3.336,3.336,0,0,1-.841,4.646A3.387,3.387,0,0,1,156.036,164.858Z" transform="translate(-150.214 -140.566)"/></g><g transform="translate(17.235 42.89)"><path class="f" d="M155.124,140.716a3.347,3.347,0,0,0-4.179,2.2,18.3,18.3,0,0,0-.539,2.728,17.365,17.365,0,0,0,6.432,7.9,30.45,30.45,0,0,1,.483-8.638A3.349,3.349,0,0,0,155.124,140.716Z" transform="translate(-150.406 -140.566)"/></g><g transform="translate(14.22 29.379)"><path class="c" d="M157.062,133.015c2.415,3.5,8.208,18.818,4.795,21.89s-14.014-5.7-13.077-12.923S157.062,133.015,157.062,133.015Z" transform="translate(-148.721 -133.015)"/></g><g transform="translate(10.763 14.201)"><path class="g" d="M151.342,154.1c-7.427-3.907-3.593-11.246-3.346-13.08s-1.834-5.332-.893-6.5c1.013-1.247,3.236.807,4.6-.986s-2.857-5.811,2.2-8.489,8.84,5.859,9.033,9.234c.216,4.008-1.464,6.2-2.934,8.042-1.793,2.31-8.659,5.9-8,12.026Z" transform="translate(-146.789 -124.532)"/></g><g transform="translate(15.42 43.143)"><path class="g" d="M162.639,142.914c1.957,2.777-1.955,11.627-9.475,4.383a16.768,16.768,0,0,1-3.771-6.589s3.61,6.276,8.137,3.775S162.229,142.322,162.639,142.914Z" transform="translate(-149.392 -140.708)"/></g><g transform="translate(3.894 56.714)"><path class="h" d="M179.008,208.093c-1.367,2.956-24.981,7.861-27.674,2.333s-18.852-59.395,2.523-59.493c5.661-.039,4.274,2.952,7.255,2.045,1.938-.585,3.48-1.5,4.131-3.893s7.065,1.113,9.688,4.705C184.685,167.148,181.056,203.653,179.008,208.093Z" transform="translate(-142.95 -148.293)"/></g><g transform="translate(20.718 61.399)"><path class="i" d="M152.4,153.648c-.361-1.181,1.286-2.736,1.286-2.736s2.231.376,2.591,1.56S155,155.2,155,155.2,152.763,154.835,152.4,153.648Z" transform="translate(-152.353 -150.912)"/></g><g transform="translate(14.07 57.261)"><path class="h" d="M148.672,148.6l8,4.3s-2.675,3.471-3.7,2.775S148.239,149.488,148.672,148.6Z" transform="translate(-148.637 -148.599)"/></g><path class="j" d="M143.149,156.065a9.5,9.5,0,0,1,11.9-2.691c5.038,2.65,4.764,7.019,4.734,11.815-.526,7.573,5.46,20.517,14.762,19.6-1.025,3.893-2.211,7.638-3.4,10.987-16.175.029-29.144-17.1-30-33.34-.013-.209.005-.411.007-.615A45.559,45.559,0,0,1,143.149,156.065Z" transform="translate(-140.485 -88.417)"/><g transform="translate(22.169 53.512)"><path class="h" d="M157.415,146.5l-4.251,8.022s4.151,1.406,4.618.249S158.268,147.009,157.415,146.5Z" transform="translate(-153.164 -146.504)"/></g><g transform="translate(22.024 63.564)"><path class="i" d="M153.083,152.5c5.707,7.838,9.352,19.911,9.726,29.513.209,4.517-.088,8.69-2.032,12.79-1.285,2.734,2.084,5.761,3.575,2.617,3.652-7.38,2.222-16.773-.238-24.321a79.5,79.5,0,0,0-6.24-15C157.193,156.847,154.126,150.536,153.083,152.5Z" transform="translate(-153.083 -152.122)"/></g><g transform="translate(11.501 30.498)"><path class="b" d="M150.366,143.65a3.734,3.734,0,0,1,1.451-5.081l8.024-4.457a3.736,3.736,0,0,1,5.081,1.451h0a3.736,3.736,0,0,1-1.453,5.081l-8.022,4.457a3.737,3.737,0,0,1-5.081-1.451Z" transform="translate(-145.077 -133.64)"/><path class="k" d="M158.354,134.5a2.842,2.842,0,1,1,2.762,4.968L156.55,142a2.842,2.842,0,0,1-2.761-4.968Z" transform="translate(-143.156 -133.245)"/><path class="g" d="M151.513,137.161a.374.374,0,1,1,.51.147A.372.372,0,0,1,151.513,137.161Z" transform="translate(-143.837 -131.301)"/><path class="g" d="M151.541,137.862a.375.375,0,1,1,.508.145A.373.373,0,0,1,151.541,137.862Z" transform="translate(-143.815 -130.749)"/><path class="g" d="M150.874,138.232a.375.375,0,1,1,.51.145A.375.375,0,0,1,150.874,138.232Z" transform="translate(-144.341 -130.457)"/><path class="g" d="M151.907,138.521a.375.375,0,1,1,.508.145A.375.375,0,0,1,151.907,138.521Z" transform="translate(-143.526 -130.229)"/><path class="g" d="M151.24,138.891a.374.374,0,1,1,.51.147A.376.376,0,0,1,151.24,138.891Z" transform="translate(-144.052 -129.937)"/><path class="g" d="M150.653,139.218a.375.375,0,1,1,.508.145A.375.375,0,0,1,150.653,139.218Z" transform="translate(-144.515 -129.679)"/><path class="g" d="M150.871,137.519a.375.375,0,0,1,.655-.365.378.378,0,0,1-.147.512A.374.374,0,0,1,150.871,137.519Z" transform="translate(-144.344 -131.02)"/><path class="g" d="M152.852,139.573a.375.375,0,1,0,.147-.51A.373.373,0,0,0,152.852,139.573Z" transform="translate(-142.78 -129.399)"/><path class="g" d="M152.273,139.18a.375.375,0,1,0,.145-.51A.375.375,0,0,0,152.273,139.18Z" transform="translate(-143.237 -129.709)"/><path class="g" d="M151.606,139.55a.375.375,0,1,0,.145-.51A.378.378,0,0,0,151.606,139.55Z" transform="translate(-143.763 -129.417)"/><path class="g" d="M152.21,139.93a.375.375,0,1,0,.145-.51A.378.378,0,0,0,152.21,139.93Z" transform="translate(-143.287 -129.117)"/><g transform="translate(0 9.247)"><path class="b" d="M148.1,143.033a.894.894,0,0,1-.451-1.667l4.181-2.437a.894.894,0,1,1,.9,1.546l-4.179,2.437A.9.9,0,0,1,148.1,143.033Z" transform="translate(-147.201 -138.809)"/></g></g><g transform="translate(13.131 41.263)"><path class="c" d="M151.4,140.895c1.172,1.115,1.7,2.465,1.161,3.011-.521.571-1.9.122-3.075-.988s-1.7-2.465-1.159-3.018S150.232,139.793,151.4,140.895Z" transform="translate(-148.113 -139.657)"/></g><rect class="l" width="38.353" height="22.236" transform="matrix(0.466, -0.885, 0.885, 0.466, 13.318, 108.404)"/><g transform="translate(35.541 92.715)"><path class="c" d="M162.051,179.87c4.083-.157,13.313-3.516,11.121-9.913-1.991-5.827-3.507,6.747-9.042,6.89s-2.825,2.617-2.825,2.617h0Z" transform="translate(-160.638 -168.416)"/><g transform="translate(5.303 2.185)"><path class="c" d="M166.452,174.852a.647.647,0,0,0,.02-.5l-1.644-4.3a.634.634,0,1,0-1.184.453l1.644,4.3a.637.637,0,0,0,.819.363A.655.655,0,0,0,166.452,174.852Z" transform="translate(-163.602 -169.637)"/></g></g><path class="h" d="M158.261,153.722c3.97,4.081,2.356,8.151.844,12.7-2.972,7.35,1,18.948,9.21,23.432,4.786,2.616,6.575,2.167,11.96-.193,2.117,1.523,1.394,1.031,3.564,2.469-.764,2.687-6,7.085-13.35,7.91-22.239,2.206-33.3-23.2-28.253-42A9.591,9.591,0,0,1,158.261,153.722Z" transform="translate(-140.57 -89.513)"/><g transform="translate(0 70.927)"><path class="m" d="M168.01,196.42a24,24,0,0,1-18.056-8.028c-7.264-7.852-10.636-20.328-8.593-31.785a.448.448,0,0,1,.882.157c-2,11.191,1.286,23.367,8.368,31.019a23.243,23.243,0,0,0,20.036,7.609c6.652-.746,11.812-4.632,12.862-7.282l-.31-.2c-1.161-.769-1.161-.769-2.063-1.421l-.92-.664a.447.447,0,0,1,.522-.726l.92.664c.889.642.889.642,2.036,1.4l.6.4a.451.451,0,0,1,.182.5c-.805,2.825-6.158,7.382-13.733,8.23A27.184,27.184,0,0,1,168.01,196.42Z" transform="translate(-140.773 -156.238)"/></g><g transform="translate(65.904)"><ellipse class="n" cx="6.29" cy="6.29" rx="6.29" ry="6.29"/><ellipse class="n" cx="4.501" cy="4.501" rx="4.501" ry="4.501" transform="translate(1.789 1.789)"/><ellipse class="n" cx="2.712" cy="2.712" rx="2.712" ry="2.712" transform="translate(3.578 3.578)"/></g></g></svg>