<svg xmlns="http://www.w3.org/2000/svg" width="28.265" height="45.138" viewBox="0 0 28.265 45.138"><defs><style>.a,.b{fill:none;stroke:#000;stroke-miterlimit:10;}.a{stroke-linecap:round;stroke-linejoin:round;}</style></defs><g transform="translate(0.5 0.5)"><path class="a" d="M386,324.747a12.38,12.38,0,0,1,1.116-3.965,10.857,10.857,0,0,1,5.1-5.175,15.216,15.216,0,0,1,5.8-1.448c.131-.012.249-.047.38-.059h2.243c.878.119,1.769.19,2.635.356a12.006,12.006,0,0,1,6.327,3.086,11.263,11.263,0,0,1,3.347,6.6,16.362,16.362,0,0,1,.178,2.528c.012,2.778.012,5.567.012,8.345" transform="translate(-385.893 -314.1)"/><path class="a" d="M614.8,508.456h0" transform="translate(-587.535 -485.369)"/><path class="a" d="M412.365,437.988v6.54a12.98,12.98,0,0,1-1.211,5.674,10.685,10.685,0,0,1-5.08,5.14,17.078,17.078,0,0,1-8.309,1.5,15.583,15.583,0,0,1-6.291-1.448,10.923,10.923,0,0,1-5.591-6.22,13.362,13.362,0,0,1-.783-4.736V426" transform="translate(-385.1 -412.717)"/><path class="b" d="M484.761,384.479c0,.629-.012,1.258,0,1.9a1.806,1.806,0,1,0,3.608,0q.018-1.852,0-3.7a1.806,1.806,0,1,0-3.608,0C484.749,383.28,484.761,383.873,484.761,384.479Z" transform="translate(-472.927 -372.882)"/></g></svg>