<svg width="2687" height="726" xmlns="http://www.w3.org/2000/svg" xmlns:xlink="http://www.w3.org/1999/xlink" overflow="hidden"><defs><clipPath id="clip0"><rect x="373" y="588" width="2687" height="726"/></clipPath></defs><g clip-path="url(#clip0)" transform="translate(-373 -588)"><path d="M1207.9 696.067C1207.52 700.763 1206.59 705.422 1205.1 710.044L1187.66 764.387 1228.69 764.387 1211.48 710.492C1210.21 706.466 1209.31 701.658 1208.79 696.067ZM2591.06 695.844C2578.39 695.844 2568.32 700.596 2560.87 710.1 2553.41 719.605 2549.69 732.184 2549.69 747.838 2549.69 763.716 2553.41 776.277 2560.87 785.52 2568.32 794.764 2578.09 799.386 2590.16 799.386 2602.61 799.386 2612.49 794.894 2619.8 785.912 2627.1 776.929 2630.75 764.462 2630.75 748.509 2630.75 731.886 2627.21 718.952 2620.13 709.709 2613.05 700.465 2603.36 695.844 2591.06 695.844ZM1824.06 695.844C1811.39 695.844 1801.32 700.596 1793.87 710.1 1786.41 719.605 1782.69 732.184 1782.69 747.838 1782.69 763.716 1786.41 776.277 1793.87 785.52 1801.32 794.764 1811.09 799.386 1823.16 799.386 1835.61 799.386 1845.49 794.894 1852.8 785.912 1860.1 776.929 1863.75 764.462 1863.75 748.509 1863.75 731.886 1860.21 718.952 1853.13 709.709 1846.05 700.465 1836.36 695.844 1824.06 695.844ZM2906.85 694.502 2906.85 739.117 2922.5 739.117C2930.26 739.117 2936.48 736.88 2941.18 732.408 2945.95 727.86 2948.33 722.232 2948.33 715.523 2948.33 701.509 2939.95 694.502 2923.18 694.502ZM1968.85 694.502 1968.85 739.117 1984.5 739.117C1992.26 739.117 1998.48 736.88 2003.18 732.408 2007.95 727.86 2010.33 722.232 2010.33 715.523 2010.33 701.509 2001.95 694.502 1985.18 694.502ZM1028.85 694.502 1028.85 739.117 1044.5 739.117C1052.26 739.117 1058.48 736.88 1063.18 732.408 1067.95 727.86 1070.33 722.232 1070.33 715.523 1070.33 701.509 1061.95 694.502 1045.18 694.502ZM2870.73 667.442 2927.98 667.442C2966.9 667.442 2986.35 681.978 2986.35 711.051 2986.35 716.641 2985.49 721.804 2983.78 726.537 2982.06 731.271 2979.64 735.538 2976.51 739.34 2973.38 743.142 2969.6 746.422 2965.16 749.18 2960.73 751.938 2955.79 754.1 2950.35 755.665L2950.35 756.113C2952.73 756.858 2955.04 758.069 2957.28 759.747 2959.52 761.424 2961.68 763.381 2963.76 765.617 2965.85 767.853 2967.85 770.257 2969.75 772.829 2971.65 775.401 2973.38 777.917 2974.95 780.377L3005.25 827.787 2963.76 827.787 2938.83 786.527C2936.97 783.396 2935.18 780.6 2933.46 778.14 2931.75 775.68 2930.01 773.575 2928.26 771.823 2926.51 770.071 2924.68 768.729 2922.78 767.797 2920.88 766.866 2918.81 766.4 2916.58 766.4L2906.85 766.4 2906.85 827.787 2870.73 827.787ZM2698.83 667.442 2735.06 667.442 2735.06 760.473C2735.06 786.415 2745.2 799.386 2765.47 799.386 2785.38 799.386 2795.33 786.862 2795.33 761.815L2795.33 667.442 2831.45 667.442 2831.45 758.349C2831.45 806.505 2809.01 830.582 2764.13 830.582 2720.6 830.582 2698.83 807.064 2698.83 760.026ZM2360.4 667.442 2401.66 667.442 2427.49 727.264C2427.93 728.382 2429.16 732.743 2431.18 740.346L2431.62 740.346C2432.59 734.979 2433.75 730.768 2435.09 727.711L2461.37 667.442 2499.61 667.442 2447.39 770.761 2447.39 827.787 2411.27 827.787 2411.27 771.431ZM2086.73 667.442 2139.62 667.442 2172.38 762.486C2174.99 770.09 2176.89 777.73 2178.09 785.409L2178.76 785.409C2180.77 776.538 2182.9 768.822 2185.13 762.263L2217.89 667.442 2269.44 667.442 2269.44 827.787 2233.77 827.787 2233.77 731.848C2233.77 721.487 2234.22 710.044 2235.11 697.521L2234.22 697.521C2232.36 707.361 2230.68 714.442 2229.19 718.766L2191.62 827.787 2162.1 827.787 2123.86 719.884C2122.81 716.977 2121.14 709.522 2118.82 697.521L2117.82 697.521C2118.79 713.324 2119.27 727.189 2119.27 739.117L2119.27 827.787 2086.73 827.787ZM1932.73 667.442 1989.98 667.442C2028.9 667.442 2048.35 681.978 2048.35 711.051 2048.35 716.641 2047.49 721.804 2045.78 726.537 2044.07 731.271 2041.64 735.538 2038.51 739.34 2035.38 743.142 2031.6 746.422 2027.16 749.18 2022.73 751.938 2017.79 754.1 2012.35 755.665L2012.35 756.113C2014.73 756.858 2017.04 758.069 2019.28 759.747 2021.52 761.424 2023.68 763.381 2025.76 765.617 2027.85 767.853 2029.85 770.257 2031.75 772.829 2033.65 775.401 2035.38 777.917 2036.95 780.377L2067.25 827.787 2025.76 827.787 2000.83 786.527C1998.97 783.396 1997.18 780.6 1995.46 778.14 1993.75 775.68 1992.01 773.575 1990.26 771.823 1988.51 770.071 1986.68 768.729 1984.78 767.797 1982.88 766.866 1980.81 766.4 1978.58 766.4L1968.85 766.4 1968.85 827.787 1932.73 827.787ZM1630.73 667.442 1723.43 667.442 1723.43 696.85 1666.85 696.85 1666.85 736.209 1718.84 736.209 1718.84 765.505 1666.85 765.505 1666.85 827.787 1630.73 827.787ZM1311.73 667.442 1350.65 667.442 1414.27 765.058C1417.18 769.456 1419.86 773.817 1422.32 778.14L1422.77 778.14C1422.17 774.413 1421.87 767.071 1421.87 756.113L1421.87 667.442 1455.98 667.442 1455.98 827.787 1419.52 827.787 1353.44 727.04C1349.56 721.151 1346.88 716.716 1345.39 713.734L1344.94 713.734C1345.54 719.4 1345.84 728.047 1345.84 739.676L1345.84 827.787 1311.73 827.787ZM1187.88 667.442 1230.71 667.442 1287.73 827.787 1248.37 827.787 1236.97 792.117 1179.94 792.117 1168.65 827.787 1129.51 827.787ZM992.733 667.442 1049.98 667.442C1088.9 667.442 1108.35 681.978 1108.35 711.051 1108.35 716.641 1107.49 721.804 1105.78 726.537 1104.07 731.271 1101.64 735.538 1098.51 739.34 1095.38 743.142 1091.6 746.422 1087.16 749.18 1082.73 751.938 1077.79 754.1 1072.35 755.665L1072.35 756.113C1074.73 756.858 1077.04 758.069 1079.28 759.747 1081.52 761.424 1083.68 763.381 1085.76 765.617 1087.85 767.853 1089.85 770.257 1091.75 772.829 1093.65 775.401 1095.38 777.917 1096.95 780.377L1127.25 827.787 1085.76 827.787 1060.83 786.527C1058.97 783.396 1057.18 780.6 1055.46 778.14 1053.75 775.68 1052.01 773.575 1050.26 771.823 1048.51 770.071 1046.68 768.729 1044.78 767.797 1042.88 766.866 1040.81 766.4 1038.58 766.4L1028.85 766.4 1028.85 827.787 992.733 827.787ZM838.862 667.442 966.333 667.442 966.333 696.85 920.6 696.85 920.6 827.787 884.371 827.787 884.371 696.85 838.862 696.85ZM659.733 667.442 752.206 667.442 752.206 696.85 695.85 696.85 695.85 732.519 748.292 732.519 748.292 761.815 695.85 761.815 695.85 798.491 755.896 798.491 755.896 827.787 659.733 827.787ZM408.408 667.442 447.879 667.442 470.466 774.227C471.435 778.774 472.144 784.887 472.591 792.565L473.262 792.565C473.56 786.825 474.641 780.563 476.504 773.78L505.577 667.442 544.265 667.442 570.542 775.121C571.511 779.072 572.368 784.812 573.114 792.341L573.561 792.341C573.859 786.452 574.642 780.489 575.909 774.451L598.049 667.442 634.501 667.442 592.123 827.787 552.092 827.787 525.48 724.916C524.064 719.549 523.206 713.548 522.908 706.913L522.461 706.913C521.79 714.219 520.821 720.22 519.554 724.916L492.271 827.787 450.563 827.787ZM2592.07 664.759C2614.95 664.759 2633.46 672.25 2647.58 687.234 2661.71 702.217 2668.77 721.971 2668.77 746.496 2668.77 771.692 2661.45 792.006 2646.8 807.436 2632.15 822.867 2613.05 830.582 2589.49 830.582 2566.53 830.582 2547.82 823.109 2533.36 808.163 2518.9 793.217 2511.67 773.742 2511.67 749.739 2511.67 724.394 2519.01 703.894 2533.7 688.24 2548.38 672.586 2567.84 664.759 2592.07 664.759ZM1825.07 664.759C1847.95 664.759 1866.46 672.25 1880.58 687.234 1894.71 702.217 1901.77 721.971 1901.77 746.496 1901.77 771.692 1894.45 792.006 1879.8 807.436 1865.15 822.867 1846.05 830.582 1822.49 830.582 1799.53 830.582 1780.82 823.109 1766.36 808.163 1751.9 793.217 1744.67 773.742 1744.67 749.739 1744.67 724.394 1752.01 703.894 1766.7 688.24 1781.38 672.586 1800.84 664.759 1825.07 664.759ZM1552.64 664.759C1560.98 664.759 1568.38 665.262 1574.83 666.268 1581.28 667.274 1587.22 668.821 1592.67 670.909L1592.67 704.342C1589.98 702.478 1587.06 700.838 1583.89 699.422 1580.72 698.005 1577.46 696.831 1574.1 695.899 1570.75 694.968 1567.41 694.278 1564.1 693.831 1560.78 693.384 1557.63 693.16 1554.65 693.16 1550.55 693.16 1546.82 693.551 1543.47 694.334 1540.11 695.117 1537.28 696.216 1534.97 697.633 1532.66 699.049 1530.87 700.745 1529.6 702.72 1528.33 704.696 1527.7 706.913 1527.7 709.373 1527.7 712.057 1528.41 714.461 1529.82 716.586 1531.24 718.71 1533.25 720.723 1535.86 722.624 1538.47 724.524 1541.64 726.388 1545.37 728.214 1549.09 730.041 1553.31 731.923 1558 733.861 1564.41 736.545 1570.17 739.396 1575.28 742.415 1580.38 745.434 1584.76 748.845 1588.42 752.646 1592.07 756.448 1594.86 760.79 1596.8 765.673 1598.74 770.556 1599.71 776.24 1599.71 782.725 1599.71 791.67 1598.01 799.181 1594.62 805.256 1591.23 811.331 1586.63 816.251 1580.81 820.016 1575 823.78 1568.23 826.482 1560.52 828.122 1552.8 829.762 1544.66 830.582 1536.09 830.582 1527.29 830.582 1518.92 829.837 1510.98 828.346 1503.04 826.855 1496.17 824.619 1490.35 821.637L1490.35 785.856C1496.84 791.297 1503.88 795.379 1511.49 798.1 1519.09 800.821 1526.77 802.181 1534.52 802.181 1539.07 802.181 1543.04 801.771 1546.43 800.951 1549.82 800.131 1552.65 798.994 1554.93 797.541 1557.2 796.087 1558.9 794.372 1560.02 792.397 1561.13 790.422 1561.69 788.278 1561.69 785.968 1561.69 782.837 1560.8 780.041 1559.01 777.581 1557.22 775.121 1554.78 772.848 1551.68 770.761 1548.59 768.673 1544.92 766.661 1540.67 764.722 1536.42 762.784 1531.84 760.809 1526.92 758.796 1514.39 753.578 1505.06 747.205 1498.91 739.676 1492.76 732.147 1489.68 723.052 1489.68 712.392 1489.68 704.043 1491.36 696.869 1494.71 690.868 1498.07 684.867 1502.63 679.928 1508.41 676.052 1514.19 672.176 1520.88 669.324 1528.48 667.498 1536.09 665.672 1544.14 664.759 1552.64 664.759Z" stroke="#FFD3D3" stroke-width="3" stroke-linejoin="round" stroke-miterlimit="10" stroke-opacity="0.619608" fill="#FFFFFF" fill-rule="evenodd"/><text fill="#000000" fill-opacity="0" font-family="Arial,Arial_MSFontService,sans-serif" font-size="165.824" x="408.408" y="809.854">WE TRANSFORM YOUR</text><text fill="#FFD3D3" fill-opacity="0.8" font-family="Leelawadee UI,Leelawadee UI_MSFontService,sans-serif" font-weight="700" font-size="229" transform="matrix(1 0 0 1 710.124 1080)">IDEAS TO REALITY</text></g></svg>