<svg xmlns="http://www.w3.org/2000/svg" width="99.368" height="195.085" viewBox="0 0 99.368 195.085"><defs><style>.a{fill:#ffc1a9;}.b{fill:#f2f3ff;}.c{fill:#aac6ef;}.d{fill:#fff;}.d,.e{opacity:0.2;}.f{fill:#262676;}.g{fill:#30307c;}.h{fill:#146ecf;}.i{fill:#f49e8e;}.j{fill:#232374;}.k{fill:#e9ebff;}.l{fill:#e75e22;}.m{fill:#e9703b;}</style></defs><g transform="translate(0 0)"><g transform="translate(59.384 39.014)"><g transform="translate(32.522 47.275)"><path class="a" d="M332.648,209.9a9.669,9.669,0,0,0-.267,3.991c.27,1.435.989,2.834.748,4.321a5.674,5.674,0,0,1-2.245,3.43c-.587.438-2.492,1.542-2.594.1a8.456,8.456,0,0,1,.818-2.947c.488-1.489.138-3.058.2-4.589a5.135,5.135,0,0,1,1.4-3.845A1.606,1.606,0,0,1,332.648,209.9Z" transform="translate(-328.284 -209.764)"/></g><path class="b" d="M343.736,231.9c-.039-.768.021-1.587,0-2.313a47.939,47.939,0,0,0-.481-5.523c-.265-3.655-1.866-7.357-3.483-10.581a26.7,26.7,0,0,0-5.319-7.087,29.1,29.1,0,0,0-8.892-5.959,27.142,27.142,0,0,0-8.471-1.972,7.581,7.581,0,0,1-.778-15.016c2.3-.424,4.587.454,6.736,1.208a39.827,39.827,0,0,1,23.244,23.011,41.3,41.3,0,0,1,1.75,22.3,17.426,17.426,0,0,1-.522,2.888Z" transform="translate(-310.106 -183.34)"/></g><g transform="translate(78.689 43.141)"><path class="c" d="M339,231.488a.471.471,0,0,1-.111-.014l-3.777-.957a.448.448,0,0,1,.22-.868l3.367.853a12.428,12.428,0,0,0,.263-1.576c.039-.311.073-.6.118-.853a40.835,40.835,0,0,0-1.725-22.061,39.912,39.912,0,0,0-16.245-19.535.446.446,0,0,1,.467-.76,40.78,40.78,0,0,1,16.612,19.972,41.744,41.744,0,0,1,1.773,22.546c-.043.236-.077.508-.113.8a9.859,9.859,0,0,1-.431,2.158A.446.446,0,0,1,339,231.488Z" transform="translate(-320.897 -185.647)"/></g><g transform="translate(0 6.471)"><ellipse class="d" cx="6.29" cy="6.29" rx="6.29" ry="6.29"/><ellipse class="d" cx="4.501" cy="4.501" rx="4.501" ry="4.501" transform="translate(1.789 1.789)"/><ellipse class="d" cx="2.712" cy="2.712" rx="2.712" ry="2.712" transform="translate(3.578 3.578)"/></g><g transform="translate(5.012 12.379)"><path class="a" d="M280.332,168.65a.977.977,0,0,1,1.369.191c8.11,10.769,10.257,13.411,7.754,15.005a2.125,2.125,0,0,1-2.086.252,1.982,1.982,0,0,1-.678-.531l-3.432-4.2a3.114,3.114,0,0,1-1.805-.256,3.048,3.048,0,0,1,1.152-5.8c-.875-1.166-1.734-2.315-2.476-3.294A.977.977,0,0,1,280.332,168.65Z" transform="translate(-279.715 -168.452)"/></g><path class="e" d="M358.23,270.167c0-1.914-13.08-3.464-29.22-3.464s-29.22,1.549-29.22,3.464,13.082,3.462,29.22,3.462S358.23,272.079,358.23,270.167Z" transform="translate(-258.862 -78.544)"/><path class="f" d="M308.371,223.458c10.983,27.776,19.34,56.684,28.533,85.09.567,1.753,1.235,6.713,3.408,7.428,4.378,1.449,2.632-5.3,2.36-7.151q-3.183-21.7-6.364-43.4c-2.483-16.186-4.739-32.435-8.153-48.458A10.618,10.618,0,0,0,314.93,208.8C308.553,210.632,305.907,217.584,308.371,223.458Z" transform="translate(-252.81 -124.557)"/><g transform="translate(75.969 186.719)"><path class="f" d="M319.4,270.737c.59.871,13.059.453,13.83-.233s1.363-4.5-.964-4.557-2.566-.05-2.566-.05S318.814,269.868,319.4,270.737Z" transform="translate(-319.376 -265.898)"/></g><g transform="translate(46.905 186.719)"><path class="g" d="M303.154,270.737c.592.871,13.06.453,13.832-.233s1.363-4.5-.966-4.557-2.564-.05-2.564-.05S302.569,269.868,303.154,270.737Z" transform="translate(-303.131 -265.898)"/></g><path class="g" d="M314.3,213.335a108.834,108.834,0,0,0-9.176,17.938c-3.1,7.251-6.076,14.771-7.607,22.532a22.173,22.173,0,0,0,1.56,13.769l9.548,22.918q3.733,8.955,7.462,17.909c.725,1.735,1.735,6.453,3.78,7.292,4.455,1.832,2.732-4.433,2.3-6.233Q320.2,301.235,318.237,293q-2.281-9.532-4.56-19.061c-.827-3.453-1.88-6.858-2.478-10.357-.565-3.3-.524-4.387,0-5.448.877-1.773,6.119-12.547,8.212-15.975,3.3-5.4,6.713-11.06,11.062-15.685A10.465,10.465,0,1,0,314.3,213.335Z" transform="translate(-261.027 -124.302)"/><g transform="translate(49.315 109.062)"><path class="h" d="M316.307,299.037a.447.447,0,0,1-.435-.344l-8.495-35.517c-.275-1.145-.574-2.285-.873-3.424-.594-2.265-1.209-4.607-1.61-6.961-.565-3.287-.556-4.518.034-5.722l.431-.873c1.621-3.3,5.924-12.062,7.8-15.136l.313-.515c1.587-2.594,3.226-5.278,4.984-7.854a.441.441,0,0,1,.621-.118.446.446,0,0,1,.116.621c-1.746,2.56-3.38,5.235-4.958,7.818l-.315.515c-1.854,3.038-6.3,12.089-7.761,15.064l-.431.873c-.44.9-.531,1.816.043,5.176.4,2.317,1.007,4.637,1.6,6.884.3,1.147.6,2.294.877,3.442l8.495,35.521a.448.448,0,0,1-.333.539A.5.5,0,0,1,316.307,299.037Z" transform="translate(-304.478 -222.492)"/></g><g transform="translate(50.24 17.461)"><path class="a" d="M306.633,184.183h7.176a15.724,15.724,0,0,0-2.415-11.318,3.487,3.487,0,0,0-5.827,3.83A8.546,8.546,0,0,1,306.633,184.183Z" transform="translate(-304.995 -171.293)"/></g><path class="i" d="M306.567,171.866a3.485,3.485,0,0,1,4.342.415,6.941,6.941,0,0,1,.2,3.535c-.445,1.87-2.163,3.5-4.149,4.6a9.117,9.117,0,0,0-1.392-3.721A3.489,3.489,0,0,1,306.567,171.866Z" transform="translate(-254.755 -153.831)"/><path class="a" d="M306.924,166.892c-1.522,2.473-4.356,13.651-1.646,15.105s9.683-1.553,10.651-5.62-2.906-8.516-2.906-8.516S308.472,164.377,306.924,166.892Z" transform="translate(-255.422 -158.025)"/><path class="b" d="M286.266,174.071a37.212,37.212,0,0,1,4.836,4.977,68.2,68.2,0,0,0,16.3,11.529,73.073,73.073,0,0,0,8.711,3.956c.313.116,1.531.61,2.92,1.1,3.9-10.216,13.238-8.459,18.608-6.9,9.885,2.859,14.375,37.031,11.618,56.783-.766,5.476-25.158,4.936-26.375-.871-.862-4.111-3.68-21.883-4.716-34.367a55.381,55.381,0,0,1-11.745-6.992,88.327,88.327,0,0,1-14.742-13.456,79.6,79.6,0,0,1-6.48-8.8,18.348,18.348,0,0,1-2.483-4.451C283.9,175.758,285.089,174.919,286.266,174.071Z" transform="translate(-272.338 -151.64)"/><path class="j" d="M317.855,169.24a3.757,3.757,0,0,1-3.4,4.09l-9.2.843a3.76,3.76,0,0,1-4.09-3.4h0a3.762,3.762,0,0,1,3.4-4.092l9.2-.844a3.759,3.759,0,0,1,4.086,3.4Z" transform="translate(-257.786 -158.15)"/><path class="k" d="M303.9,186.58c4.458-6.681,12.279-5.163,17.018-3.791s8.242,9.971,10.3,20.718c-5.169,4.333-13.132,6.777-18.591,2.367-6.017-4.857,2.184-12.883-4.147-16.105A17.4,17.4,0,0,1,303.9,186.58Z" transform="translate(-255.619 -145.698)"/><g transform="translate(9.927 21.985)"><path class="c" d="M323.548,212.379a.41.41,0,0,1-.066-.005c-6.326-.959-12.157-4.906-17.131-8.53a88.723,88.723,0,0,1-14.817-13.527,79.113,79.113,0,0,1-6.516-8.845l-.29-.429a16.338,16.338,0,0,1-2.247-4.144.442.442,0,0,1,.175-.492c1.188-.818,2.371-1.655,3.546-2.5a.448.448,0,0,1,.524.726q-1.637,1.178-3.288,2.322a17.443,17.443,0,0,0,2.031,3.585l.3.438a78.005,78.005,0,0,0,6.446,8.754,87.737,87.737,0,0,0,14.667,13.388c5.11,3.727,10.611,7.441,16.735,8.371a.447.447,0,0,1-.066.889Z" transform="translate(-282.463 -173.822)"/></g><g transform="translate(47.002 131.046)"><path class="h" d="M306.042,238.909a.445.445,0,0,1-.358-.181l-2.41-3.233a.447.447,0,0,1,.717-.535L306.4,238.2a.446.446,0,0,1-.358.714Z" transform="translate(-303.185 -234.78)"/></g><g transform="translate(46.159 134.282)"><path class="h" d="M306.317,238.529a.441.441,0,0,1-.141-.023l-3.156-1.047a.446.446,0,0,1-.283-.565.452.452,0,0,1,.565-.283l3.158,1.045a.448.448,0,0,1-.143.873Z" transform="translate(-302.714 -236.589)"/></g><g transform="translate(50.094 36.64)"><path class="c" d="M319.866,243.506c-6.976,0-14.239-1.682-14.943-5.042a.446.446,0,0,1,.347-.528.455.455,0,0,1,.53.347c.619,2.961,8.507,4.51,15.483,4.3,5.732-.193,9.754-1.562,10.01-3.4,2.68-19.2-1.492-53.455-11.3-56.292a.448.448,0,0,1-.306-.555.443.443,0,0,1,.553-.306c10.205,2.954,14.66,37.788,11.939,57.275-.5,3.551-8.443,4.092-10.867,4.174C320.834,243.5,320.352,243.506,319.866,243.506Z" transform="translate(-304.914 -182.013)"/></g><path class="l" d="M305.277,168.621c-1.372,8.047,10.3,10.069,3.3,19.3-5,6.593-3.024,11.221,4.008,14.8,6.332,3.222-1.868,11.246,4.147,16.1,6.8,5.493,17.49.36,21.82-5.822,4.593-6.562,3.752-14.78-.991-20.979s-12.087-7.8-12.087-16.4c0-6.951-3.709-13.506-11.289-14.066a8.682,8.682,0,0,0-8.908,7.067C304.948,170.55,305.565,166.927,305.277,168.621Z" transform="translate(-254.622 -161.533)"/><g transform="translate(50.541 0.105)"><path class="m" d="M305.271,165.7c-.329,1.929.288-1.694,0,0Z" transform="translate(-305.158 -158.717)"/><path class="m" d="M308.578,187.87c7-9.226-4.673-11.248-3.3-19.3a8.755,8.755,0,0,1,7.18-6.983c4.6,2.279,6.874,7.452,6.874,12.88,0,8.6,7.346,10.2,12.089,16.4s5.582,14.417.989,20.977a20.212,20.212,0,0,1-13.833,8.087,10.2,10.2,0,0,1-1.843-1.161c-6.015-4.857,2.184-12.882-4.147-16.1C305.554,199.092,303.574,194.463,308.578,187.87Z" transform="translate(-305.164 -161.592)"/></g><g transform="translate(43.344 8.966)"><path class="h" d="M317.295,173.83a3.736,3.736,0,0,1-4.618,2.567l-8.824-2.521a3.74,3.74,0,0,1-2.567-4.621h0a3.736,3.736,0,0,1,4.619-2.566l8.824,2.521a3.735,3.735,0,0,1,2.566,4.619Z" transform="translate(-301.141 -166.545)"/><path class="j" d="M307.912,171.526a.375.375,0,1,1-.258-.465A.376.376,0,0,1,307.912,171.526Z" transform="translate(-296.378 -162.994)"/><path class="j" d="M308.386,171.012a.374.374,0,0,1-.719-.206.374.374,0,1,1,.719.206Z" transform="translate(-296.003 -163.399)"/><path class="j" d="M309.12,171.218a.374.374,0,1,1-.258-.462A.37.37,0,0,1,309.12,171.218Z" transform="translate(-295.424 -163.234)"/><path class="j" d="M308.594,170.284a.375.375,0,1,1-.258-.462A.374.374,0,0,1,308.594,170.284Z" transform="translate(-295.84 -163.971)"/><path class="j" d="M309.327,170.5a.374.374,0,1,1-.258-.465A.373.373,0,0,1,309.327,170.5Z" transform="translate(-295.261 -163.806)"/><path class="j" d="M309.973,170.678a.375.375,0,0,1-.721-.206.374.374,0,0,1,.465-.256A.369.369,0,0,1,309.973,170.678Z" transform="translate(-294.751 -163.66)"/><path class="j" d="M308.62,171.725a.375.375,0,0,1-.465.256.37.37,0,0,1-.256-.462.375.375,0,0,1,.721.206Z" transform="translate(-295.821 -162.834)"/><path class="j" d="M308.669,168.873a.371.371,0,0,0-.256-.463.375.375,0,1,0,.256.463Z" transform="translate(-295.78 -165.086)"/><path class="j" d="M308.8,169.561a.375.375,0,1,0-.463.258A.376.376,0,0,0,308.8,169.561Z" transform="translate(-295.677 -164.543)"/><path class="j" d="M309.535,169.77a.375.375,0,1,0-.463.258A.376.376,0,0,0,309.535,169.77Z" transform="translate(-295.098 -164.377)"/><path class="j" d="M309.376,169.074a.375.375,0,1,0-.463.259A.376.376,0,0,0,309.376,169.074Z" transform="translate(-295.223 -164.927)"/><g transform="translate(15.259 2.417)"><path class="h" d="M315.377,174.494c-2.51,0-4.793-.517-5.4-1.061a.894.894,0,0,1,1.159-1.36c.708.424,6.094,1.333,9.026-.351a2.977,2.977,0,0,0,1.623-2.9.894.894,0,0,1,.864-.925.907.907,0,0,1,.925.862,4.818,4.818,0,0,1-3.006,4.768A12.531,12.531,0,0,1,315.377,174.494Z" transform="translate(-309.67 -167.896)"/></g></g></g></svg>