<svg xmlns="http://www.w3.org/2000/svg" xmlns:xlink="http://www.w3.org/1999/xlink" width="243.475" height="179.133" viewBox="0 0 243.475 179.133"><defs><style>.a{fill:#ff8787;}.b{fill:url(#a);}.ag,.bc,.be,.c,.h,.r,.x{mix-blend-mode:multiply;isolation:isolate;}.c{fill:url(#b);}.d{fill:url(#c);}.e{fill:url(#d);}.f{fill:url(#e);}.g{fill:url(#f);}.h,.x{opacity:0.5;}.i{fill:#6e6eff;}.j{fill:#fff;}.k{fill:#2b3e9f;}.l{fill:url(#k);}.m{fill:url(#m);}.n{fill:#e2e6f7;}.o{fill:#f7d2ba;}.p{fill:url(#n);}.q{fill:url(#p);}.r{fill:#dce8ef;}.s{fill:url(#q);}.t{fill:url(#s);}.u{fill:url(#t);}.v{fill:url(#v);}.w{fill:url(#w);}.ag,.x{fill:#c3d3dd;}.y{fill:url(#x);}.z{fill:#f9fbfc;}.aa{fill:url(#y);}.ab{fill:#bcd4f7;}.ac{fill:url(#z);}.ad{fill:url(#aa);}.ae{fill:url(#ac);}.af{fill:url(#ae);}.ah{fill:url(#ag);}.ai{fill:url(#ah);}.aj{fill:url(#al);}.ak{fill:url(#an);}.al{fill:url(#ao);}.am{fill:url(#ap);}.an{fill:url(#aq);}.ao{fill:url(#ar);}.ap{fill:url(#as);}.aq{fill:url(#at);}.ar{fill:url(#av);}.as{fill:url(#aw);}.at{fill:url(#ax);}.au{fill:url(#ba);}.av{fill:url(#bc);}.aw{fill:url(#bd);}.ax{fill:url(#be);}.ay{fill:#f9dac5;}.az{fill:#6ebaad;}.ba{fill:url(#bh);}.bb{fill:url(#bi);}.bc{fill:#dee2e2;}.bd{fill:url(#bj);}.be{fill:#e0e1e2;}.bf{fill:url(#bl);}</style><linearGradient id="a" x1="0.5" y1="0.034" x2="0.5" y2="1.03" gradientUnits="objectBoundingBox"><stop offset="0" stop-color="#ff876e"/><stop offset="1" stop-color="maroon"/></linearGradient><linearGradient id="b" x1="1.02" y1="0.5" x2="0.156" y2="0.5" gradientUnits="objectBoundingBox"><stop offset="0" stop-color="#ff3939"/><stop offset="1" stop-color="#5f9cff"/></linearGradient><linearGradient id="c" x1="0.489" y1="0.118" x2="0.511" y2="1.077" gradientUnits="objectBoundingBox"><stop offset="0" stop-color="#8ad3ff"/><stop offset="1" stop-color="#5f9cff"/></linearGradient><linearGradient id="d" y1="0.5" x2="1" y2="0.5" gradientUnits="objectBoundingBox"><stop offset="0.039" stop-color="#ffd744"/><stop offset="1" stop-color="#f5c144"/></linearGradient><linearGradient id="e" y1="0.5" x2="1" y2="0.5" gradientUnits="objectBoundingBox"><stop offset="0.088" stop-color="#374492"/><stop offset="1" stop-color="#014dae"/></linearGradient><linearGradient id="f" y1="0.5" x2="1" y2="0.5" gradientUnits="objectBoundingBox"><stop offset="0" stop-color="#ff3939"/><stop offset="1" stop-color="maroon"/></linearGradient><linearGradient id="k" x1="0" y1="0.5" x2="1" y2="0.5" xlink:href="#d"/><linearGradient id="m" x1="0" y1="0.5" x2="1" y2="0.5" xlink:href="#d"/><linearGradient id="n" x1="0" y1="0.5" x2="1" y2="0.5" xlink:href="#e"/><linearGradient id="p" y1="0.5" x2="1" y2="0.5" gradientUnits="objectBoundingBox"><stop offset="0" stop-color="#ff3939"/><stop offset="1" stop-color="#0e4ba6"/></linearGradient><linearGradient id="q" x1="0.5" y1="0.884" x2="0.5" y2="-0.064" xlink:href="#c"/><linearGradient id="s" x1="0.5" y1="0.876" x2="0.5" y2="-0.084" xlink:href="#c"/><linearGradient id="t" x1="0.5" y1="5.374" x2="0.5" y2="0.224" xlink:href="#c"/><linearGradient id="v" x1="0.809" y1="0.2" x2="0.338" y2="1.016" xlink:href="#d"/><linearGradient id="w" x1="0.5" y1="0.374" x2="0.5" y2="0.8" xlink:href="#d"/><linearGradient id="x" y1="0.5" x2="1" y2="0.5" gradientUnits="objectBoundingBox"><stop offset="0" stop-color="#e2f4ff"/><stop offset="1" stop-color="#d7ecff"/></linearGradient><linearGradient id="y" x1="0" y1="0.5" x2="1" y2="0.5" xlink:href="#c"/><linearGradient id="z" x1="0.456" y1="0.124" x2="0.524" y2="1.031" xlink:href="#d"/><linearGradient id="aa" y1="0.5" x2="1" y2="0.5" gradientUnits="objectBoundingBox"><stop offset="0" stop-color="#ff3939"/><stop offset="1" stop-color="#ff3939"/></linearGradient><linearGradient id="ac" x1="0" y1="0.5" x2="1" y2="0.5" xlink:href="#d"/><linearGradient id="ae" x1="0.627" y1="0.226" x2="0.252" y2="0.838" xlink:href="#e"/><linearGradient id="ag" x1="0.492" y1="0.215" x2="0.504" y2="0.729" xlink:href="#e"/><linearGradient id="ah" x1="0.2" y1="0.236" x2="1.055" y2="0.815" xlink:href="#e"/><linearGradient id="al" y1="0.5" x2="1" y2="0.5" gradientUnits="objectBoundingBox"><stop offset="0" stop-color="#294698"/><stop offset="1" stop-color="#0e4ba6"/></linearGradient><linearGradient id="an" x1="0.5" y1="-2.619" x2="0.5" y2="1.996" xlink:href="#x"/><linearGradient id="ao" x1="0.5" y1="-10.103" x2="0.5" y2="5.586" xlink:href="#x"/><linearGradient id="ap" x1="0.5" y1="-0.462" x2="0.5" y2="8.056" xlink:href="#x"/><linearGradient id="aq" x1="0.5" y1="-5.996" x2="0.5" y2="39.978" xlink:href="#x"/><linearGradient id="ar" x1="0.5" y1="-2.432" x2="0.5" y2="20.122" xlink:href="#x"/><linearGradient id="as" x1="0.5" y1="-5.996" x2="0.5" y2="39.978" xlink:href="#x"/><linearGradient id="at" x1="0.5" y1="-1.274" x2="0.5" y2="13.668" xlink:href="#x"/><linearGradient id="av" x1="0.5" y1="-0.847" x2="0.5" y2="17.24" xlink:href="#x"/><linearGradient id="aw" x1="0.5" y1="-0.743" x2="0.5" y2="28.175" xlink:href="#x"/><linearGradient id="ax" x1="0.5" y1="-2.73" x2="0.5" y2="40.276" xlink:href="#x"/><linearGradient id="ba" x1="0.5" y1="-0.743" x2="0.5" y2="28.175" xlink:href="#x"/><linearGradient id="bc" x1="0.5" y1="0.656" x2="0.5" y2="31.257" xlink:href="#x"/><linearGradient id="bd" x1="0.5" y1="0.656" x2="0.5" y2="31.257" xlink:href="#x"/><linearGradient id="be" x1="0.5" y1="-1.084" x2="0.5" y2="123.705" xlink:href="#x"/><linearGradient id="bh" x1="11.177" y1="0.5" x2="12.177" y2="0.5" xlink:href="#e"/><linearGradient id="bi" x1="0.578" y1="0.171" x2="0.485" y2="0.84" gradientUnits="objectBoundingBox"><stop offset="0" stop-color="maroon"/><stop offset="1" stop-color="#ff3939"/></linearGradient><linearGradient id="bj" x1="5.791" y1="0.5" x2="6.791" y2="0.5" xlink:href="#d"/><linearGradient id="bl" x1="15.203" y1="0.5" x2="16.203" y2="0.5" xlink:href="#e"/></defs><path class="a" d="M160.679,220.309c17.927.459,34.613-3.381,36.411-22.309,1.133-11.93-3.179-23.312-5.112-34.911-1.989-11.936,4.764-24.756,1.993-36.053-2.614-10.655-14.113-15.718-24.211-15.246-7.78.363-15.244,3.006-22.829,4.778a105.771,105.771,0,0,1-53.351-1.691c-8.27-2.37-17.228-5.375-25.929-3.827-16.52,2.939-20.616,23.694-12.8,36.282a82.606,82.606,0,0,0,9.633,12.091c3.358,3.65,7.434,6.8,9.65,11.334,4.1,8.379,3.943,17.363,4.482,26.45.473,7.971,2.162,16.6,9.885,20.642,9.66,5.05,21.452-2.1,31.641-1.381,1.369-.013,2.74.022,4.115.122C136.448,217.478,148.432,220,160.679,220.309Z" transform="translate(-41.825 -99.887)"/><path class="b" d="M262.618,149.944v90.631a3.358,3.358,0,0,1-3.352,3.358H113.481a3.363,3.363,0,0,1-3.357-3.358V149.944a3.359,3.359,0,0,1,3.357-3.358H259.266A3.354,3.354,0,0,1,262.618,149.944Z" transform="translate(-67.499 -115.509)"/><path class="c" d="M262.618,149.944v8.094H110.124v-8.094a3.359,3.359,0,0,1,3.357-3.358H259.266A3.354,3.354,0,0,1,262.618,149.944Z" transform="translate(-67.499 -115.509)"/><g transform="translate(202.994 45.905)"><g transform="translate(0 0)"><path class="d" d="M409.749,175.066a9.092,9.092,0,0,1,6.429,15.522l-6.429-6.428Z" transform="translate(-400.653 -173.786)"/><path class="e" d="M400.033,173.253a9.1,9.1,0,0,0-4.669,3.5l7.5,5.145V172.8A9.011,9.011,0,0,0,400.033,173.253Z" transform="translate(-394.404 -172.803)"/><path class="f" d="M402.761,187.18l-7.5-5.144a9.092,9.092,0,0,0,13.926,11.573Z" transform="translate(-393.667 -176.814)"/></g></g><g transform="translate(158.11 82.364)"><rect class="g" width="59.636" height="37.848"/><g class="h" transform="translate(9.821 6.132)"><rect class="i" width="2.583" height="6.217" transform="translate(0 19.367)"/><rect class="i" width="2.583" height="12.673" transform="translate(6.487 12.911)"/><rect class="i" width="2.583" height="6.217" transform="translate(12.975 19.367)"/><rect class="i" width="2.583" height="19.128" transform="translate(19.462 6.456)"/><rect class="i" width="2.583" height="12.673" transform="translate(25.949 12.911)"/><rect class="i" width="2.583" height="22.356" transform="translate(32.436 3.228)"/><rect class="i" width="2.583" height="25.584" transform="translate(38.924)"/></g><g transform="translate(9.065 6.132)"><rect class="e" width="2.583" height="6.217" transform="translate(0 19.367)"/><rect class="j" width="2.583" height="12.673" transform="translate(6.487 12.911)"/><rect class="e" width="2.583" height="6.217" transform="translate(12.975 19.367)"/><rect class="j" width="2.583" height="19.128" transform="translate(19.462 6.456)"/><rect class="e" width="2.583" height="12.673" transform="translate(25.949 12.911)"/><rect class="j" width="2.583" height="22.356" transform="translate(32.436 3.228)"/><rect class="e" width="2.583" height="25.584" transform="translate(38.923)"/></g></g><g transform="translate(23.926 24.055)"><rect class="j" width="56.574" height="25.849" rx="1.186"/><g transform="translate(3.984 3.719)"><g transform="translate(0 0.87)"><path class="k" d="M86.91,161.536a9,9,0,0,1-2.8-.46l.11-.295c.042.016,4.245,1.544,6.642-1.169a17.6,17.6,0,0,0,2.518-4.538c.953-2.178,1.852-4.234,3.354-4.6,1.181-.283,2.146.809,3.266,2.077,1.405,1.592,3.155,3.573,5.971,3.573,2.723,0,4.287-2.706,5.668-5.093,1.157-2,2.25-3.893,3.873-3.893,1.774,0,2.982,1.361,4.149,2.679s2.282,2.572,3.914,2.572c3.267,0,7.762-10,7.807-10.105l.287.128c-.187.42-4.625,10.292-8.094,10.292-1.774,0-2.982-1.362-4.149-2.679s-2.282-2.572-3.914-2.572c-1.441,0-2.49,1.814-3.6,3.736-1.422,2.461-3.035,5.25-5.939,5.25-2.957,0-4.759-2.04-6.207-3.68-1.1-1.241-1.962-2.222-2.956-1.979-1.351.327-2.22,2.314-3.141,4.418a17.815,17.815,0,0,1-2.571,4.62A5.393,5.393,0,0,1,86.91,161.536Z" transform="translate(-84.106 -142.285)"/></g><path class="l" d="M168.464,141.605a.972.972,0,1,1-.965-.858A.917.917,0,0,1,168.464,141.605Z" transform="translate(-119.914 -140.747)"/><path class="l" d="M139.749,150.353a.972.972,0,1,1-.965-.858A.917.917,0,0,1,139.749,150.353Z" transform="translate(-107.44 -144.547)"/><path class="m" d="M106.717,156.379a.972.972,0,1,1-.965-.859A.917.917,0,0,1,106.717,156.379Z" transform="translate(-93.09 -147.165)"/></g></g><g transform="translate(83.995 63.543)"><path class="j" d="M183.268,241.824V203.989h17v5.7H191.62v9.357h6.6v5.819h-6.6v11.3h8.74v5.659Z" transform="translate(-183.268 -203.989)"/><path class="j" d="M220.186,241.824V203.989H230.5a29.228,29.228,0,0,1,4.245.274,14.213,14.213,0,0,1,3.469.958,7.2,7.2,0,0,1,4.313,4.679,12.858,12.858,0,0,1,.593,4.107,14.915,14.915,0,0,1-1,5.979,7.119,7.119,0,0,1-3.628,3.514l5.2,18.324h-8.649l-4.153-16.933h-2.351v16.933Zm8.352-21.747h2.145a4.35,4.35,0,0,0,3.606-1.323,6.357,6.357,0,0,0,1.05-3.994,6.5,6.5,0,0,0-.947-3.891,3.834,3.834,0,0,0-3.274-1.266h-2.578Z" transform="translate(-199.306 -203.989)"/><path class="j" d="M269.57,241.824V203.989h12.619q5.02,0,7.508,2.806t2.487,8.169a17.565,17.565,0,0,1-.377,3.811,9.056,9.056,0,0,1-1.106,2.853,8.435,8.435,0,0,1-1.689,1.974,7.157,7.157,0,0,1-2.236,1.266,13.513,13.513,0,0,1-2.613.65,20.607,20.607,0,0,1-2.955.194h-3.286v16.111Zm8.353-21.93h2.67q2.259,0,3-1.152a7.6,7.6,0,0,0,.742-3.914q0-.981-.057-1.643a6.272,6.272,0,0,0-.274-1.346,2.624,2.624,0,0,0-.616-1.084,2.93,2.93,0,0,0-1.107-.65,5.142,5.142,0,0,0-1.711-.251h-2.647Z" transform="translate(-220.759 -203.989)"/></g><g transform="translate(163.352 35.631)"><path class="j" d="M326.575,156.137a1.5,1.5,0,1,1-1.5-1.5A1.5,1.5,0,0,1,326.575,156.137Z" transform="translate(-323.578 -154.638)"/><path class="j" d="M359.218,156.137a1.5,1.5,0,1,1-1.5-1.5A1.5,1.5,0,0,1,359.218,156.137Z" transform="translate(-337.758 -154.638)"/><circle class="j" cx="1.499" cy="1.499" r="1.499" transform="translate(9.231 0)"/></g><ellipse class="n" cx="18.782" cy="2.757" rx="18.782" ry="2.757" transform="translate(205.911 159.951)"/><g transform="translate(210.001 106.635)"><g transform="translate(0 1.349)"><g transform="translate(0 29.307)"><path class="o" d="M427.713,339.138c-5.239.862-9.642.61-9.835-.562s3.9-2.822,9.137-3.684,9.642-.611,9.835.562S432.951,338.276,427.713,339.138Z" transform="translate(-411.189 -334.38)"/><g transform="translate(0 3.76)"><path class="o" d="M416.122,341.159c-3.7-1.741-5.043,14.425-4.224,17.935s2.985-2.491,4.045-8.193S417.576,341.844,416.122,341.159Z" transform="translate(-408.494 -341.028)"/><path class="o" d="M411.636,372.39l-.1-1.366,2.356.1-.461,1.194Z" transform="translate(-408.436 -354.058)"/><path class="p" d="M409.257,373.414a6.668,6.668,0,0,1-1.633,1.666c-1.218.945-1.541.746-1.566,1.094s5.1,0,5.1,0l-.1-2.859A14.44,14.44,0,0,0,409.257,373.414Z" transform="translate(-406.057 -355.053)"/></g></g><g transform="translate(1.901 26.684)"><path class="o" d="M419.379,335.381c-5.13,1.625-9.579,2.025-9.938.892s3.509-3.369,8.639-4.994,9.579-2.025,9.938-.892S424.508,333.756,419.379,335.381Z" transform="translate(-409.417 -329.742)"/><g transform="translate(0.302 5.883)"><path class="o" d="M410.94,340.193c-4.319,1.243,6.724,14.592,9.949,16.9s.235-3.234-3.026-8.716S412.639,339.7,410.94,340.193Z" transform="translate(-409.952 -340.144)"/><path class="o" d="M429.769,366.72l-1.188-1.653-1.83,1.7,1.715,1.246" transform="translate(-417.249 -350.971)"/><path class="f" d="M429.072,369.352a8.587,8.587,0,0,1-.184,2.607c-.324,1.675-.738,1.746-.5,2.054s4.238-3.722,4.238-3.722l-2.174-2.3A15.11,15.11,0,0,0,429.072,369.352Z" transform="translate(-417.929 -352.24)"/></g></g><path class="q" d="M411.3,340.5c.381.6.794,1.222,1.222,1.841a101.564,101.564,0,0,0,6.737,8.424l2.331-2.1s-6.144-11.545-5.91-12.01,13.814-2.723,14.436-7.231-6.917-1.105-6.917-1.105-13.781,3.016-14.106,6.763C408.983,336.334,409.934,338.336,411.3,340.5Z" transform="translate(-407.372 -301.904)"/><path class="r" d="M413,344.417c.381.6.794,1.222,1.222,1.841l3.158-5.686,2.474-4.465c-.4.124-5.09.216-6.1,3.265A21.817,21.817,0,0,0,413,344.417Z" transform="translate(-409.073 -305.823)"/><g transform="translate(9.336 34.535)"><g transform="translate(0 1.921)"><g transform="translate(13.634 0)"><path class="s" d="M452.166,365.332a.23.23,0,0,1-.22-.164l-5.267-17.854a.229.229,0,1,1,.44-.129l5.267,17.854a.23.23,0,0,1-.155.285A.237.237,0,0,1,452.166,365.332Z" transform="translate(-446.67 -347.02)"/></g><path class="s" d="M422.793,365.332a.235.235,0,0,1-.065-.009.229.229,0,0,1-.155-.285l5.267-17.854a.229.229,0,1,1,.44.129l-5.267,17.854A.229.229,0,0,1,422.793,365.332Z" transform="translate(-422.563 -347.019)"/><g transform="translate(9.218 0.349)"><path class="t" d="M439.091,365.716a.229.229,0,0,1-.23-.229V347.865a.23.23,0,0,1,.459,0v17.622A.229.229,0,0,1,439.091,365.716Z" transform="translate(-438.861 -347.636)"/></g></g><path class="u" d="M439.711,346.993H428.264a1.685,1.685,0,0,1-1.685-1.685h0a1.685,1.685,0,0,1,1.685-1.685h11.448a1.685,1.685,0,0,1,1.685,1.685h0A1.685,1.685,0,0,1,439.711,346.993Z" transform="translate(-424.308 -343.623)"/></g><path class="q" d="M410.678,353.855h2.99s.179-.659.464-1.694c1.04-3.747,3.469-12.441,3.776-12.8.388-.464,11.5-.234,14.842-1.321s1.983-7.227,1.983-7.227l-4.223.172h0l-2.5.1s-12.281,2.177-14.381,5.635S410.714,353.855,410.678,353.855Z" transform="translate(-408.064 -303.522)"/><path class="r" d="M416.785,352.16c1.039-3.747,3.469-12.441,3.776-12.8.388-.464,11.5-.234,14.842-1.321s1.983-7.227,1.983-7.227l-4.223.172c.977.9,2.479,2.938,1.158,4.808-1.617,2.287-13.373-.029-14.836,3.081C418.406,341.164,417.3,348.476,416.785,352.16Z" transform="translate(-410.717 -303.522)"/><g transform="translate(3.523 10.092)"><path class="o" d="M437.59,300.44c-.6.055-1.465-.252-1.654.32-.848,2.571-3.724,10.006-1.8,10.606,1.486.464,2.939-5.543,3.679-8.582C438.281,300.867,439.03,300.305,437.59,300.44Z" transform="translate(-421.495 -300.406)"/><g transform="translate(0 9.072)"><path class="o" d="M427.307,316.746a1.516,1.516,0,0,0-1.47-.2c-2.3.838-10.5,3.891-10.558,4.949-.073,1.232,12-2.644,12.175-3.276C427.583,317.749,427.864,317.2,427.307,316.746Z" transform="translate(-413.586 -316.447)"/><path class="o" d="M415.477,324.109c-.284-.8-1.6-.151-2.045.085-.719.386-1.269,1.381-1.121,1.67s1.734-.687,1.823-.65-.637.586-.47.842,1.221-.346,1.546-.749A1.078,1.078,0,0,0,415.477,324.109Z" transform="translate(-412.286 -319.608)"/></g></g><path class="v" d="M437.319,307.61s1.308-6.84-.893-7.146c-2.379-.331-2.746,6.766-2.746,6.766Z" transform="translate(-418.057 -290.334)"/><path class="w" d="M434.04,316.09a1.316,1.316,0,0,0,.158.092,5.372,5.372,0,0,0,.962.439c3.579,1.281,9.723.344,9.723.344-.081-.736-.124-1.965-.168-3.443s-.077-3.2-.147-4.936a50.441,50.441,0,0,0-.706-7.648c-.154-.721-.268-1.17-1.49-1.658a8.981,8.981,0,0,0-6.147.472c-.915.529-1.719,2.522-1.632,4.447s.963,2.39,1.021,5.365a16.1,16.1,0,0,1-1.153,5.493c-.136.362-.253.644-.33.823C434.073,316.017,434.04,316.09,434.04,316.09Z" transform="translate(-418.213 -289.678)"/><path class="x" d="M441.581,303.155a13.659,13.659,0,0,0-.116,4.465c.351,2.378.8,5.5.741,5.6s-6.591,3.451-6.591,3.451l6.727-.858,2.086-4.056Z" transform="translate(-418.897 -291.508)"/><path class="o" d="M433.885,320.969l.135.611.066.3-.3.645s.749-.1,1.265-.206c2.269-.479,8.479-1.877,9.449-2.971.036-.04.073-.084.106-.128-.04-1.475.035-3.343-.035-5.081l-2.022-2.077-1.35.641.618,4.632-7.465,3.418Z" transform="translate(-418.101 -295.379)"/><path class="o" d="M441.359,289.149v3a1.911,1.911,0,0,1-1.719,1.078,1.511,1.511,0,0,1-1.574-1.136v-1.72s-1.6.612-2.273.088-1.02-1.079-1.079-3.177-.029-3.556,1.341-4.051,5.741-1.545,6.616.787S441.359,289.149,441.359,289.149Z" transform="translate(-418.499 -282.563)"/><path class="o" d="M440.651,295.916l1.653-.592-1.654,1.547Z" transform="translate(-421.084 -288.106)"/><g transform="translate(1.329 20.967)"><path class="y" d="M419.979,325.814l-2.471-6.18-9.009.438-.093,0,3.364,7.892,8,.325,1.214.05Zm-6.129-2.559c.286-.127.67.105.856.514a.729.729,0,0,1-.182.982c-.287.126-.67-.1-.856-.515A.737.737,0,0,1,413.85,323.255Z" transform="translate(-408.407 -319.634)"/><path class="z" d="M417.816,326.013a.73.73,0,0,0-.183.98c.187.415.569.641.855.514a.729.729,0,0,0,.183-.98C418.484,326.115,418.1,325.886,417.816,326.013Z" transform="translate(-412.372 -322.39)"/><path class="aa" d="M428.867,330.493l1.009,2.529,4.8-2.615Z" transform="translate(-417.295 -324.314)"/><g transform="translate(3.372 6.091)"><path class="ab" d="M423.58,333.017l-9.211-.369.059.425,9.209.353s-.065-.414-.058-.409l.058.409,4.8-2.614-.057-.408" transform="translate(-414.369 -330.404)"/></g></g><g transform="translate(13.016 10.216)"><path class="o" d="M447.543,300.716a1.52,1.52,0,0,0-.812,1.447c.087,2.706.524,12.012,2.537,11.915,1.555-.075.856-6.215.506-9.324C449.553,302.794,448.848,300.1,447.543,300.716Z" transform="translate(-436.742 -300.625)"/><g transform="translate(0 10.899)"><path class="o" d="M443.361,321.586a1.433,1.433,0,0,0-1.387-.2c-2.191.762-9.976,3.542-10.049,4.542-.085,1.164,11.385-2.343,11.556-2.939C443.609,322.539,443.882,322.02,443.361,321.586Z" transform="translate(-430.31 -320.502)"/><path class="o" d="M450.092,319.9a7.354,7.354,0,0,1-.252,2.53c-.343.556-3.423,1.3-3.423,1.3s2.7-3.1,2.707-3.133S450.092,319.9,450.092,319.9Z" transform="translate(-436.606 -319.895)"/><path class="o" d="M432.108,328.308c-.258-.757-1.514-.164-1.935.054-.686.355-1.218,1.289-1.082,1.563s1.649-.627,1.732-.59-.61.546-.455.79,1.159-.311,1.471-.688A1.02,1.02,0,0,0,432.108,328.308Z" transform="translate(-429.07 -323.388)"/></g></g><path class="ac" d="M450.015,307.033s-.185-7.316-2.4-7.176c-2.9.185-1.134,7.546-1.134,7.546Z" transform="translate(-423.384 -290.075)"/></g><g transform="translate(16.242 0)"><path class="ad" d="M441.367,288.455s-2.439-.486-1.97-1.877c.188-.558.946-1.965-.111-2.262s-1.07,2.806-1.07,2.806-.54-2.572-.618-2.732c-.066-.133-.881-1.546-2.741-.354-.265.17-.126-3.779,3.879-3.856,2.929-.057,4.759,1.28,4.573,3.617S442.684,287.25,441.367,288.455Z" transform="translate(-434.774 -280.178)"/><path class="ad" d="M448.938,284.231s3.357-1.595,4.637.334-1.28,7.381,2.114,7.956c0,0-3.487,1.984-5.211-.426s-.723-4.785-1.725-4.711" transform="translate(-440.846 -281.67)"/><path class="ae" d="M449.5,284.327a11.33,11.33,0,0,1-.252,3.4s-.1.3.2.287.764-3.026.476-3.805C449.861,284.042,449.5,284.327,449.5,284.327Z" transform="translate(-441.054 -281.905)"/></g></g><ellipse class="n" cx="14.986" cy="2.757" rx="14.986" ry="2.757" transform="translate(21.049 165.946)"/><ellipse class="n" cx="17.283" cy="2.757" rx="17.283" ry="2.757" transform="translate(96.696 173.618)"/><g transform="translate(18.382 96.199)"><path class="o" d="M84.409,273.825l.076-1.839s-2.751-4.473-.527-5.645a2.947,2.947,0,0,1,4.33,2.679c0,2.033-.162,2.531-1.095,2.651l.187,1.654" transform="translate(-74.137 -263.571)"/><path class="f" d="M85.449,269.367c-.113.718-.2.978-.908,1.077-.992.137-1.73-.075-2.591-1.861s-1.307-3.91,1.021-4.643,2.886-1.958,3.38-1.528,1.515,3.237.734,3.731-1.823.419-1.674,1.212A4.367,4.367,0,0,1,85.449,269.367Z" transform="translate(-73.339 -261.986)"/><g transform="translate(0 9.854)"><g transform="translate(0.33 8.832)"><path class="o" d="M74.669,307.855c-.108.122-.292.05-.532-.18l-.005,0a6.364,6.364,0,0,1-.8-.985c-.376-.537-.8-1.221-1.243-1.986-2.038-3.522-4.46-8.721-4.236-9.12.327-.578.383-1.143,1.707-.586a1.011,1.011,0,0,1,.528.5c.556,1.168,2.485,5.264,3.682,8.436.25.66.469,1.283.637,1.827C74.741,306.836,74.874,307.622,74.669,307.855Z" transform="translate(-67.843 -294.766)"/><path class="o" d="M73.178,302.25l2.8,6.97-1.549.788-3.759-6.73Z" transform="translate(-69.071 -298.017)"/><path class="o" d="M80.8,317.771a.216.216,0,0,1-.046.027l-.609.292a.344.344,0,0,1-.346-.027l-.809-.543a3.909,3.909,0,0,1-1.079-1.079l-.5-1.079-.109-.229.275-.2.847-.593.188-.138h.006l.111.022.785.175a1.46,1.46,0,0,1,.623.31l.6.852a.623.623,0,0,1-.515-.087,1.355,1.355,0,0,0-.557-.126l.4.43.893,1.134A.581.581,0,0,1,80.8,317.771Z" transform="translate(-71.951 -303.211)"/></g><path class="o" d="M75.9,280.263c-.567-.213-.3-.9-.741-.5-1.976,1.836-8.494,8.1-7.211,9.609,1.508,1.779,6.952-4.109,8.307-6.007C77.381,281.786,77.268,280.778,75.9,280.263Z" transform="translate(-67.486 -279.363)"/><path class="af" d="M76.867,282.24a4.514,4.514,0,0,1-1.045,1.732c-.415.454-1.049,1.14-1.719,1.865-.008.009-.017.021-.025.031-1.412,1.537-3.2,3.359-3.226,3.446s.389,1.187.889,2.552l-.35.186L69,293.2c-.031-.061-.061-.121-.1-.182a18.571,18.571,0,0,1-1.619-3.459c-.264-1.865,2.034-4.625,2.414-5.056.03-.044.051-.07.051-.07a51.722,51.722,0,0,1,4.659-4.944,1.47,1.47,0,0,1,2.068.177A2.581,2.581,0,0,1,76.867,282.24Z" transform="translate(-67.26 -279.15)"/><path class="x" d="M75.337,290.549c-1.412,1.537-3.2,3.359-3.226,3.446s.389,1.187.889,2.552l-.35.186-2.4,1.153c-.031-.061-.061-.121-.1-.182,2.781-1.226,1.261-3.316,1.416-3.9s3.321-3.873,3.321-3.873l.466.592C75.354,290.527,75.346,290.54,75.337,290.549Z" transform="translate(-68.52 -283.832)"/><path class="j" d="M70.058,302.644l2.773-1.362a.121.121,0,0,1,.161.055l.178.355a.121.121,0,0,1-.054.162l-2.761,1.39a.121.121,0,0,1-.163-.054L70,302.805A.12.12,0,0,1,70.058,302.644Z" transform="translate(-68.446 -288.759)"/></g><path class="o" d="M93.273,315.867a2.584,2.584,0,0,0-2.183,2.989,17.2,17.2,0,0,0,1.382,4.535c2.06,4.6,3.253,10.507,5.221,10.8s2.661-3.175,1.5-7.977c-1.046-4.34-1.18-9.791-2.582-10.289A9.591,9.591,0,0,0,93.273,315.867Z" transform="translate(-77.6 -285.198)"/><g transform="translate(19.123 47.529)"><path class="o" d="M103.427,345.967c-3.794-2.3-2.178,15.608-.846,20.376s2.1.693,2.209-7.1S104.92,346.873,103.427,345.967Z" transform="translate(-101.071 -345.763)"/></g><path class="o" d="M83.818,315.659a2.585,2.585,0,0,0-2.843,2.369,17.206,17.206,0,0,0,.239,4.736c.879,4.966.6,10.983,2.44,11.749s3.353-2.434,3.4-7.373c.04-4.464,1.235-9.785,0-10.608A9.6,9.6,0,0,0,83.818,315.659Z" transform="translate(-73.188 -285.146)"/><g transform="translate(9.163 47.7)"><path class="o" d="M86.367,346.311c-3.633-2.551-3.207,15.429-2.194,20.275s2.046.831,2.674-6.933S87.8,347.315,86.367,346.311Z" transform="translate(-83.461 -346.064)"/></g><path class="o" d="M102.276,378.989l.232,2.408h2.809l-.042-2.619Z" transform="translate(-82.471 -312.576)"/><path class="o" d="M83.965,378.989l.113,2.408h2.809l-.042-2.619Z" transform="translate(-74.517 -312.576)"/><path class="aa" d="M95.7,351.731H92.206l-1.243-17.363-3.878-11.723s-.622,10.575-.765,12.15c-.069.76-.35,4.728-.622,8.645-.289,4.223-.574,8.385-.574,8.385H81.968l-.717-18.032-.1-1.058-1.438-16.119,12.108-1.429.427-.052s3.446,13.442,3.636,17.937S95.7,351.731,95.7,351.731Z" transform="translate(-72.672 -284.929)"/><path class="x" d="M105.291,365.506H101.8c3.593-.54,3.684-18.658,3.684-18.658C105.67,351.347,105.291,365.506,105.291,365.506Z" transform="translate(-82.263 -298.705)"/><path class="ag" d="M81.113,320.548a67.081,67.081,0,0,1,.044,12.229l-1.438-16.119,12.108-1.429.25.039a13.968,13.968,0,0,1-6.676,2.767C81.514,318.475,81.009,318.329,81.113,320.548Z" transform="translate(-72.672 -284.969)"/><path class="ah" d="M92.074,299.048a20.562,20.562,0,0,1-8.782,2.526,10.887,10.887,0,0,1-4.677-.868s.13-7.4-.064-11.352-.669-9.953,1.183-10.493a10.585,10.585,0,0,1,2.638-.432,6.586,6.586,0,0,0,1.149.164,6.1,6.1,0,0,0,1.706-.233c1.628.013,5.138.415,5.238,4.007v.043C90.593,286.949,90.61,295.171,92.074,299.048Z" transform="translate(-72.078 -268.953)"/><path class="x" d="M97.11,285.522c.13,4.508.146,12.648,1.58,16.555a15.663,15.663,0,0,1-1.6-4.784,40.7,40.7,0,0,1-.657-7.794c.108-2.681-2.785-3.506-2.785-3.506Z" transform="translate(-78.725 -272.064)"/><path class="x" d="M102.609,314.884a.042.042,0,0,0-.018-.009c-.008-.026-.021-.052-.03-.082C102.578,314.823,102.591,314.854,102.609,314.884Z" transform="translate(-82.595 -284.78)"/><g transform="translate(11.98 0)"><g transform="translate(11.087)"><path class="o" d="M116.181,264.94c.16.026.2.22.133.546v.006a6.366,6.366,0,0,1-.406,1.2c-.252.6-.6,1.33-1.011,2.113-1.882,3.608-4.975,8.438-5.431,8.463-.663.034-1.17.288-1.409-1.127a1.014,1.014,0,0,1,.143-.717c.688-1.095,3.114-4.919,5.151-7.628.423-.564.831-1.084,1.2-1.516C115.282,265.426,115.875,264.892,116.181,264.94Z" transform="translate(-108.043 -263.122)"/><path class="o" d="M120.994,261.781a.192.192,0,0,1,.041.022l.5.314a.3.3,0,0,1,.143.269l-.022.855a3.435,3.435,0,0,1-.292,1.305l-.564.878-.118.189-.274-.113-.838-.349-.191-.075,0,0-.036-.093-.239-.663a1.277,1.277,0,0,1-.063-.608l.347-.848a.547.547,0,0,1,.178.422,1.191,1.191,0,0,0,.168.472l.133-.495.42-1.194A.51.51,0,0,1,120.994,261.781Z" transform="translate(-112.815 -261.727)"/></g><path class="o" d="M111.294,273.379l4.657-6.294,1.489.686-3.928,7.361Z" transform="translate(-98.368 -264.055)"/><path class="o" d="M89.667,281.462c.123.593-.6.739-.022.892,2.609.684,11.387,2.835,11.977.941.694-2.227-7.194-3.669-9.522-3.8C90.159,279.394,89.368,280.029,89.667,281.462Z" transform="translate(-88.865 -269.443)"/><path class="ai" d="M103.923,279.6a16.57,16.57,0,0,1-2.15,3.105c-1.438,1.222-5,.764-5.566.674-.051,0-.082,0-.082,0a32.9,32.9,0,0,1-6.447-.915,2.045,2.045,0,0,1-1.183-2.215c.208-.661.359-2.176,1.624-2.081a22.264,22.264,0,0,1,2.353.328c1.878.342,6.835,1.239,6.96,1.2.082-.03.868-.893,1.818-1.917Z" transform="translate(-88.441 -268.694)"/><path class="j" d="M110.713,277.837l2.725,1.766a.1.1,0,0,0,.141-.031l.256-.4a.1.1,0,0,0-.03-.14l-2.692-1.77a.1.1,0,0,0-.139.025l-.289.4A.1.1,0,0,0,110.713,277.837Z" transform="translate(-98.096 -268.469)"/></g><path class="f" d="M102.6,385.96v-3.552a4.58,4.58,0,0,0,2.86-.12,5.17,5.17,0,0,0,2.529,1.474c1.234.12,1.879.663,1.9,1.385C109.91,386.441,102.6,385.96,102.6,385.96Z" transform="translate(-82.61 -314.101)"/><path class="f" d="M84.12,382.665a9.239,9.239,0,0,0,2.825-.146s.332,1.09.5,1.481a1.214,1.214,0,0,0,1.014.859c.817.219.975,1.268.219,1.34s-4.563,0-4.563,0Z" transform="translate(-74.582 -314.201)"/></g><g transform="translate(113.216 2.635)"><rect class="aa" width="46.241" height="23.668" transform="translate(0 0)"/><g transform="translate(4.273 4.467)"><g transform="translate(22.959)"><path class="aj" d="M286.649,111.564a3.778,3.778,0,0,0,1.162,2.733l-2.523,2.523A7.367,7.367,0,0,1,290.45,104.2v3.566A3.8,3.8,0,0,0,286.649,111.564Z" transform="translate(-283.083 -104.197)"/><path class="e" d="M303.476,111.564H299.91a3.8,3.8,0,0,0-3.8-3.8V104.2A7.367,7.367,0,0,1,303.476,111.564Z" transform="translate(-288.742 -104.197)"/><path class="j" d="M299.511,117.223a7.367,7.367,0,0,1-12.529,5.255l2.523-2.523a3.8,3.8,0,0,0,6.44-2.733Z" transform="translate(-284.777 -109.856)"/></g><g transform="translate(0 2.453)"><rect class="j" width="16.443" height="1.057"/><rect class="j" width="16.443" height="1.057" transform="translate(0 4.386)"/><rect class="j" width="16.443" height="1.057" transform="translate(0 8.771)"/></g></g></g><g transform="translate(0 66.661)"><path class="ak" d="M34.759,220.929v3.676a.766.766,0,0,0,.766.766h1.381a.406.406,0,0,1,.39.3,10.771,10.771,0,0,0,1.257,2.812h0l-1.159,1.159a.766.766,0,0,0,0,1.084l2.6,2.6a.766.766,0,0,0,1.084,0l1.2-1.2h0a10.729,10.729,0,0,0,3.14,1.258h0v1.638a.766.766,0,0,0,.766.766h3.677a.766.766,0,0,0,.766-.766v-1.693h0A10.87,10.87,0,0,0,53.741,232h0l1.158,1.158a.766.766,0,0,0,1.084,0l2.6-2.6a.766.766,0,0,0,0-1.084l-.981-.981a.4.4,0,0,1-.064-.486,10.691,10.691,0,0,0,1.028-2.564.405.405,0,0,1,.392-.31h1.323a.767.767,0,0,0,.766-.766v-3.677a.767.767,0,0,0-.766-.766H58.894a.406.406,0,0,1-.39-.3,10.784,10.784,0,0,0-1.088-2.541.4.4,0,0,1,.059-.5l.935-.935a.766.766,0,0,0,0-1.084l-2.6-2.6a.766.766,0,0,0-1.083,0l-1.2,1.2h0a10.94,10.94,0,0,0-2.835-1.183.405.405,0,0,1-.309-.392v-1.321a.766.766,0,0,0-.766-.766H45.943a.767.767,0,0,0-.766.766v1.385a.4.4,0,0,1-.3.389,10.925,10.925,0,0,0-2.543,1.088.4.4,0,0,1-.495-.059l-.933-.933a.766.766,0,0,0-1.084,0l-2.6,2.6a.766.766,0,0,0,0,1.084l.98.98a.4.4,0,0,1,.064.486,10.806,10.806,0,0,0-1.031,2.565.405.405,0,0,1-.392.309H35.525A.766.766,0,0,0,34.759,220.929Zm7.867-1.53a4.865,4.865,0,0,1,1.993-2,6.219,6.219,0,0,1,8.55,8.516,4.859,4.859,0,0,1-2,2A6.22,6.22,0,0,1,42.626,219.4Z" transform="translate(-34.759 -209.502)"/><path class="al" d="M55.028,225.9a3.867,3.867,0,1,1-3.866,3.867A3.867,3.867,0,0,1,55.028,225.9Z" transform="translate(-41.885 -216.628)"/></g><g transform="translate(198.636 12.113)"><path class="am" d="M387.025,124.54V114.314h-1.063V125.6h19.184V124.54Z" transform="translate(-385.961 -113.603)"/><rect class="an" width="1.861" height="2.092" transform="translate(2.109 8.036)"/><rect class="ao" width="1.861" height="4.264" transform="translate(5.653 5.865)"/><rect class="ap" width="1.861" height="2.092" transform="translate(9.197 8.036)"/><rect class="aq" width="1.861" height="6.435" transform="translate(12.741 3.693)"/><rect class="ao" width="1.861" height="4.264" transform="translate(16.285 5.865)"/><path class="ar" d="M394.929,115.629l1.883,1.7a.4.4,0,0,0,.486.038l4.756-3.116.3.458.42-.829.419-.829-.928.051-.928.051.281.43-4.5,2.947-1.879-1.7a.4.4,0,0,0-.481-.041l-4.585,2.9.427.674Z" transform="translate(-387.791 -113.056)"/></g><g transform="translate(77.596)"><g transform="translate(8.295 5.72)"><path class="as" d="M192.606,103.851a2.1,2.1,0,1,1-2.1-2.1A2.1,2.1,0,0,1,192.606,103.851Z" transform="translate(-187.398 -101.753)"/><path class="at" d="M192.841,112.674H186.62a2.821,2.821,0,0,1,2.821-2.821h.579a2.821,2.821,0,0,1,2.821,2.821Z" transform="translate(-186.62 -105.272)"/></g><g transform="translate(16.589 5.72)"><path class="as" d="M207.272,103.851a2.1,2.1,0,1,1-2.1-2.1A2.1,2.1,0,0,1,207.272,103.851Z" transform="translate(-202.063 -101.753)"/><path class="at" d="M207.506,112.674h-6.221a2.822,2.822,0,0,1,2.821-2.821h.579a2.822,2.822,0,0,1,2.821,2.821Z" transform="translate(-201.285 -105.272)"/></g><g transform="translate(0 5.72)"><path class="au" d="M177.941,103.851a2.1,2.1,0,1,1-2.1-2.1A2.1,2.1,0,0,1,177.941,103.851Z" transform="translate(-172.732 -101.753)"/><path class="at" d="M178.175,112.674h-6.221a2.821,2.821,0,0,1,2.821-2.821h.579a2.821,2.821,0,0,1,2.821,2.821Z" transform="translate(-171.954 -105.272)"/></g><g transform="translate(2.937)"><path class="av" d="M193.934,95.6a.15.15,0,0,1-.15-.15V91.94H177.446v3.515a.15.15,0,1,1-.3,0V91.79a.149.149,0,0,1,.15-.15h16.638a.15.15,0,0,1,.15.15v3.665A.15.15,0,0,1,193.934,95.6Z" transform="translate(-177.146 -91.64)"/><g transform="translate(8.319)"><path class="aw" d="M192,95.6a.15.15,0,0,1-.15-.15V91.79a.15.15,0,0,1,.3,0v3.665A.15.15,0,0,1,192,95.6Z" transform="translate(-191.854 -91.64)"/></g></g><path class="ax" d="M206.969,98.587a.486.486,0,1,1-.486-.486A.486.486,0,0,1,206.969,98.587Z" transform="translate(-186.742 -94.447)"/><path class="ax" d="M192.218,98.587a.486.486,0,1,1-.486-.486A.486.486,0,0,1,192.218,98.587Z" transform="translate(-180.334 -94.447)"/><path class="ax" d="M177.5,98.587a.486.486,0,1,1-.486-.486A.486.486,0,0,1,177.5,98.587Z" transform="translate(-173.939 -94.447)"/></g><g transform="translate(102.575 108.281)"><path class="ay" d="M233.525,321.459l9.015-.743-.233-15.465-.781-3.854-4.233-1.364-2.666.622a3.154,3.154,0,0,0-2.429,3.31l1.424,10.894Z" transform="translate(-223.101 -290.449)"/><path class="ay" d="M239.295,296.741l.126,3.1a4.612,4.612,0,0,0,2.207.3c.828-.033,1-.433,1-.433l-.046-1.148Z" transform="translate(-226.188 -289.019)"/><path class="ay" d="M238.463,289.055c.012.113.02.217.031.318,0,.037,0,.073,0,.113,0,1.846,1.261,3.771,3.054,3.967l.04.006c.015,0,.036,0,.062,0,.383.032,1.766.088,2.248-.488a4.7,4.7,0,0,0,1.008-2.713,10.493,10.493,0,0,0-.2-1.335c-.01-.257.1-1.069.084-1.419a3.093,3.093,0,0,0-3.194-3.152C238.644,284.473,238.3,287.078,238.463,289.055Z" transform="translate(-225.812 -283.637)"/><path class="az" d="M245.174,301.813" transform="translate(-228.741 -291.223)"/><g transform="translate(14.188 10.226)"><path class="ay" d="M244.037,314.455c1.042-.123.887-6.245.629-8.837s-.926-4.59-2.2-4.44-1.456,2.248-1.1,4.83S242.994,314.578,244.037,314.455Z" transform="translate(-241.206 -301.17)"/><g transform="translate(2.045 11.511)"><path class="ay" d="M255.274,329.332c.548-.753-4.839-4.991-6.4-6.129s-3.3-2.224-3.912-1.381.952,2.16,2.516,3.3S254.726,330.084,255.274,329.332Z" transform="translate(-244.823 -321.522)"/><path class="ay" d="M260.678,333.023c-.711.839.911,1.925,1.477,2.275a2.589,2.589,0,0,0,2.659-.093c.227-.355-1.96-1.49-1.978-1.615s1.095.6,1.273.242-1.217-1.168-1.892-1.278A1.406,1.406,0,0,0,260.678,333.023Z" transform="translate(-251.633 -326.294)"/></g><path class="ay" d="M244.87,309.944s.793,5.754.844,5.845,5.487,5.1,5.487,5.1l-1.09,1.586s-5.548-3.042-6.626-4.676-1.992-8.6-1.992-8.6Z" transform="translate(-241.331 -304.659)"/></g><path class="ay" d="M245.437,334.67c-.934.235-1.6,1.6-1.448,2.954a19.737,19.737,0,0,0,.947,4.143c1.4,4.157,2.229,9.593,3.55,9.727s2.137-3.084,1.339-7.491c-.722-3.984-1.206-9.155-2.148-9.518A4.675,4.675,0,0,0,245.437,334.67Z" transform="translate(-228.217 -305.381)"/><g transform="translate(18.21 43.147)"><path class="ay" d="M250.878,359.431c-3.562-1.243-2.7,18.874-1.61,22.018s1.963-7.719,2.386-13.056S252.279,359.919,250.878,359.431Z" transform="translate(-248.316 -359.375)"/><path class="ay" d="M248.6,391.481c.039.057.116,4.824.116,4.824a10.758,10.758,0,0,0,2.3.088c.006-.164.343-4.286.343-4.286Z" transform="translate(-248.441 -373.322)"/><path class="ba" d="M250.935,399.182s.215.712,1.643,1.684,1.82.787,1.84,1.131-6.086-.173-6.086-.173l.2-2.812S250.937,399.108,250.935,399.182Z" transform="translate(-248.323 -376.594)"/></g><path class="ay" d="M220.653,387.373c0,.068-2.4,4.186-2.4,4.186s1.829,1.4,1.919,1.266,2.514-3.488,2.514-3.488Z" transform="translate(-217.046 -328.391)"/><path class="ay" d="M235.384,335.534c-.943.2-1.659,1.535-1.562,2.9a19.778,19.778,0,0,0,.786,4.176c1.239,4.209,1.855,9.673,3.169,9.858s2.256-3,1.629-7.433c-.566-4.009-.849-9.195-1.776-9.595A4.673,4.673,0,0,0,235.384,335.534Z" transform="translate(-223.806 -305.784)"/><g transform="translate(1.824 44.991)"><path class="ay" d="M232.8,362.989c-2.253-3.025-12.514,14.327-13.373,17.542s5.65-5.5,8.992-9.685S233.682,364.179,232.8,362.989Z" transform="translate(-219.345 -362.637)"/></g><path class="bb" d="M238.933,367.739s-3.153-.029-3.159-.054a154.753,154.753,0,0,1,0-16.489c0-.221-2.158-9.079-2.3-9.628v.024a59.834,59.834,0,0,1,.715,7.41,6.947,6.947,0,0,1-.119,1.467c-.376,1.6-11.8,16.113-11.8,16.113l-2.039-1.192-.537-.316s4.74-8.555,5.914-10.337c1.228-1.866,3.6-4.81,3.559-5.251s-2.8-11.726-1.681-15.565c1.825-6.289,10.486-.626,10.486-.626s1.866,4.465,2.486,15.786C240.615,351.918,238.933,367.739,238.933,367.739Z" transform="translate(-217.673 -303.882)"/><path class="bc" d="M234.607,355.133a6.947,6.947,0,0,1-.119,1.467c-.376,1.6-11.8,16.113-11.8,16.113l-2.039-1.192c3.392-.912,3.9-2.336,5.932-4.96,2.295-2.951,6.223-8.28,6.843-10.027s-.584-11.47-.584-11.47l1.049,2.605.006.029v.024Z" transform="translate(-218.086 -310.012)"/><path class="bd" d="M243.459,320.383l-3.774.22-6.6.382a.513.513,0,0,1-.549-.537c.084-2.08.334-9.24-.006-10.933-1.21-6-.316-7.982,1.347-8.519,2.492-.811,7.184,0,7.833.554s1.18,1.556,1.383,3.637a9.474,9.474,0,0,1,.191,2.629,5.687,5.687,0,0,1-.131.8v.006a2.933,2.933,0,0,1-.083.3c-.06.2-.1.346-.126.4-1.085,3.058.387,9.252.763,10.718A.268.268,0,0,1,243.459,320.383Z" transform="translate(-223.004 -290.719)"/><path class="be" d="M249.388,325.884l-3.774.22a6.831,6.831,0,0,0,2.152-.781c1.168-.817.191-3.964.251-6.766s-.662-2.743-.662-2.743c.763-.316,1.467-1.657,1.854-2.5a5.684,5.684,0,0,1-.131.8v.006a2.948,2.948,0,0,1-.083.3c-.06.2-.1.346-.126.4-1.085,3.058.387,9.252.763,10.718A.268.268,0,0,1,249.388,325.884Z" transform="translate(-228.933 -296.22)"/><g transform="translate(16.324 6.033)"><path class="ay" d="M257.884,306.473c.25-1.011-5.485-3.005-7.982-3.671s-4.583-.744-4.888.489,1.577,2.136,4.1,2.711S257.634,307.483,257.884,306.473Z" transform="translate(-244.981 -297.478)"/><g transform="translate(11.605)"><path class="ay" d="M274.477,293.814c-.666-.639-5.551,4.087-6.879,5.471s-2.627,2.943-1.88,3.659,2.25-.646,3.578-2.03S275.142,294.453,274.477,293.814Z" transform="translate(-265.499 -293.755)"/></g><path class="ay" d="M248.043,299.625l9.924,2.385,6.1-5.2,1.314,1.162s-4.766,6.494-6.51,7.077-10.779-1.42-10.779-1.42Z" transform="translate(-246.311 -295.08)"/></g><path class="bb" d="M237.929,296.8c.165,2.488-.144,4.817-2.312,6.337-2.371,1.661-6.1,1.6-8.8,1.019-2.4-.519-4.329-2.086-4.105-4.726.01-.114.023-.229.039-.342.858-3.86,5.576-5.147,6.832-8.646a5.225,5.225,0,0,0,.267-1.092c.2-1.532.3-3.249,1.318-4.5a.018.018,0,0,0,.006-.012,4.312,4.312,0,0,1,2.265-1.633c1.663-.405,4.7.2,5.02,2.26a2.284,2.284,0,0,1,.024.447,7.894,7.894,0,0,1-.8,2.444,3.7,3.7,0,0,0-.209.7C237.032,291.287,237.752,294.137,237.929,296.8Z" transform="translate(-218.977 -283.089)"/><path class="bf" d="M219.569,395.183a6.209,6.209,0,0,0,.2,1.987c.262,1.184,1,1.457.779,1.67s-4.432-2.8-4.432-2.8l1.439-2.182Z" transform="translate(-216.12 -331.208)"/><path class="ay" d="M277.87,294.861s1.425-1.663,1.644-1.888,1.075.124,1.557-.663a1.179,1.179,0,0,0-.259-1.468c-.084-.163,1.106-1.253.838-1.487s-1.854,1.322-1.854,1.322a1.383,1.383,0,0,0-.681.46c-.3.351-1.7,1.74-2.094,2.124" transform="translate(-242.576 -285.8)"/></g></svg>