<svg xmlns="http://www.w3.org/2000/svg" xmlns:xlink="http://www.w3.org/1999/xlink" width="276.858" height="168.805" viewBox="0 0 276.858 168.805"><defs><style>.a{fill:url(#a);}.b{fill:#d9d9d9;}.c{fill:#999;}.d{fill:#fff;}.e{fill:#b0b0b0;}.f{fill:#f6d2a6;}.g{fill:#af7d61;}.h{fill:#383e56;}.i{fill:#f5cf9f;}.j{fill:#515770;}.k{fill:#2d334a;}.l{fill:#454a5f;}.m{fill:#8987a8;}.n{fill:#adb1cc;}.o{fill:#6f728a;}.p{fill:#f3c48a;}.q{fill:#575c6e;}.r{fill:#8d91b3;}.s{fill:#deb9a4;}.t{fill:#ab7f67;}.u{fill:#3b3e54;}.v,.x{fill:none;}.v{stroke:#fff;stroke-miterlimit:10;stroke-width:1.076px;}.w{fill:#efaf61;}.x{stroke:#2d334a;stroke-linecap:round;stroke-linejoin:round;stroke-width:1.196px;}.y{fill:#b8b8b8;}</style><linearGradient id="a" x1="0.5" x2="0.5" y2="1" gradientUnits="objectBoundingBox"><stop offset="0" stop-color="#ffa5a5"/><stop offset="0.393" stop-color="#ee5151"/><stop offset="1" stop-color="#fff"/></linearGradient></defs><g transform="translate(0)"><path class="a" d="M431.987,297.669a58.593,58.593,0,0,0-18.107,2.866c-14.8-21.9-37.938-35.994-63.941-35.994-38.57,0-70.83,31-78.943,72.5a14.01,14.01,0,0,0-3.285-.391c-8.8,0-15.938,8.2-15.938,18.312a21.044,21.044,0,0,0,.32,3.669c-17.52,5.173-30.467,23.444-30.467,45.188a51.769,51.769,0,0,0,5.731,23.909H479.321c11.848-13.8,19.162-32.745,19.162-53.658C498.483,331.873,468.712,297.669,431.987,297.669Z" transform="translate(-221.625 -258.92)"/><g transform="translate(167.964 109.65)"><path class="b" d="M2146.777,1509.082a10.42,10.42,0,0,0-10.017,7.552h20.033A10.42,10.42,0,0,0,2146.777,1509.082Z" transform="translate(-2136.76 -1502.957)"/><path class="b" d="M2654.166,1468.349a15.35,15.35,0,0,0-14.755,11.124h29.511A15.349,15.349,0,0,0,2654.166,1468.349Z" transform="translate(-2595.327 -1465.796)"/><path class="b" d="M2285.524,1452.916c2.262-7.829,11.229-13.677,21.946-13.677s19.684,5.848,21.946,13.677Z" transform="translate(-2272.477 -1439.239)"/></g><path class="c" d="M747.409,981.554a17.7,17.7,0,0,0-5.2,2.646l-.054-.218c-.467-1.864-1.047-3.957-1.755-6.2a17.7,17.7,0,0,0,5.566-2.148,17.455,17.455,0,0,0,4.754-4.36,17.455,17.455,0,0,0-6.052,2.233,17.7,17.7,0,0,0-4.392,3.886c-.595-1.857-1.279-3.812-2.063-5.825a17.712,17.712,0,0,0,4.795-3.482,17.451,17.451,0,0,0,3.481-5.431,17.454,17.454,0,0,0-5.28,3.706,17.687,17.687,0,0,0-3.183,4.727c-.793-2.005-1.686-4.064-2.688-6.134a17.7,17.7,0,0,0,4.212-4.176,17.454,17.454,0,0,0,2.613-5.9,17.452,17.452,0,0,0-4.653,4.468,17.686,17.686,0,0,0-2.412,5.114c-.684-1.391-1.418-2.786-2.206-4.173a17.709,17.709,0,0,0,2.314-5.446,17.456,17.456,0,0,0,.189-6.448,16.642,16.642,0,0,0-2.961,11.1q-.845-1.447-1.77-2.875a16.643,16.643,0,0,0-6.483-9.493,16.64,16.64,0,0,0,5.738,9.919q.958,1.473,1.829,2.974a17.687,17.687,0,0,0-5.493-1.258,17.455,17.455,0,0,0-6.388.895,17.455,17.455,0,0,0,6.251,1.593,17.706,17.706,0,0,0,5.916-.738c.8,1.39,1.535,2.79,2.225,4.186a17.7,17.7,0,0,0-5.859.358,17.455,17.455,0,0,0-5.858,2.7,17.454,17.454,0,0,0,6.445-.28,17.694,17.694,0,0,0,5.452-2.417c1.036,2.123,1.956,4.235,2.771,6.292a17.7,17.7,0,0,0-5.837-.154,17.453,17.453,0,0,0-6.073,2.174,17.452,17.452,0,0,0,6.444.29,17.7,17.7,0,0,0,5.621-1.913c.794,2.032,1.487,4.006,2.087,5.879a17.7,17.7,0,0,0-5.8-.358,17.452,17.452,0,0,0-6.148,1.953,17.455,17.455,0,0,0,6.43.522,17.7,17.7,0,0,0,5.651-1.691c.7,2.212,1.271,4.276,1.732,6.117.023.092.046.184.068.275a17.631,17.631,0,0,0-6.267.308,17.454,17.454,0,0,0-5.858,2.7,16.714,16.714,0,0,0,12.158-2.877,93.04,93.04,0,0,1,2.332,13l.854-.071a93.5,93.5,0,0,0-2.291-12.879,17.7,17.7,0,0,0,5.819-.694,17.452,17.452,0,0,0,5.694-3.032A17.455,17.455,0,0,0,747.409,981.554Z" transform="translate(-676.169 -880.81)"/><path class="c" d="M574.928,1186.228a11.344,11.344,0,0,0-2.7,2.581l-.073-.124c-.63-1.058-1.371-2.236-2.218-3.482a11.342,11.342,0,0,0,3.021-2.343,11.185,11.185,0,0,0,2.116-3.551,11.186,11.186,0,0,0-3.3,2.484,11.347,11.347,0,0,0-1.981,3.193c-.707-1.03-1.487-2.1-2.338-3.2a11.347,11.347,0,0,0,2.3-3.02,11.184,11.184,0,0,0,1.138-3.974,11.187,11.187,0,0,0-2.559,3.246,11.337,11.337,0,0,0-1.084,3.488c-.856-1.085-1.783-2.184-2.779-3.271a11.343,11.343,0,0,0,1.817-3.338,11.186,11.186,0,0,0,.518-4.1,11.188,11.188,0,0,0-2.034,3.6,11.327,11.327,0,0,0-.54,3.583c-.676-.728-1.384-1.449-2.122-2.156a11.349,11.349,0,0,0,.418-3.768,11.182,11.182,0,0,0-1.071-3.993,10.665,10.665,0,0,0,.225,7.358q-.785-.733-1.615-1.439a10.663,10.663,0,0,0-5.726-4.634,10.665,10.665,0,0,0,5.347,5.032q.859.728,1.67,1.489a11.325,11.325,0,0,0-3.6.239,11.183,11.183,0,0,0-3.757,1.725,11.182,11.182,0,0,0,4.13-.172,11.342,11.342,0,0,0,3.5-1.542c.744.707,1.455,1.43,2.136,2.16a11.338,11.338,0,0,0-3.53,1.3,11.185,11.185,0,0,0-3.1,2.736,11.184,11.184,0,0,0,3.9-1.358,11.339,11.339,0,0,0,2.9-2.487c1.027,1.112,1.98,2.24,2.859,3.352a11.346,11.346,0,0,0-3.611.98,11.186,11.186,0,0,0-3.328,2.452,11.186,11.186,0,0,0,4.009-1.008,11.343,11.343,0,0,0,3.1-2.209c.862,1.1,1.65,2.185,2.363,3.224a11.346,11.346,0,0,0-3.624.847,11.188,11.188,0,0,0-3.414,2.33,11.184,11.184,0,0,0,4.043-.863,11.35,11.35,0,0,0,3.157-2.078c.836,1.229,1.567,2.391,2.189,3.436l.093.156a11.3,11.3,0,0,0-3.79,1.342,11.182,11.182,0,0,0-3.1,2.736,11.178,11.178,0,0,0,3.9-1.358,11.3,11.3,0,0,0,3.029-2.645,59.6,59.6,0,0,1,3.824,7.551l.511-.2a59.93,59.93,0,0,0-3.777-7.483,11.343,11.343,0,0,0,3.444-1.5,11.182,11.182,0,0,0,2.937-2.909A11.188,11.188,0,0,0,574.928,1186.228Z" transform="translate(-524.843 -1082.34)"/><g transform="translate(64.63 51.887)"><path class="d" d="M1101.232,803.1a2.4,2.4,0,0,1,2.3,1.736h-4.6A2.4,2.4,0,0,1,1101.232,803.1Z" transform="translate(-1086.617 -801.695)"/><path class="d" d="M961.936,793.74a3.528,3.528,0,0,1,3.392,2.557h-6.784A3.528,3.528,0,0,1,961.936,793.74Z" transform="translate(-958.544 -793.153)"/><path class="d" d="M1012.288,790.192c-.52-1.8-2.581-3.144-5.045-3.144s-4.525,1.344-5.045,3.144Z" transform="translate(-998.369 -787.048)"/></g><g transform="translate(157.223 3.209)"><path class="d" d="M2023.772,303.154a9.861,9.861,0,0,0-9.48,7.146h18.959A9.861,9.861,0,0,0,2023.772,303.154Z" transform="translate(-2014.293 -297.357)"/><path class="d" d="M2503.957,264.6a14.527,14.527,0,0,0-13.964,10.527h27.928A14.527,14.527,0,0,0,2503.957,264.6Z" transform="translate(-2448.272 -262.188)"/><path class="d" d="M2155.08,250c2.141-7.409,10.627-12.943,20.769-12.943s18.628,5.534,20.77,12.943Z" transform="translate(-2142.733 -237.056)"/></g><g transform="translate(218.601 79.336)"><g transform="translate(30.069 0.914)"><path class="b" d="M3056.972,1112.735a7.253,7.253,0,0,0,2.2-4.685c.271-3.061,2.9-3.179,3.535-1.819S3062.444,1110.705,3056.972,1112.735Z" transform="translate(-3056.972 -1105.401)"/></g><g transform="translate(25.326 0)"><path class="b" d="M3004.874,1103.782a7.252,7.252,0,0,0-1.292-5.013c-1.744-2.53.2-4.3,1.563-3.655S3007.794,1098.728,3004.874,1103.782Z" transform="translate(-3002.891 -1094.981)"/></g><g transform="translate(27.427 9.145)"><path class="b" d="M3026.851,1199.256a7.251,7.251,0,0,1,3.325,3.968c1.043,2.891,3.613,2.334,3.883.856S3032.66,1199.821,3026.851,1199.256Z" transform="translate(-3026.851 -1199.256)"/></g><g transform="translate(22.581 11.355)"><path class="b" d="M2971.6,1224.448a7.249,7.249,0,0,1,3.325,3.968c1.043,2.891,3.614,2.334,3.882.856S2977.409,1225.013,2971.6,1224.448Z" transform="translate(-2971.6 -1224.448)"/></g><g transform="translate(18.752 14.458)"><path class="b" d="M2927.942,1259.836a7.251,7.251,0,0,1,3.325,3.968c1.043,2.891,3.613,2.334,3.882.856S2933.751,1260.4,2927.942,1259.836Z" transform="translate(-2927.942 -1259.836)"/></g><g transform="translate(14.179 18.504)"><path class="b" d="M2875.8,1305.961a7.253,7.253,0,0,1,3.325,3.968c1.043,2.891,3.613,2.333,3.882.856S2881.61,1306.527,2875.8,1305.961Z" transform="translate(-2875.801 -1305.961)"/></g><g transform="translate(20.645 2.543)"><path class="b" d="M2951.5,1132.775a7.25,7.25,0,0,0-1.292-5.013c-1.745-2.531.2-4.3,1.562-3.656S2954.423,1127.721,2951.5,1132.775Z" transform="translate(-2949.52 -1123.974)"/></g><g transform="translate(16.218 5.838)"><path class="b" d="M2901.03,1170.349a7.252,7.252,0,0,0-1.292-5.013c-1.744-2.531.2-4.3,1.563-3.656S2903.95,1165.3,2901.03,1170.349Z" transform="translate(-2899.047 -1161.548)"/></g><g transform="translate(12.089 9.528)"><path class="b" d="M2853.944,1212.419a7.25,7.25,0,0,0-1.292-5.013c-1.744-2.53.2-4.3,1.563-3.656S2856.865,1207.366,2853.944,1212.419Z" transform="translate(-2851.961 -1203.619)"/></g><g transform="translate(0 7.286)"><path class="b" d="M2714.294,1208.367a.261.261,0,0,0,.328-.13,75.216,75.216,0,0,1,8.024-12.4c4.762-6.019,12.548-13.9,22.588-17.268a.261.261,0,1,0-.165-.495c-10.166,3.41-18.031,11.37-22.84,17.448a75.7,75.7,0,0,0-8.077,12.491.261.261,0,0,0,.121.348Z" transform="translate(-2714.127 -1178.058)"/></g></g><g transform="translate(210.509 60.653)"><g transform="translate(19.528 0)"><path class="b" d="M2844.522,892.815a8.305,8.305,0,0,0,.337-5.92c-1.021-3.369,1.72-4.617,2.979-3.445S2849.469,888.318,2844.522,892.815Z" transform="translate(-2844.522 -883.02)"/></g><g transform="translate(11.58 2.233)"><path class="b" d="M2759.146,917.811a8.308,8.308,0,0,0-3.517-4.775c-2.936-1.943-1.62-4.653.1-4.553S2760.088,911.192,2759.146,917.811Z" transform="translate(-2753.894 -908.481)"/></g><g transform="translate(17.105 11.163)"><path class="b" d="M2816.891,1011.017a8.306,8.306,0,0,1,5.23,2.794c2.344,2.626,4.837.935,4.491-.75S2823.306,1009.133,2816.891,1011.017Z" transform="translate(-2816.891 -1010.301)"/></g><g transform="translate(12.9 15.583)"><path class="b" d="M2768.951,1061.414a8.308,8.308,0,0,1,5.23,2.795c2.344,2.626,4.837.935,4.491-.751S2775.366,1059.531,2768.951,1061.414Z" transform="translate(-2768.951 -1060.699)"/></g><g transform="translate(10.159 20.519)"><path class="b" d="M2737.691,1117.688a8.306,8.306,0,0,1,5.23,2.794c2.344,2.625,4.837.935,4.492-.75S2744.105,1115.8,2737.691,1117.688Z" transform="translate(-2737.691 -1116.973)"/></g><g transform="translate(7.029 26.773)"><path class="b" d="M2702.009,1189a8.307,8.307,0,0,1,5.23,2.794c2.345,2.626,4.837.935,4.492-.75S2708.424,1187.117,2702.009,1189Z" transform="translate(-2702.009 -1188.285)"/></g><g transform="translate(7.693 6.937)"><path class="b" d="M2714.829,971.443a8.306,8.306,0,0,0-3.516-4.774c-2.935-1.943-1.62-4.653.1-4.553S2715.771,964.825,2714.829,971.443Z" transform="translate(-2709.578 -962.113)"/></g><g transform="translate(4.398 12.332)"><path class="b" d="M2677.261,1032.955a8.308,8.308,0,0,0-3.516-4.774c-2.936-1.943-1.62-4.653.1-4.553S2678.2,1026.336,2677.261,1032.955Z" transform="translate(-2672.01 -1023.625)"/></g><g transform="translate(1.588 18.018)"><path class="b" d="M2645.217,1097.8a8.306,8.306,0,0,0-3.516-4.775c-2.935-1.943-1.62-4.653.1-4.553S2646.159,1091.177,2645.217,1097.8Z" transform="translate(-2639.965 -1088.466)"/></g><g transform="translate(0 8.343)"><path class="b" d="M2622.164,1023.57a.3.3,0,0,0,.293-.279,86.147,86.147,0,0,1,3.222-16.611c2.487-8.433,7.39-20.137,16.619-28.009a.3.3,0,1,0-.388-.455c-9.345,7.97-14.3,19.793-16.809,28.308a86.743,86.743,0,0,0-3.241,16.727.3.3,0,0,0,.278.318Z" transform="translate(-2621.859 -978.145)"/></g></g><g transform="translate(67.199 122.536)"><path class="e" d="M1125.822,1593.325H992.3a4.942,4.942,0,0,1,0-9.838h133.525a4.942,4.942,0,0,1,0,9.838Z" transform="translate(-987.829 -1583.487)"/></g><circle class="d" cx="1.465" cy="1.465" r="1.465" transform="translate(128.11 81.515)"/><circle class="d" cx="1.465" cy="1.465" r="1.465" transform="translate(78.561 43.779)"/><circle class="d" cx="1.465" cy="1.465" r="1.465" transform="translate(168.106 65.894)"/><g transform="translate(198.526 62.193)"><path class="c" d="M2519.85,921.078a.692.692,0,0,0-.929.307.685.685,0,0,0-.053.475,19.915,19.915,0,0,0-1.865,1.529,10.772,10.772,0,0,0,.49-2.521.694.694,0,1,0-.374,0,11.4,11.4,0,0,1-.707,3.087,29.983,29.983,0,0,0-5.091,6.837l.332.17a28.123,28.123,0,0,1,2.056-3.258c.4-.546.871-1.165,1.418-1.81a7.361,7.361,0,0,1,2.565.284.692.692,0,1,0,.141-.348,8.076,8.076,0,0,0-2.367-.329,22.2,22.2,0,0,1,3.586-3.313.692.692,0,1,0,.8-1.109Z" transform="translate(-2509.032 -918.072)"/><path class="c" d="M2487.069,909.912a7.353,7.353,0,0,1,2.5-.638.691.691,0,1,0,.009-.375,8.059,8.059,0,0,0-2.331.526,22.2,22.2,0,0,1,2.189-4.364.692.692,0,1,0-.288-.241,19.916,19.916,0,0,0-1.207,2.088,10.736,10.736,0,0,0-.43-2.532.694.694,0,1,0-.35.13,11.391,11.391,0,0,1,.426,3.138,29.991,29.991,0,0,0-2.356,8.192l.371.042a28.116,28.116,0,0,1,.777-3.773C2486.557,911.455,2486.784,910.708,2487.069,909.912Z" transform="translate(-2485.232 -903.125)"/></g><circle class="d" cx="2.625" cy="2.625" r="2.625" transform="translate(119.556 88.99)"/><circle class="d" cx="2.625" cy="2.625" r="2.625" transform="translate(154.599 38.098)"/><g transform="translate(204.192 11.662)"><path class="c" d="M2902.6,373.131a5.922,5.922,0,0,1,5.693,4.292h-11.385A5.922,5.922,0,0,1,2902.6,373.131Z" transform="translate(-2866.466 -369.65)"/><path class="c" d="M2558.212,349.981a8.724,8.724,0,0,1,8.386,6.322h-16.772A8.724,8.724,0,0,1,2558.212,349.981Z" transform="translate(-2549.826 -348.53)"/><path class="c" d="M2682.7,341.211c-1.286-4.449-6.381-7.773-12.472-7.773s-11.187,3.323-12.472,7.773Z" transform="translate(-2648.289 -333.438)"/></g><g transform="translate(22.212 111.608)"><path class="c" d="M736.185,1469.268a11.857,11.857,0,0,1,11.4,8.593h-22.8A11.857,11.857,0,0,1,736.185,1469.268Z" transform="translate(-702.87 -1468.607)"/><path class="c" d="M925.021,1499.631a8.183,8.183,0,0,1,7.866,5.93H917.155A8.183,8.183,0,0,1,925.021,1499.631Z" transform="translate(-878.367 -1496.306)"/><path class="c" d="M504.589,1470.979c-1.531-5.3-7.6-9.255-14.85-9.255s-13.319,3.957-14.85,9.255Z" transform="translate(-474.889 -1461.724)"/></g><g transform="translate(62.952 116.462)"><path class="b" d="M1218,1548.189a4.676,4.676,0,0,1,4.5,3.389H1213.5A4.677,4.677,0,0,1,1218,1548.189Z" transform="translate(-1189.463 -1545.44)"/><path class="b" d="M946.03,1529.907a6.889,6.889,0,0,1,6.623,4.993H939.408A6.889,6.889,0,0,1,946.03,1529.907Z" transform="translate(-939.408 -1528.761)"/><path class="b" d="M1044.34,1522.98c-1.016-3.514-5.04-6.138-9.85-6.138s-8.834,2.625-9.85,6.138Z" transform="translate(-1017.166 -1516.842)"/></g><g transform="translate(193.788 129.026)"><path class="f" d="M2435.1,1684.673a4.055,4.055,0,0,0-3.9,2.939h7.8A4.055,4.055,0,0,0,2435.1,1684.673Z" transform="translate(-2431.205 -1682.289)"/><path class="f" d="M2489.1,1662.815c.88-3.047,4.37-5.323,8.541-5.323s7.66,2.276,8.541,5.323Z" transform="translate(-2484.022 -1657.492)"/></g><g transform="translate(88.924 33.617)"><path class="d" d="M1336.03,637.862a.72.72,0,0,0-1.1.323c-.189.2-.064.718.195.929l6.017,4.41c.09.08.226-.066.309-.153a.222.222,0,0,0,.055-.1.9.9,0,0,0-.135-.852A28.389,28.389,0,0,0,1336.03,637.862Z" transform="translate(-1326.131 -632.598)"/><g transform="translate(13.734 39.614)"><path class="g" d="M1393.642,1034.837a.436.436,0,0,1-.084.032.445.445,0,0,1-.548-.31l-.855-3.088a.446.446,0,0,1,.859-.238l.855,3.088A.446.446,0,0,1,1393.642,1034.837Z" transform="translate(-1392.138 -1030.907)"/></g><g transform="translate(7.615 15.418)"><path class="h" d="M1330.234,781.437c-.418.246-1.045.227-1.486.428-2.167-7.414-3.5-19.188-6.38-25.545,1.184-.447,2.376-.874,3.567-1.3C1328.522,762.279,1327.427,772.5,1330.234,781.437Z" transform="translate(-1322.369 -755.019)"/></g><g transform="translate(3.275 39.614)"><path class="g" d="M1273.132,1034.837a.439.439,0,0,0,.084.032.445.445,0,0,0,.548-.31l.855-3.088a.446.446,0,0,0-.859-.238l-.855,3.088A.446.446,0,0,0,1273.132,1034.837Z" transform="translate(-1272.889 -1030.907)"/></g><g transform="translate(3.275 15.418)"><path class="h" d="M1272.888,781.437c.418.246,1.045.227,1.486.428,2.167-7.414,3.5-19.188,6.379-25.545-1.184-.447-2.375-.874-3.567-1.3C1274.6,762.279,1275.7,772.5,1272.888,781.437Z" transform="translate(-1272.888 -755.019)"/></g><g transform="translate(6.321 4.949)"><path class="d" d="M1307.685,642.013c-.011.163-.013.354-.023.532-.021.414-.032.843-.036,1.267,0,.171,0,.35,0,.53,0,.381.013.763.03,1.151.007.171.017.348.029.529.018.275.042.555.074.838.02.174.042.351.067.535.069.512-.291,1.363-.2,1.874a13.777,13.777,0,0,1,1.477-.415,13.632,13.632,0,0,1,2.081.173l.121.02a16.748,16.748,0,0,1,2.343.566c-.124-.5-.245-1.024-.357-1.525-.043-.191-.079-.365-.116-.546-.042-.207-.079-.4-.116-.6-.016-.085-.03-.166-.044-.246-.019-.1-.037-.215-.053-.314-.058-.354-.114-.72-.163-1.066-.028-.2-.053-.388-.076-.567-.038-.3-.074-.6-.105-.881-.022-.2-.042-.406-.061-.579-.014-.121-.025-.309-.034-.392a21.952,21.952,0,0,1-.171-4.266,2.524,2.524,0,0,0-.808-2.295,1.526,1.526,0,0,0-.252-.205,1.953,1.953,0,0,0-3.212,1.033,8.588,8.588,0,0,0-.189,1.616C1307.815,639.8,1307.756,640.95,1307.685,642.013Z" transform="translate(-1307.609 -635.651)"/></g><g transform="translate(8.023 6.264)"><path class="i" d="M1327.906,650.769c1.022,3.819-1.466,4.368-.753,7.536l1.124,1,.826-1.289c-1.217-2.977.763-3.954-.629-7.362C1328.284,650.687,1328.1,650.73,1327.906,650.769Z" transform="translate(-1327.023 -650.651)"/></g><path class="j" d="M1398.151,1070.161a2.512,2.512,0,0,0,.754-.109c1.068.168,2.976.634,2.913,1.125a28.72,28.72,0,0,1-4.4.024c-.187-.022-.127-.543-.063-.9a.231.231,0,0,1,.267-.187A2.919,2.919,0,0,0,1398.151,1070.161Z" transform="translate(-1383.109 -1027.005)"/><path class="j" d="M1239.21,1070.161a2.514,2.514,0,0,1-.755-.109c-1.068.168-2.976.634-2.913,1.125a28.719,28.719,0,0,0,4.4.024c.187-.022.126-.543.064-.9a.231.231,0,0,0-.267-.187A2.917,2.917,0,0,1,1239.21,1070.161Z" transform="translate(-1235.542 -1027.005)"/><path class="g" d="M1285.531,779.194a.839.839,0,0,1,.719.2c.5.448,1.42,1.324,1.413,1.739-.01.57-1.824-.618-2.278-1.908Z" transform="translate(-1281.014 -761.642)"/><path class="d" d="M1266.619,645.091a.72.72,0,0,0-.268-1.114c-.188-.2-.714-.1-.937.148l-4.7,5.791c-.085.086.055.229.137.316a.225.225,0,0,0,.1.06.9.9,0,0,0,.858-.093A28.38,28.38,0,0,0,1266.619,645.091Z" transform="translate(-1258.479 -638.201)"/><g transform="translate(2.094 11.445)"><path class="d" d="M1262.385,715.869a25.539,25.539,0,0,0-1.726-5.658c-.412-.708-.835-.447-.856-.442a.669.669,0,0,0-.361.766l2.232,5.555Z" transform="translate(-1259.419 -709.718)"/></g><path class="g" d="M1473.338,655.225a.84.84,0,0,1,.183-.723c.438-.511,1.3-1.447,1.71-1.447.57,0-.581,1.836-1.861,2.316Z" transform="translate(-1452.465 -646.58)"/><g transform="translate(14.828 8.021)"><path class="d" d="M1410.708,670.682a25.552,25.552,0,0,0-5.622,1.839c-.7.426-.43.844-.425.865a.669.669,0,0,0,.773.346l5.509-2.343Z" transform="translate(-1404.606 -670.682)"/></g><g transform="translate(6.247 0)"><path class="k" d="M1311.431,580.888c-.038-.119-.153-.205-.207-.314a2.508,2.508,0,0,0-.126-.354c-.072-.1-.208-.147-.294-.234s-.131-.224-.23-.3-.243-.075-.352-.132-.193-.173-.31-.212a2.509,2.509,0,0,0-.375-.017,2.412,2.412,0,0,0-.36-.106,2.543,2.543,0,0,0-.362.1,2.412,2.412,0,0,0-.376.011c-.119.038-.205.153-.314.207s-.255.055-.354.126-.147.208-.234.294-.224.131-.3.23-.075.243-.132.352-.173.193-.212.31a2.509,2.509,0,0,0-.017.375,2.417,2.417,0,0,0-.106.36,2.548,2.548,0,0,0,.1.362,2.427,2.427,0,0,0,.011.376c.038.119.153.205.207.314a2.551,2.551,0,0,0,.126.354c.072.1.208.147.294.234s.131.224.23.3.243.075.352.132.193.173.31.212a2.523,2.523,0,0,0,.375.017,2.457,2.457,0,0,0,.36.106,2.545,2.545,0,0,0,.362-.1,2.416,2.416,0,0,0,.375-.011c.119-.038.206-.153.314-.207s.255-.055.354-.126.147-.208.234-.294.225-.131.3-.23.075-.243.132-.352.173-.193.212-.31a2.523,2.523,0,0,0,.017-.375,2.436,2.436,0,0,0,.106-.36,2.56,2.56,0,0,0-.1-.362A2.428,2.428,0,0,0,1311.431,580.888Z" transform="translate(-1306.774 -579.223)"/><path class="k" d="M1355.319,615.956a1.322,1.322,0,0,0-.284-.927c-.341-.381-.366.164-.366.164Z" transform="translate(-1350.468 -611.765)"/><path class="k" d="M1323.655,623.82c.037.041.622.848.779.823.215-.035-.036-.714-.036-.714Z" transform="translate(-1322.175 -619.909)"/><path class="k" d="M1329.882,591.046a1.029,1.029,0,0,0-.164-.784c-.247-.262-.626-.508-1.744.038a.369.369,0,0,0-.193.43l.135.485Z" transform="translate(-1325.925 -589.03)"/><path class="g" d="M1326.8,596.131c.3.673.589,1.209,1.114,1.387a1.393,1.393,0,0,0,1.106-.078.907.907,0,0,0,.571-.862,4.141,4.141,0,0,0-.453-1.471c-.463-1.057-1.222-1.366-1.868-1.083S1326.334,595.074,1326.8,596.131Z" transform="translate(-1324.834 -592.635)"/><path class="g" d="M1327.334,616.3l1.205-.126a19.3,19.3,0,0,1,.1,2.33c-.043.183-.343.269-.671.192-.294-.069-.508-.246-.517-.414h0A15.987,15.987,0,0,0,1327.334,616.3Z" transform="translate(-1325.531 -612.931)"/><path class="k" d="M1316.787,597.086a.578.578,0,0,0,.488-.32,3.934,3.934,0,0,0,.3-1.593c-.03-.623-.244-.731-.244-.731s-1.095.4-1.229.843C1315.9,595.944,1316.787,597.086,1316.787,597.086Z" transform="translate(-1315.255 -593.107)"/><path class="k" d="M1327.679,611.364l.675,1.543a.443.443,0,0,0,.41.266l.2,0a.2.2,0,0,0,.193-.24l-.071-.336a.173.173,0,0,1,.088-.188l.675-.359a.173.173,0,0,1,.214.042l.218.26a.55.55,0,0,1-.133.821l-.4.245a.611.611,0,0,1-.279.09h-.037l-.157,0h0l-.515,0a.783.783,0,0,1-.726-.47l-.675-1.543Z" transform="translate(-1325.561 -608.545)"/><path class="g" d="M1323.462,616.725c.1.229.454.424.62.353s.127-.276.028-.505-.327-.386-.493-.314A.323.323,0,0,0,1323.462,616.725Z" transform="translate(-1321.96 -612.994)"/><path class="k" d="M1329.406,592.829l.684-.292a1.037,1.037,0,0,1,.724-.034l.323.1-.593-.5-.638.029-.675.351Z" transform="translate(-1327.26 -590.973)"/></g></g><g transform="translate(74.617 0)"><rect class="l" width="1.856" height="96.5" transform="translate(62.884 8.698)"/><g transform="translate(59.7 0)"><circle class="l" cx="3.584" cy="3.584" r="3.584" transform="translate(0 10.877) rotate(-80.783)"/><rect class="l" width="4.036" height="4.036" transform="matrix(0.707, 0.707, -0.707, 0.707, 4.112, 0)"/></g><g transform="translate(60.323 18.111)"><rect class="l" width="4.933" height="4.933" transform="translate(3.488 0) rotate(45)"/></g><g transform="translate(102.562 19.305)"><rect class="l" width="3.245" height="3.245" transform="translate(2.294) rotate(45)"/></g><g transform="translate(20.473 19.305)"><rect class="l" width="3.245" height="3.245" transform="translate(2.294) rotate(45)"/></g><path class="l" d="M1686.552,1346.413h-6.427a9.161,9.161,0,0,1-8,4.695v4.515h22.431v-4.515A9.161,9.161,0,0,1,1686.552,1346.413Z" transform="translate(-1619.526 -1245.909)"/><path class="l" d="M1591.378,1437.075H1547l1.13-2.609h42.119Z" transform="translate(-1505.377 -1326.239)"/><rect class="l" width="82.089" height="1.176" transform="translate(22.767 21.101)"/><g transform="translate(82.089 21.444)"><g transform="translate(22.604)"><path class="l" d="M2286.8,497.375,2266.133,445.1l.326-.129,20.723,52.4Z" transform="translate(-2266.133 -444.974)"/></g><g transform="translate(1.838)"><path class="l" d="M2029.778,497.375l-.42.109,20.766-52.51.326.129Z" transform="translate(-2029.357 -444.974)"/></g><path class="m" d="M2051.55,1046.916h-40.766l-2.384-5.2h45.534Z" transform="translate(-2008.4 -989.381)"/></g><g transform="translate(0 21.444)"><g transform="translate(22.604)"><path class="l" d="M1350.819,497.375,1330.147,445.1l.326-.129,20.723,52.4Z" transform="translate(-1330.147 -444.974)"/></g><g transform="translate(1.881)"><path class="l" d="M1094.244,497.375h-.377l20.723-52.4.326.129Z" transform="translate(-1093.866 -444.974)"/></g><path class="m" d="M1115.565,1046.916H1074.8l-2.384-5.2h45.534Z" transform="translate(-1072.415 -989.381)"/></g></g><g transform="translate(27.467 17.958)"><path class="n" d="M1074.176,465.913a9.054,9.054,0,0,1,8.7,6.562h-17.408A9.055,9.055,0,0,1,1074.176,465.913Z" transform="translate(-1018.93 -460.59)"/><path class="n" d="M547.623,430.518a13.338,13.338,0,0,1,12.821,9.666H534.8A13.338,13.338,0,0,1,547.623,430.518Z" transform="translate(-534.801 -428.3)"/><path class="n" d="M737.958,417.108c-1.966-6.8-9.757-11.884-19.07-11.884s-17.1,5.081-19.07,11.884Z" transform="translate(-685.346 -405.224)"/></g><g transform="translate(35.827 26.872)"><path class="o" d="M871.7,531.4a4.055,4.055,0,0,1,3.9,2.939h-7.8A4.055,4.055,0,0,1,871.7,531.4Z" transform="translate(-846.959 -529.018)"/><path class="o" d="M635.873,515.55a5.974,5.974,0,0,1,5.742,4.329H630.131A5.974,5.974,0,0,1,635.873,515.55Z" transform="translate(-630.131 -514.556)"/><path class="o" d="M721.12,509.544c-.881-3.047-4.37-5.323-8.541-5.323s-7.66,2.276-8.541,5.323Z" transform="translate(-697.556 -504.221)"/></g><g transform="translate(83.88 5.937)"><path class="f" d="M1456.621,299.506a4.677,4.677,0,0,1,4.5,3.389h-8.991A4.677,4.677,0,0,1,1456.621,299.506Z" transform="translate(-1428.087 -296.757)"/><path class="f" d="M1184.654,281.224a6.889,6.889,0,0,1,6.622,4.993h-13.245A6.889,6.889,0,0,1,1184.654,281.224Z" transform="translate(-1178.031 -280.078)"/><path class="f" d="M1282.963,274.3c-1.016-3.514-5.04-6.138-9.85-6.138s-8.834,2.625-9.85,6.138Z" transform="translate(-1255.789 -268.159)"/></g><g transform="translate(184.061 41.763)"><path class="n" d="M2323.807,697.011a3.65,3.65,0,0,0-3.508,2.645h7.017A3.649,3.649,0,0,0,2323.807,697.011Z" transform="translate(-2320.299 -694.865)"/><path class="n" d="M2501.537,682.743a5.377,5.377,0,0,0-5.169,3.9H2506.7A5.377,5.377,0,0,0,2501.537,682.743Z" transform="translate(-2480.926 -681.849)"/><path class="n" d="M2372.408,677.338c.793-2.742,3.934-4.791,7.688-4.791s6.9,2.048,7.687,4.791Z" transform="translate(-2367.838 -672.547)"/></g><g transform="translate(99.847 111.824)"><g transform="translate(2.544 0.724)"><path class="d" d="M1442.965,1484.069H1389.09v-12.011h53.875a6.005,6.005,0,0,1,0,12.011Z" transform="translate(-1389.09 -1472.058)"/></g><path class="p" d="M1416.361,1477.473h-55.5a.776.776,0,1,1,0-1.552h55.5a5.285,5.285,0,1,0,0-10.569h-55.5a.776.776,0,1,1,0-1.552h55.5a6.837,6.837,0,1,1,0,13.673Z" transform="translate(-1360.085 -1463.8)"/></g><g transform="translate(157.84 120.513)"><g transform="translate(3.355 0)"><path class="q" d="M2060.773,1565.191h27.084a1.2,1.2,0,0,0,1.132-1.59l-.819-2.367a1.2,1.2,0,0,0-1.133-.806h-25.445a1.2,1.2,0,0,0-1.132.806l-.819,2.367A1.2,1.2,0,0,0,2060.773,1565.191Z" transform="translate(-2059.573 -1560.427)"/></g><path class="l" d="M0,0H36.192a0,0,0,0,1,0,0V0a4.764,4.764,0,0,1-4.764,4.764H4.764A4.764,4.764,0,0,1,0,0V0A0,0,0,0,1,0,0Z" transform="translate(36.192 8.28) rotate(180)"/></g><g transform="translate(167.038 83.569)"><rect class="l" width="30.466" height="4.971" transform="translate(46.484 36.869) rotate(-154.099)"/><rect class="p" width="14.662" height="4.971" transform="translate(46.484 36.869) rotate(-154.099)"/><rect class="p" width="12.745" height="20.193" transform="translate(15.5 30.285) rotate(-154.099)"/><rect class="l" width="15.735" height="14.546" rx="7.273" transform="translate(18.078 28.398) rotate(-154.099)"/><path class="l" d="M2256.688,1146.461l12.343,5.994a1.007,1.007,0,0,0,1.346-.466l2.6-5.365a1.006,1.006,0,0,0-.466-1.346l-12.343-5.994a1.007,1.007,0,0,0-1.345.466l-2.6,5.365A1.007,1.007,0,0,0,2256.688,1146.461Z" transform="translate(-2244.727 -1139.183)"/><path class="l" d="M2126.766,1414.012l12.343,5.994a1.007,1.007,0,0,0,1.346-.466l2.605-5.365a1.007,1.007,0,0,0-.466-1.346l-12.343-5.994a1.006,1.006,0,0,0-1.345.466l-2.606,5.365A1.007,1.007,0,0,0,2126.766,1414.012Z" transform="translate(-2126.198 -1383.269)"/><path class="r" d="M2519.005,1441.08l24.156,12.466a3.3,3.3,0,0,0,4.483-1.491l.641-1.32a3.3,3.3,0,0,0-1.6-4.445l-24.735-11.276Z" transform="translate(-2484.554 -1409.069)"/></g><path class="n" d="M1932.551,1509.905l-2.337-1.761-2.337,1.761v-7.468h4.674Z" transform="translate(-1778.233 -1387.24)"/><g transform="translate(138.373 71.433)"><g transform="translate(0)"><path class="s" d="M1966.975,1422.877s-.207.837-.059.879a24.544,24.544,0,0,0,3.794-.118c.237-.156-.5-.367-.5-.367a21.531,21.531,0,0,0-2.551-.424A3.207,3.207,0,0,0,1966.975,1422.877Z" transform="translate(-1952.172 -1386.255)"/><path class="s" d="M1954.913,1288.992c.177-.4.39-.6.752-.617a.705.705,0,0,1,.736.7l.108,11.127a.326.326,0,0,1-.65.029l-.038-.479C1954.865,1292.172,1954.391,1290.428,1954.913,1288.992Z" transform="translate(-1941.074 -1263.579)"/><path class="s" d="M1878.182,1187.959c-.512-1.23-.064-1.807.341-2.066a.735.735,0,0,1,.073-.068.705.705,0,0,1,1.006.131l6.632,8.935a.325.325,0,0,1-.212.515,1.127,1.127,0,0,1-1.137-.231C1883.27,1193.7,1878.848,1189.558,1878.182,1187.959Z" transform="translate(-1871.06 -1169.883)"/><path class="t" d="M1857.413,1191.139c.626-1.175,1.356-1.2,1.814-1.047a.7.7,0,0,1,.636.874l-2.7,10.794a.325.325,0,0,1-.533.163,1.128,1.128,0,0,1-.542-1.026C1856.205,1198.711,1856.6,1192.667,1857.413,1191.139Z" transform="translate(-1851.11 -1173.858)"/><path class="m" d="M1968.276,1424.032a4.314,4.314,0,0,1-1.59.326,6.063,6.063,0,0,1-.608,0c-.031.3-.035.653.111.663a25.977,25.977,0,0,0,3.977-.2C1970.194,1424.474,1969.187,1424.194,1968.276,1424.032Z" transform="translate(-1951.44 -1387.339)"/><g transform="translate(0.104 38.146)"><path class="s" d="M1803.735,1442.383a21.537,21.537,0,0,0-2.107-1.5,3.2,3.2,0,0,0-.624-.272s-.553.662-.439.765c.075.067,1.416.731,2.411,1.17l.9-.026C1803.8,1442.441,1803.735,1442.383,1803.735,1442.383Z" transform="translate(-1800.549 -1440.607)"/></g><path class="s" d="M1809.256,1317.933a.839.839,0,0,1,.947-.225.705.705,0,0,1,.355.95l-4.783,10.047a.326.326,0,0,1-.6-.259l.177-.447C1807.819,1320.769,1808.158,1318.994,1809.256,1317.933Z" transform="translate(-1804.647 -1290.278)"/><g transform="translate(0 38.433)"><path class="m" d="M1801.714,1444.543a4.315,4.315,0,0,1-1.572-.4c-.195-.084-.378-.176-.545-.269-.161.258-.318.571-.191.645s1.343.653,2.337,1.086h1.168A6.635,6.635,0,0,0,1801.714,1444.543Z" transform="translate(-1799.359 -1443.869)"/><path class="m" d="M1828.952,1459.165a4.674,4.674,0,0,0,1.409-.041c.021-.128-.232-.385-.892-.385Z" transform="translate(-1826.357 -1457.435)"/></g><path class="u" d="M1841.827,1190.937s3.781,5.873,4.444,7.529c0,0,.624.769-1.89,1.905s-4.282-.331-5.552.852-1.561,2.09-4.752,1.589a10.973,10.973,0,0,1,1.687-2.681s.371-8.092,1.852-10.1Z" transform="translate(-1831.032 -1173.858)"/><path class="k" d="M1855.54,1010.572c-.253.5-.281,1.148-.656,1.531a1.365,1.365,0,0,1-.825.351,3.783,3.783,0,0,0-.878.152.975.975,0,0,0-.622.681,1.634,1.634,0,0,1-.089.427c-.132.254-.446.229-.7.279a1.353,1.353,0,0,0-.941,1.012,2.2,2.2,0,0,0,.166,1.484,3.072,3.072,0,0,0,.91,1.082,2.45,2.45,0,0,0,1.8.6,1.7,1.7,0,0,0,1.4-1.35,1.516,1.516,0,0,1,.082-.367c.147-.323.531-.336.839-.416a1.483,1.483,0,0,0,1.031-1.1,3.956,3.956,0,0,1,.1-.479c.15-.421.587-.622.783-1.019a1.738,1.738,0,0,0-.01-1.255,5.143,5.143,0,0,0-.984-1.814c-.172-.2-.43-.592-.7-.5A1.443,1.443,0,0,0,1855.54,1010.572Z" transform="translate(-1846.261 -1009.493)"/><path class="s" d="M2050.981,1026.344a.841.841,0,0,1,.2-.72c.45-.5,1.332-1.42,1.747-1.411.572.012-.624,1.826-1.92,2.278Z" transform="translate(-2028.9 -1022.585)"/><g transform="translate(17.233 3.336)"><path class="d" d="M2000.611,1043.7a25.611,25.611,0,0,0-4.517,3.844c-.487.661-.078.947-.065.964a.671.671,0,0,0,.849.027l4.221-4.268Z" transform="translate(-1995.855 -1043.699)"/></g><g transform="translate(6.08 4.049)"><path class="d" d="M1868.711,1065.378a16.606,16.606,0,0,1,1.178-4.7c.81-3.172,1.057-5.859,1.642-7.057.735-1.505,1.82-2.369,2.782-1.349a4.031,4.031,0,0,1,.685,2.669c-.01,1.263.273,1.052-.679,2.764a22.02,22.02,0,0,0-.643,5.874,15.635,15.635,0,0,0,.108,1.866,3,3,0,0,1-.791.284C1871.081,1066.115,1870.615,1065.061,1868.711,1065.378Z" transform="translate(-1868.685 -1051.826)"/></g><path class="d" d="M1913.61,1059.7a.722.722,0,0,0-.918.69c-.108.252.193.7.51.8l7.2,2.021c.113.044.188-.142.236-.253a.222.222,0,0,0,.016-.114.9.9,0,0,0-.427-.752A28.461,28.461,0,0,0,1913.61,1059.7Z" transform="translate(-1902.732 -1054.952)"/><path class="d" d="M1848.224,1058.735a.739.739,0,0,0,.108-1.119.707.707,0,0,0-.864-.23l-5.882,3.443c-.1.045-.022.229.023.342a.243.243,0,0,0,.067.093.837.837,0,0,0,.777.249A23.567,23.567,0,0,0,1848.224,1058.735Z" transform="translate(-1837.838 -1052.795)"/><path class="k" d="M1904.7,1009.693a3.011,3.011,0,0,1-1.639-1.9,1.825,1.825,0,0,1,2.12-2.115,2.071,2.071,0,0,1,1.667,1.537C1907,1008.387,1904.7,1009.693,1904.7,1009.693Z" transform="translate(-1893.924 -1005.659)"/><path class="s" d="M1916.625,1011.793c.319,1.131,1.364,1.825,2.055,1.63s.765-1.2.447-2.335-1.041-1.548-1.731-1.354S1916.307,1010.663,1916.625,1011.793Z" transform="translate(-1906.239 -1009.336)"/><path class="s" d="M1918.114,1032.09l1.232.064a19.671,19.671,0,0,1-.27,2.358c-.072.177-.388.216-.7.087-.285-.116-.472-.328-.455-.5h0A16.234,16.234,0,0,0,1918.114,1032.09Z" transform="translate(-1907.517 -1029.772)"/><path class="k" d="M1911.545,1009.659a1.9,1.9,0,0,1,.136-1.316,1.442,1.442,0,0,1,2.156-.405.845.845,0,0,1-.231,1.154c-.672.567-.906.022-1.076.635s-.686.516-.708.648Z" transform="translate(-1901.65 -1007.424)"/><g transform="translate(10.471 1.333)"><path class="v" d="M1927.281,1025.583a.514.514,0,1,0-.511.518A.515.515,0,0,0,1927.281,1025.583Z" transform="translate(-1925.594 -1024.703)"/><path class="v" d="M1940.942,1021.373a.514.514,0,1,0-.511.517A.514.514,0,0,0,1940.942,1021.373Z" transform="translate(-1938.057 -1020.862)"/><line class="v" y1="0.279" x2="0.694" transform="translate(0 1.062)"/></g><path class="s" d="M1912.466,1033.655c.074.263.43.526.621.472s.178-.281.1-.543-.3-.466-.488-.412A.352.352,0,0,0,1912.466,1033.655Z" transform="translate(-1902.526 -1030.751)"/><g transform="translate(2.724 13.297)"><rect class="i" width="5.537" height="7.744" transform="matrix(0.757, 0.654, -0.654, 0.757, 5.062, 0)"/><rect class="w" width="3.152" height="0.301" transform="matrix(0.757, 0.654, -0.654, 0.757, 5.18, 1.688)"/><rect class="w" width="3.152" height="0.301" transform="matrix(0.757, 0.654, -0.654, 0.757, 4.518, 2.454)"/><rect class="w" width="3.152" height="0.301" transform="matrix(0.757, 0.654, -0.654, 0.757, 3.857, 3.219)"/><rect class="w" width="3.152" height="0.301" transform="matrix(0.757, 0.654, -0.654, 0.757, 3.195, 3.985)"/></g><path class="s" d="M1857.389,1168.211a.841.841,0,0,1,.7.266c.459.5,1.291,1.458,1.244,1.87-.065.568-1.761-.791-2.091-2.122Z" transform="translate(-1852.164 -1153.951)"/><g transform="translate(3.321 7.972)"><path class="d" d="M1839.661,1102.919a25.62,25.62,0,0,0-1.182-5.812c-.344-.746-.791-.526-.812-.523a.671.671,0,0,0-.434.73l1.7,5.758Z" transform="translate(-1837.222 -1096.552)"/></g><g transform="translate(10.204 5.176)"><path class="x" d="M1929.172,1065.3a1.847,1.847,0,0,0,.044,1.089c.071.2.176.385.255.581a2.485,2.485,0,0,1,.175,1.12" transform="translate(-1927.935 -1065.246)"/><path class="x" d="M1922.563,1065.3a1.134,1.134,0,0,0-.215.8,2.168,2.168,0,0,1-.068.839,1.185,1.185,0,0,1-.415.5" transform="translate(-1921.325 -1065.246)"/><path class="x" d="M1930.351,1065.111c-.045.135-.194.207-.517.1a.43.43,0,1,1,.163-.488C1930.32,1064.83,1930.4,1064.977,1930.351,1065.111Z" transform="translate(-1927.999 -1064.673)"/><path class="x" d="M1915.719,1065.111c.045.135.193.207.517.1a.43.43,0,1,0-.163-.488C1915.749,1064.83,1915.673,1064.977,1915.719,1065.111Z" transform="translate(-1915.707 -1064.673)"/></g></g></g><g transform="translate(79.169 121.786)"><g transform="translate(2.322 0.576)"><path class="d" d="M1196,1588.355h-45.217v-6.847H1196a3.424,3.424,0,0,1,0,6.847Z" transform="translate(-1150.787 -1581.508)"/></g><g transform="translate(0 0)"><path class="o" d="M1172.065,1582.983h-47.1a.655.655,0,0,1,0-1.311h47.1a2.709,2.709,0,0,0,0-5.417h-47.1a.655.655,0,0,1,0-1.31h47.1a4.019,4.019,0,1,1,0,8.038Z" transform="translate(-1124.314 -1574.945)"/></g></g><g transform="translate(86.848 91.649)"><path class="s" d="M1217.933,1562.584s.233.941.071.99a26.319,26.319,0,0,1-4.172-.1c-.261-.174.551-.419.551-.419a23.209,23.209,0,0,1,2.8-.5A3.419,3.419,0,0,1,1217.933,1562.584Z" transform="translate(-1213.612 -1533.5)"/><path class="s" d="M1257.33,1415.836c-.1-.479-.288-.754-.685-.857a.8.8,0,0,0-.975.6l-2.723,12.24a.367.367,0,0,0,.71.183l.153-.52C1256.638,1419.352,1257.569,1417.54,1257.33,1415.836Z" transform="translate(-1249.337 -1398.849)"/><path class="s" d="M1299.455,1419.115c1.492-.162,1.819-.917,1.855-1.458a.806.806,0,0,0,.028-.109.8.8,0,0,0-.676-.922l-12.423-1.7a.367.367,0,0,0-.394.489,1.271,1.271,0,0,0,.845,1C1291.028,1417.2,1297.516,1419.325,1299.455,1419.115Z" transform="translate(-1281.162 -1398.817)"/><path class="s" d="M1381.752,1434.194c.337-1.462-.269-2.019-.769-2.231a.782.782,0,0,0-.094-.062.8.8,0,0,0-1.093.335l-5.686,11.176a.366.366,0,0,0,.332.533,1.271,1.271,0,0,0,1.22-.471C1377.18,1441.526,1381.314,1436.1,1381.752,1434.194Z" transform="translate(-1359.845 -1414.219)"/><path class="s" d="M1338.4,1564.286c-.078-.484-.248-.768-.639-.891a.794.794,0,0,0-1,.545l-3.362,12.079a.367.367,0,0,0,.7.221l.18-.511C1337.524,1567.761,1338.549,1566,1338.4,1564.286Z" transform="translate(-1322.724 -1534.237)"/><path class="u" d="M1214.9,1562.66a1.6,1.6,0,0,0,.761.192,2.3,2.3,0,0,0,.5-.025.185.185,0,0,1,.217.157c.046.355.084.9-.108.911a28.734,28.734,0,0,1-4.395-.257C1211.835,1563.134,1213.839,1562.764,1214.9,1562.66Z" transform="translate(-1211.872 -1533.6)"/><path class="s" d="M1298.456,1704.664s-.008.969-.177.977a26.316,26.316,0,0,1-4.018-1.13c-.21-.234.637-.269.637-.269a23.236,23.236,0,0,1,2.839.209A3.414,3.414,0,0,1,1298.456,1704.664Z" transform="translate(-1287.005 -1662.765)"/><path class="u" d="M1295.2,1703.572a1.6,1.6,0,0,0,.689.374,2.26,2.26,0,0,0,.486.1.185.185,0,0,1,.172.206c-.044.355-.141.891-.33.855a28.77,28.77,0,0,1-4.194-1.338C1292.108,1703.27,1294.141,1703.409,1295.2,1703.572Z" transform="translate(-1284.99 -1662.017)"/><path class="m" d="M1350.4,1431.42s.324,1.622-6.243,10.363c0,0,0,1.695-3.354,10.193l-1.469-.363s2.4-9.954,2.766-10.632,5.106-11.285,5.106-11.285Z" transform="translate(-1328.16 -1412.299)"/><path class="m" d="M1269.276,1416.475a41.587,41.587,0,0,1-10.086-1.915s-.217,1.617-2.819,8.766l-1.433-.107s1.828-11.278,3.252-11.278c1.892,0,12.475,1.1,12.475,1.1Z" transform="translate(-1251.161 -1396.099)"/><path class="u" d="M1470.429,1300.86c-.319-.9.448-1.036.468-1.049.222-.153.726.076.9.379l3.611,6.951c.068.107-.1.215-.194.283a.206.206,0,0,1-.107.036.941.941,0,0,1-.833-.3A31.761,31.761,0,0,1,1470.429,1300.86Z" transform="translate(-1447.682 -1293.76)"/><path class="s" d="M1527.754,1449.686a.826.826,0,0,0,.049.733c.333.573,1,1.633,1.4,1.708.552.1-.237-1.884-1.393-2.577Z" transform="translate(-1499.993 -1430.411)"/><g transform="translate(26.562 12.995)"><path class="u" d="M1515.665,1386.02a25.211,25.211,0,0,1-.922-5.759c.058-.8.546-.758.567-.762a.66.66,0,0,1,.652.522l.429,5.887Z" transform="translate(-1514.737 -1379.492)"/></g><path class="s" d="M1332.485,1274.892a.827.827,0,0,0-.311-.666c-.518-.414-1.521-1.163-1.922-1.087-.552.1.9,1.671,2.229,1.9Z" transform="translate(-1319.76 -1269.466)"/><path class="u" d="M1389.413,1285.478a.71.71,0,0,1,1.1.236c.2.18.116.7-.123.928l-5.59,4.78c-.082.085-.227-.048-.315-.128a.223.223,0,0,1-.062-.094.889.889,0,0,1,.07-.848A27.978,27.978,0,0,1,1389.413,1285.478Z" transform="translate(-1369.223 -1280.576)"/><g transform="translate(12.11 4.991)"><path class="u" d="M1350.581,1288.233a25.185,25.185,0,0,1,3.1,4.94c.261.764-.206.911-.223.923a.66.66,0,0,1-.8-.225l-2.7-5.251Z" transform="translate(-1349.956 -1288.233)"/></g><g transform="translate(15.56 4.473)"><path class="u" d="M1389.286,1296.248c.03.013.064.026.1.04a1.889,1.889,0,0,0,2.472-1.094l.222-.788-.122.948a1.554,1.554,0,0,0,1.3,1.633c1.073.245,2.455.558,3.138.683a62.365,62.365,0,0,1,1.208-11.851,4.015,4.015,0,0,0,.157-1.585,2.136,2.136,0,0,0-.95-1.543,2.159,2.159,0,0,0-.261-.144,2.936,2.936,0,0,0-2.063-.068,2.131,2.131,0,0,0-.275.092c-.037.015-.075.032-.113.051a2.653,2.653,0,0,0-1.31,2.057A107.777,107.777,0,0,1,1389.286,1296.248Z" transform="translate(-1389.286 -1282.327)"/><path class="d" d="M1440.8,1282.572l-.193,1.952-.256,2.577,1.376-2.249,1.411-2.3a2.935,2.935,0,0,0-2.063-.068A2.144,2.144,0,0,0,1440.8,1282.572Z" transform="translate(-1435.87 -1282.327)"/><path class="m" d="M1440.605,1293.894l-.256,2.577,1.376-2.249.159-1.563-.471-.061Z" transform="translate(-1435.871 -1291.697)"/><rect class="i" width="1.9" height="0.155" transform="translate(4.472 11.169) rotate(7.361)"/><path class="i" d="M1434.263,1356.824a.2.2,0,1,1,.169.219A.2.2,0,0,1,1434.263,1356.824Z" transform="translate(-1430.317 -1350.135)"/><path class="i" d="M1429.09,1379.431a.2.2,0,1,1,.169.219A.2.2,0,0,1,1429.09,1379.431Z" transform="translate(-1425.598 -1370.759)"/><path class="i" d="M1423.917,1402.037a.2.2,0,1,1,.169.219A.2.2,0,0,1,1423.917,1402.037Z" transform="translate(-1420.878 -1391.382)"/><path class="y" d="M1438.377,1289.086l2.993-4.868.309,1.381-.91.415.428.809Z" transform="translate(-1434.072 -1284.052)"/><path class="y" d="M1430.878,1289.081l.4-5.7-1.054.944.5.867-.819.409Z" transform="translate(-1426.338 -1283.288)"/></g><path class="k" d="M1437.551,1252.581a1.437,1.437,0,0,1,.294-1.011c.365-.419.4.172.4.172Z" transform="translate(-1417.753 -1249.657)"/><path class="k" d="M1466.666,1268.653c-.045.033-.8.72-.953.663-.216-.078.165-.7.165-.7Z" transform="translate(-1443.389 -1265.341)"/><path class="k" d="M1451.266,1232.286a1,1,0,0,1,.277-.762c.292-.224.721-.413,1.812.31a.375.375,0,0,1,.143.462l-.206.466Z" transform="translate(-1430.269 -1231.322)"/><path class="s" d="M1441.389,1238.165c-.426.611-.826,1.087-1.4,1.157a1.527,1.527,0,0,1-1.13-.3.935.935,0,0,1-.436-.975,4.036,4.036,0,0,1,.732-1.376c.668-.96,1.509-1.114,2.126-.7S1442.058,1237.2,1441.389,1238.165Z" transform="translate(-1418.537 -1235.364)"/><path class="s" d="M1455.025,1259.346l-1.245-.286a18.725,18.725,0,0,0-.4,2.326c.021.189.325.315.677.281.317-.03.563-.18.595-.347h0A15.5,15.5,0,0,1,1455.025,1259.346Z" transform="translate(-1432.197 -1256.627)"/><path class="k" d="M1470.835,1241.168a.625.625,0,0,1-.447-.417,3.886,3.886,0,0,1-.022-1.649c.143-.615.384-.68.384-.68s1.059.623,1.119,1.089C1471.958,1240.208,1470.835,1241.168,1470.835,1241.168Z" transform="translate(-1447.624 -1237.799)"/><path class="s" d="M1469.143,1261.4a.655.655,0,0,1-.7.226c-.159-.105-.082-.3.062-.51s.407-.319.566-.213A.325.325,0,0,1,1469.143,1261.4Z" transform="translate(-1445.857 -1258.269)"/><path class="k" d="M1454.593,1234.266l-.673-.4a1.133,1.133,0,0,0-.749-.147l-.35.053.686-.412.661.129.656.457Z" transform="translate(-1431.689 -1233.18)"/><path class="k" d="M1439.595,1256.048l-1.206,1.291a.465.465,0,0,1-.5.119l-.2-.073a.209.209,0,0,1-.107-.3l.187-.308a.181.181,0,0,0-.021-.217l-.542-.591a.181.181,0,0,0-.226-.034l-.306.182a.578.578,0,0,0-.156.859l.306.38a.64.64,0,0,0,.245.186l.022.009.013,0h0l.155.057h0l.508.185a.822.822,0,0,0,.882-.212l1.206-1.291Z" transform="translate(-1416.698 -1253.75)"/></g></g></svg>