<svg xmlns="http://www.w3.org/2000/svg" width="280" height="757" viewBox="0 0 280 757"><defs><style>.a{fill:maroon;stroke:#707070;opacity:0.15;}.b{stroke:none;}.c{fill:none;}</style></defs><g transform="translate(-123.321 -3669)"><g class="a" transform="translate(382.321 3669)"><circle class="b" cx="10.5" cy="10.5" r="10.5"/><circle class="c" cx="10.5" cy="10.5" r="10"/></g><g class="a" transform="translate(355.321 3669)"><ellipse class="b" cx="11.5" cy="10.5" rx="11.5" ry="10.5"/><ellipse class="c" cx="11.5" cy="10.5" rx="11" ry="10"/></g><g class="a" transform="translate(330.321 3669)"><circle class="b" cx="10.5" cy="10.5" r="10.5"/><circle class="c" cx="10.5" cy="10.5" r="10"/></g><g class="a" transform="translate(304.321 3669)"><ellipse class="b" cx="11" cy="10.5" rx="11" ry="10.5"/><ellipse class="c" cx="11" cy="10.5" rx="10.5" ry="10"/></g><g class="a" transform="translate(278.321 3669)"><ellipse class="b" cx="11" cy="10.5" rx="11" ry="10.5"/><ellipse class="c" cx="11" cy="10.5" rx="10.5" ry="10"/></g><g class="a" transform="translate(252.321 3669)"><ellipse class="b" cx="11" cy="10.5" rx="11" ry="10.5"/><ellipse class="c" cx="11" cy="10.5" rx="10.5" ry="10"/></g><g class="a" transform="translate(227.321 3669)"><circle class="b" cx="10.5" cy="10.5" r="10.5"/><circle class="c" cx="10.5" cy="10.5" r="10"/></g><g class="a" transform="translate(200.321 3669)"><ellipse class="b" cx="11.5" cy="10.5" rx="11.5" ry="10.5"/><ellipse class="c" cx="11.5" cy="10.5" rx="11" ry="10"/></g><g class="a" transform="translate(175.321 3669)"><circle class="b" cx="10.5" cy="10.5" r="10.5"/><circle class="c" cx="10.5" cy="10.5" r="10"/></g><g class="a" transform="translate(149.321 3669)"><ellipse class="b" cx="11" cy="10.5" rx="11" ry="10.5"/><ellipse class="c" cx="11" cy="10.5" rx="10.5" ry="10"/></g><g class="a" transform="translate(123.321 3669)"><ellipse class="b" cx="11" cy="10.5" rx="11" ry="10.5"/><ellipse class="c" cx="11" cy="10.5" rx="10.5" ry="10"/></g><g class="a" transform="translate(382.321 3694)"><circle class="b" cx="10.5" cy="10.5" r="10.5"/><circle class="c" cx="10.5" cy="10.5" r="10"/></g><g class="a" transform="translate(355.321 3694)"><ellipse class="b" cx="11.5" cy="10.5" rx="11.5" ry="10.5"/><ellipse class="c" cx="11.5" cy="10.5" rx="11" ry="10"/></g><g class="a" transform="translate(330.321 3694)"><circle class="b" cx="10.5" cy="10.5" r="10.5"/><circle class="c" cx="10.5" cy="10.5" r="10"/></g><g class="a" transform="translate(278.321 3694)"><ellipse class="b" cx="11" cy="10.5" rx="11" ry="10.5"/><ellipse class="c" cx="11" cy="10.5" rx="10.5" ry="10"/></g><g class="a" transform="translate(304.321 3694)"><ellipse class="b" cx="11.5" cy="10.5" rx="11.5" ry="10.5"/><ellipse class="c" cx="11.5" cy="10.5" rx="11" ry="10"/></g><g class="a" transform="translate(304.321 4062)"><ellipse class="b" cx="11.5" cy="10.5" rx="11.5" ry="10.5"/><ellipse class="c" cx="11.5" cy="10.5" rx="11" ry="10"/></g><g class="a" transform="translate(252.321 3694)"><ellipse class="b" cx="11" cy="10.5" rx="11" ry="10.5"/><ellipse class="c" cx="11" cy="10.5" rx="10.5" ry="10"/></g><g class="a" transform="translate(175.321 3694)"><circle class="b" cx="10.5" cy="10.5" r="10.5"/><circle class="c" cx="10.5" cy="10.5" r="10"/></g><g class="a" transform="translate(149.321 3694)"><ellipse class="b" cx="11" cy="10.5" rx="11" ry="10.5"/><ellipse class="c" cx="11" cy="10.5" rx="10.5" ry="10"/></g><g class="a" transform="translate(123.321 3694)"><ellipse class="b" cx="11" cy="10.5" rx="11" ry="10.5"/><ellipse class="c" cx="11" cy="10.5" rx="10.5" ry="10"/></g><g class="a" transform="translate(382.321 3718)"><circle class="b" cx="10.5" cy="10.5" r="10.5"/><circle class="c" cx="10.5" cy="10.5" r="10"/></g><g class="a" transform="translate(355.321 3718)"><ellipse class="b" cx="11.5" cy="10.5" rx="11.5" ry="10.5"/><ellipse class="c" cx="11.5" cy="10.5" rx="11" ry="10"/></g><g class="a" transform="translate(330.321 3718)"><circle class="b" cx="10.5" cy="10.5" r="10.5"/><circle class="c" cx="10.5" cy="10.5" r="10"/></g><g class="a" transform="translate(278.321 3718)"><ellipse class="b" cx="11" cy="10.5" rx="11" ry="10.5"/><ellipse class="c" cx="11" cy="10.5" rx="10.5" ry="10"/></g><g class="a" transform="translate(304.321 3718)"><ellipse class="b" cx="11.5" cy="10.5" rx="11.5" ry="10.5"/><ellipse class="c" cx="11.5" cy="10.5" rx="11" ry="10"/></g><g class="a" transform="translate(304.321 4086)"><ellipse class="b" cx="11.5" cy="10.5" rx="11.5" ry="10.5"/><ellipse class="c" cx="11.5" cy="10.5" rx="11" ry="10"/></g><g class="a" transform="translate(252.321 3718)"><ellipse class="b" cx="11" cy="10.5" rx="11" ry="10.5"/><ellipse class="c" cx="11" cy="10.5" rx="10.5" ry="10"/></g><g class="a" transform="translate(227.321 3718)"><circle class="b" cx="10.5" cy="10.5" r="10.5"/><circle class="c" cx="10.5" cy="10.5" r="10"/></g><g class="a" transform="translate(200.321 3718)"><ellipse class="b" cx="11.5" cy="10.5" rx="11.5" ry="10.5"/><ellipse class="c" cx="11.5" cy="10.5" rx="11" ry="10"/></g><g class="a" transform="translate(175.321 3718)"><circle class="b" cx="10.5" cy="10.5" r="10.5"/><circle class="c" cx="10.5" cy="10.5" r="10"/></g><g class="a" transform="translate(382.321 3743)"><circle class="b" cx="10.5" cy="10.5" r="10.5"/><circle class="c" cx="10.5" cy="10.5" r="10"/></g><g class="a" transform="translate(355.321 3743)"><ellipse class="b" cx="11.5" cy="10.5" rx="11.5" ry="10.5"/><ellipse class="c" cx="11.5" cy="10.5" rx="11" ry="10"/></g><g class="a" transform="translate(330.321 3743)"><circle class="b" cx="10.5" cy="10.5" r="10.5"/><circle class="c" cx="10.5" cy="10.5" r="10"/></g><g class="a" transform="translate(278.321 3743)"><ellipse class="b" cx="11" cy="10.5" rx="11" ry="10.5"/><ellipse class="c" cx="11" cy="10.5" rx="10.5" ry="10"/></g><g class="a" transform="translate(304.321 3743)"><ellipse class="b" cx="11.5" cy="10.5" rx="11.5" ry="10.5"/><ellipse class="c" cx="11.5" cy="10.5" rx="11" ry="10"/></g><g class="a" transform="translate(304.321 4111)"><ellipse class="b" cx="11.5" cy="10.5" rx="11.5" ry="10.5"/><ellipse class="c" cx="11.5" cy="10.5" rx="11" ry="10"/></g><g class="a" transform="translate(252.321 3743)"><ellipse class="b" cx="11" cy="10.5" rx="11" ry="10.5"/><ellipse class="c" cx="11" cy="10.5" rx="10.5" ry="10"/></g><g class="a" transform="translate(227.321 3743)"><circle class="b" cx="10.5" cy="10.5" r="10.5"/><circle class="c" cx="10.5" cy="10.5" r="10"/></g><g class="a" transform="translate(382.321 3767)"><circle class="b" cx="10.5" cy="10.5" r="10.5"/><circle class="c" cx="10.5" cy="10.5" r="10"/></g><g class="a" transform="translate(355.321 3767)"><ellipse class="b" cx="11.5" cy="10.5" rx="11.5" ry="10.5"/><ellipse class="c" cx="11.5" cy="10.5" rx="11" ry="10"/></g><g class="a" transform="translate(330.321 3767)"><circle class="b" cx="10.5" cy="10.5" r="10.5"/><circle class="c" cx="10.5" cy="10.5" r="10"/></g><g class="a" transform="translate(278.321 3767)"><ellipse class="b" cx="11" cy="10.5" rx="11" ry="10.5"/><ellipse class="c" cx="11" cy="10.5" rx="10.5" ry="10"/></g><g class="a" transform="translate(304.321 3767)"><ellipse class="b" cx="11.5" cy="10.5" rx="11.5" ry="10.5"/><ellipse class="c" cx="11.5" cy="10.5" rx="11" ry="10"/></g><g class="a" transform="translate(304.321 4135)"><ellipse class="b" cx="11.5" cy="10.5" rx="11.5" ry="10.5"/><ellipse class="c" cx="11.5" cy="10.5" rx="11" ry="10"/></g><g class="a" transform="translate(252.321 3767)"><ellipse class="b" cx="11" cy="10.5" rx="11" ry="10.5"/><ellipse class="c" cx="11" cy="10.5" rx="10.5" ry="10"/></g><g class="a" transform="translate(382.321 3792)"><circle class="b" cx="10.5" cy="10.5" r="10.5"/><circle class="c" cx="10.5" cy="10.5" r="10"/></g><g class="a" transform="translate(355.321 3792)"><ellipse class="b" cx="11.5" cy="10.5" rx="11.5" ry="10.5"/><ellipse class="c" cx="11.5" cy="10.5" rx="11" ry="10"/></g><g class="a" transform="translate(330.321 3792)"><circle class="b" cx="10.5" cy="10.5" r="10.5"/><circle class="c" cx="10.5" cy="10.5" r="10"/></g><g class="a" transform="translate(278.321 3792)"><ellipse class="b" cx="11" cy="10.5" rx="11" ry="10.5"/><ellipse class="c" cx="11" cy="10.5" rx="10.5" ry="10"/></g><g class="a" transform="translate(304.321 3792)"><ellipse class="b" cx="11.5" cy="10.5" rx="11.5" ry="10.5"/><ellipse class="c" cx="11.5" cy="10.5" rx="11" ry="10"/></g><g class="a" transform="translate(304.321 4160)"><ellipse class="b" cx="11.5" cy="10.5" rx="11.5" ry="10.5"/><ellipse class="c" cx="11.5" cy="10.5" rx="11" ry="10"/></g><g class="a" transform="translate(252.321 3792)"><ellipse class="b" cx="11" cy="10.5" rx="11" ry="10.5"/><ellipse class="c" cx="11" cy="10.5" rx="10.5" ry="10"/></g><g class="a" transform="translate(227.321 3792)"><circle class="b" cx="10.5" cy="10.5" r="10.5"/><circle class="c" cx="10.5" cy="10.5" r="10"/></g><g class="a" transform="translate(382.321 3816)"><circle class="b" cx="10.5" cy="10.5" r="10.5"/><circle class="c" cx="10.5" cy="10.5" r="10"/></g><g class="a" transform="translate(330.321 3816)"><circle class="b" cx="10.5" cy="10.5" r="10.5"/><circle class="c" cx="10.5" cy="10.5" r="10"/></g><g class="a" transform="translate(278.321 3816)"><ellipse class="b" cx="11" cy="10.5" rx="11" ry="10.5"/><ellipse class="c" cx="11" cy="10.5" rx="10.5" ry="10"/></g><g class="a" transform="translate(304.321 3816)"><ellipse class="b" cx="11.5" cy="10.5" rx="11.5" ry="10.5"/><ellipse class="c" cx="11.5" cy="10.5" rx="11" ry="10"/></g><g class="a" transform="translate(304.321 4184)"><ellipse class="b" cx="11.5" cy="10.5" rx="11.5" ry="10.5"/><ellipse class="c" cx="11.5" cy="10.5" rx="11" ry="10"/></g><g class="a" transform="translate(252.321 3816)"><ellipse class="b" cx="11" cy="10.5" rx="11" ry="10.5"/><ellipse class="c" cx="11" cy="10.5" rx="10.5" ry="10"/></g><g class="a" transform="translate(382.321 3841)"><circle class="b" cx="10.5" cy="10.5" r="10.5"/><circle class="c" cx="10.5" cy="10.5" r="10"/></g><g class="a" transform="translate(355.321 3841)"><ellipse class="b" cx="11.5" cy="10.5" rx="11.5" ry="10.5"/><ellipse class="c" cx="11.5" cy="10.5" rx="11" ry="10"/></g><g class="a" transform="translate(330.321 3841)"><circle class="b" cx="10.5" cy="10.5" r="10.5"/><circle class="c" cx="10.5" cy="10.5" r="10"/></g><g class="a" transform="translate(278.321 3841)"><ellipse class="b" cx="11" cy="10.5" rx="11" ry="10.5"/><ellipse class="c" cx="11" cy="10.5" rx="10.5" ry="10"/></g><g class="a" transform="translate(304.321 3841)"><ellipse class="b" cx="11.5" cy="10.5" rx="11.5" ry="10.5"/><ellipse class="c" cx="11.5" cy="10.5" rx="11" ry="10"/></g><g class="a" transform="translate(304.321 4209)"><ellipse class="b" cx="11.5" cy="10.5" rx="11.5" ry="10.5"/><ellipse class="c" cx="11.5" cy="10.5" rx="11" ry="10"/></g><g class="a" transform="translate(252.321 3841)"><ellipse class="b" cx="11" cy="10.5" rx="11" ry="10.5"/><ellipse class="c" cx="11" cy="10.5" rx="10.5" ry="10"/></g><g class="a" transform="translate(227.321 3841)"><circle class="b" cx="10.5" cy="10.5" r="10.5"/><circle class="c" cx="10.5" cy="10.5" r="10"/></g><g class="a" transform="translate(382.321 3865)"><circle class="b" cx="10.5" cy="10.5" r="10.5"/><circle class="c" cx="10.5" cy="10.5" r="10"/></g><g class="a" transform="translate(355.321 3865)"><ellipse class="b" cx="11.5" cy="10.5" rx="11.5" ry="10.5"/><ellipse class="c" cx="11.5" cy="10.5" rx="11" ry="10"/></g><g class="a" transform="translate(330.321 3865)"><circle class="b" cx="10.5" cy="10.5" r="10.5"/><circle class="c" cx="10.5" cy="10.5" r="10"/></g><g class="a" transform="translate(278.321 3865)"><ellipse class="b" cx="11" cy="10.5" rx="11" ry="10.5"/><ellipse class="c" cx="11" cy="10.5" rx="10.5" ry="10"/></g><g class="a" transform="translate(304.321 3865)"><ellipse class="b" cx="11.5" cy="10.5" rx="11.5" ry="10.5"/><ellipse class="c" cx="11.5" cy="10.5" rx="11" ry="10"/></g><g class="a" transform="translate(304.321 4233)"><ellipse class="b" cx="11.5" cy="10.5" rx="11.5" ry="10.5"/><ellipse class="c" cx="11.5" cy="10.5" rx="11" ry="10"/></g><g class="a" transform="translate(382.321 3890)"><circle class="b" cx="10.5" cy="10.5" r="10.5"/><circle class="c" cx="10.5" cy="10.5" r="10"/></g><g class="a" transform="translate(355.321 3890)"><ellipse class="b" cx="11.5" cy="10.5" rx="11.5" ry="10.5"/><ellipse class="c" cx="11.5" cy="10.5" rx="11" ry="10"/></g><g class="a" transform="translate(330.321 3890)"><circle class="b" cx="10.5" cy="10.5" r="10.5"/><circle class="c" cx="10.5" cy="10.5" r="10"/></g><g class="a" transform="translate(278.321 3890)"><ellipse class="b" cx="11" cy="10.5" rx="11" ry="10.5"/><ellipse class="c" cx="11" cy="10.5" rx="10.5" ry="10"/></g><g class="a" transform="translate(304.321 3890)"><ellipse class="b" cx="11.5" cy="10.5" rx="11.5" ry="10.5"/><ellipse class="c" cx="11.5" cy="10.5" rx="11" ry="10"/></g><g class="a" transform="translate(304.321 4258)"><ellipse class="b" cx="11.5" cy="10.5" rx="11.5" ry="10.5"/><ellipse class="c" cx="11.5" cy="10.5" rx="11" ry="10"/></g><g class="a" transform="translate(382.321 3914)"><circle class="b" cx="10.5" cy="10.5" r="10.5"/><circle class="c" cx="10.5" cy="10.5" r="10"/></g><g class="a" transform="translate(330.321 3914)"><circle class="b" cx="10.5" cy="10.5" r="10.5"/><circle class="c" cx="10.5" cy="10.5" r="10"/></g><g class="a" transform="translate(278.321 3914)"><ellipse class="b" cx="11" cy="10.5" rx="11" ry="10.5"/><ellipse class="c" cx="11" cy="10.5" rx="10.5" ry="10"/></g><g class="a" transform="translate(304.321 3914)"><ellipse class="b" cx="11.5" cy="10.5" rx="11.5" ry="10.5"/><ellipse class="c" cx="11.5" cy="10.5" rx="11" ry="10"/></g><g class="a" transform="translate(304.321 4282)"><ellipse class="b" cx="11.5" cy="10.5" rx="11.5" ry="10.5"/><ellipse class="c" cx="11.5" cy="10.5" rx="11" ry="10"/></g><g class="a" transform="translate(382.321 3939)"><circle class="b" cx="10.5" cy="10.5" r="10.5"/><circle class="c" cx="10.5" cy="10.5" r="10"/></g><g class="a" transform="translate(355.321 3939)"><ellipse class="b" cx="11.5" cy="10.5" rx="11.5" ry="10.5"/><ellipse class="c" cx="11.5" cy="10.5" rx="11" ry="10"/></g><g class="a" transform="translate(330.321 3939)"><circle class="b" cx="10.5" cy="10.5" r="10.5"/><circle class="c" cx="10.5" cy="10.5" r="10"/></g><g class="a" transform="translate(278.321 3939)"><ellipse class="b" cx="11" cy="10.5" rx="11" ry="10.5"/><ellipse class="c" cx="11" cy="10.5" rx="10.5" ry="10"/></g><g class="a" transform="translate(304.321 3939)"><ellipse class="b" cx="11.5" cy="10.5" rx="11.5" ry="10.5"/><ellipse class="c" cx="11.5" cy="10.5" rx="11" ry="10"/></g><g class="a" transform="translate(304.321 4307)"><ellipse class="b" cx="11.5" cy="10.5" rx="11.5" ry="10.5"/><ellipse class="c" cx="11.5" cy="10.5" rx="11" ry="10"/></g><g class="a" transform="translate(355.321 3963)"><ellipse class="b" cx="11.5" cy="10.5" rx="11.5" ry="10.5"/><ellipse class="c" cx="11.5" cy="10.5" rx="11" ry="10"/></g><g class="a" transform="translate(330.321 3963)"><circle class="b" cx="10.5" cy="10.5" r="10.5"/><circle class="c" cx="10.5" cy="10.5" r="10"/></g><g class="a" transform="translate(278.321 3963)"><ellipse class="b" cx="11" cy="10.5" rx="11" ry="10.5"/><ellipse class="c" cx="11" cy="10.5" rx="10.5" ry="10"/></g><g class="a" transform="translate(304.321 3963)"><ellipse class="b" cx="11.5" cy="10.5" rx="11.5" ry="10.5"/><ellipse class="c" cx="11.5" cy="10.5" rx="11" ry="10"/></g><g class="a" transform="translate(304.321 4331)"><ellipse class="b" cx="11.5" cy="10.5" rx="11.5" ry="10.5"/><ellipse class="c" cx="11.5" cy="10.5" rx="11" ry="10"/></g><g class="a" transform="translate(330.321 4062)"><ellipse class="b" cx="11" cy="10.5" rx="11" ry="10.5"/><ellipse class="c" cx="11" cy="10.5" rx="10.5" ry="10"/></g><g class="a" transform="translate(382.321 3988)"><circle class="b" cx="10.5" cy="10.5" r="10.5"/><circle class="c" cx="10.5" cy="10.5" r="10"/></g><g class="a" transform="translate(355.321 3988)"><ellipse class="b" cx="11.5" cy="10.5" rx="11.5" ry="10.5"/><ellipse class="c" cx="11.5" cy="10.5" rx="11" ry="10"/></g><g class="a" transform="translate(330.321 3988)"><circle class="b" cx="10.5" cy="10.5" r="10.5"/><circle class="c" cx="10.5" cy="10.5" r="10"/></g><g class="a" transform="translate(278.321 3988)"><ellipse class="b" cx="11" cy="10.5" rx="11" ry="10.5"/><ellipse class="c" cx="11" cy="10.5" rx="10.5" ry="10"/></g><g class="a" transform="translate(304.321 3988)"><ellipse class="b" cx="11.5" cy="10.5" rx="11.5" ry="10.5"/><ellipse class="c" cx="11.5" cy="10.5" rx="11" ry="10"/></g><g class="a" transform="translate(304.321 4356)"><ellipse class="b" cx="11.5" cy="10.5" rx="11.5" ry="10.5"/><ellipse class="c" cx="11.5" cy="10.5" rx="11" ry="10"/></g><g class="a" transform="translate(330.321 4087)"><ellipse class="b" cx="11" cy="10.5" rx="11" ry="10.5"/><ellipse class="c" cx="11" cy="10.5" rx="10.5" ry="10"/></g><g class="a" transform="translate(382.321 4012)"><circle class="b" cx="10.5" cy="10.5" r="10.5"/><circle class="c" cx="10.5" cy="10.5" r="10"/></g><g class="a" transform="translate(355.321 4012)"><ellipse class="b" cx="11.5" cy="10.5" rx="11.5" ry="10.5"/><ellipse class="c" cx="11.5" cy="10.5" rx="11" ry="10"/></g><g class="a" transform="translate(278.321 4012)"><ellipse class="b" cx="11" cy="10.5" rx="11" ry="10.5"/><ellipse class="c" cx="11" cy="10.5" rx="10.5" ry="10"/></g><g class="a" transform="translate(304.321 4012)"><ellipse class="b" cx="11.5" cy="10.5" rx="11.5" ry="10.5"/><ellipse class="c" cx="11.5" cy="10.5" rx="11" ry="10"/></g><g class="a" transform="translate(304.321 4380)"><ellipse class="b" cx="11.5" cy="10.5" rx="11.5" ry="10.5"/><ellipse class="c" cx="11.5" cy="10.5" rx="11" ry="10"/></g><g class="a" transform="translate(330.321 4111)"><ellipse class="b" cx="11" cy="10.5" rx="11" ry="10.5"/><ellipse class="c" cx="11" cy="10.5" rx="10.5" ry="10"/></g><g class="a" transform="translate(382.321 4037)"><circle class="b" cx="10.5" cy="10.5" r="10.5"/><circle class="c" cx="10.5" cy="10.5" r="10"/></g><g class="a" transform="translate(330.321 4037)"><circle class="b" cx="10.5" cy="10.5" r="10.5"/><circle class="c" cx="10.5" cy="10.5" r="10"/></g><g class="a" transform="translate(278.321 4037)"><ellipse class="b" cx="11" cy="10.5" rx="11" ry="10.5"/><ellipse class="c" cx="11" cy="10.5" rx="10.5" ry="10"/></g><g class="a" transform="translate(304.321 4037)"><ellipse class="b" cx="11.5" cy="10.5" rx="11.5" ry="10.5"/><ellipse class="c" cx="11.5" cy="10.5" rx="11" ry="10"/></g><g class="a" transform="translate(304.321 4405)"><ellipse class="b" cx="11.5" cy="10.5" rx="11.5" ry="10.5"/><ellipse class="c" cx="11.5" cy="10.5" rx="11" ry="10"/></g><g class="a" transform="translate(330.321 4136)"><ellipse class="b" cx="11" cy="10.5" rx="11" ry="10.5"/><ellipse class="c" cx="11" cy="10.5" rx="10.5" ry="10"/></g></g></svg>