<svg xmlns="http://www.w3.org/2000/svg" width="295.412" height="188.191" viewBox="0 0 295.412 188.191"><defs><style>.a{opacity:0.86;}.b{fill:#ff3939;}.c{fill:#1d2683;}.d{opacity:0.5;}.e{fill:#ffd7f4;}.f{fill:#f993d2;}.g{opacity:0.2;}.h{fill:#b0d0f7;}.i{opacity:0.15;}.j{opacity:0.7;}.k{fill:#c3dbfd;}.l{fill:#fff;}.m{opacity:0.4;}.n{fill:maroon;}.o{fill:#a197ff;}.p{opacity:0.8;}.q{fill:#feb487;}.r{fill:#f7a374;}.s{opacity:0.6;}.t{fill:#ff8f8f;}.u{fill:#ef73c6;}.v{fill:#94befe;}.w{fill:#d81717;}.x{fill:#b92121;}.y{fill:#f22a9b;}</style></defs><g class="a" transform="translate(0 19.895)"><path class="b" d="M535.615,674.269s-11.083-88.835,40.4-88.785c53.281.051,77.6-12.516,119.59-35.2s92.186-29.189,117.9-1.226c23.46,25.508-.395,59.1,6.042,81.678s11.4,20.645,10.326,43.531Z" transform="translate(-534.611 -530.572)"/></g><g transform="translate(199.858 97.822)"><g transform="translate(0 0)"><path class="c" d="M4035.246,1934.4a1.207,1.207,0,0,1-.708-.207,2.082,2.082,0,0,1-.578-2.039,10.563,10.563,0,0,1,2.53-5.1,16.412,16.412,0,0,1,4.654-3.765,22.4,22.4,0,0,0,.224-3.371c-.051-3.642-1.154-6.161-3.105-7.093a5.99,5.99,0,0,0-2.672-.612,12.309,12.309,0,0,1-1.729,3.934,4.034,4.034,0,0,1-3.145,2.03h-.078a1.257,1.257,0,0,1-1.295-.761c-.332-.893.361-2.361,1.684-3.571a7.3,7.3,0,0,1,3.224-1.733,6.233,6.233,0,0,1,1.128-.159,12.19,12.19,0,0,0-.18-7.042,6.645,6.645,0,0,0-4.633-4.05,10.459,10.459,0,0,0-3.245-.41.138.138,0,0,1-.145-.127.136.136,0,0,1,.127-.145,10.545,10.545,0,0,1,3.34.42,7.051,7.051,0,0,1,4.81,4.214,12.434,12.434,0,0,1,.205,7.133h.007a6.25,6.25,0,0,1,2.715.635,5.109,5.109,0,0,1,2.476,2.841,12.486,12.486,0,0,1,.784,4.494,22.46,22.46,0,0,1-.2,3.216,18.469,18.469,0,0,1,1.9-.861,79.259,79.259,0,0,1,9.364-2.7,69.006,69.006,0,0,0,12.667-3.979c4.213-2,6.759-4.56,7.786-7.83a13.741,13.741,0,0,0-1.338-10.712,19.322,19.322,0,0,0-3.309-4.45.136.136,0,1,1,.186-.2,19.646,19.646,0,0,1,3.362,4.519,16.062,16.062,0,0,1,1.749,4.906,12.718,12.718,0,0,1-.391,6.017c-1.05,3.346-3.644,5.962-7.93,7.995a69.213,69.213,0,0,1-12.718,4,79.045,79.045,0,0,0-9.33,2.689,18.177,18.177,0,0,0-2.04.94,26.145,26.145,0,0,1-1.273,5.1c-1.019,2.809-2.368,4.812-3.7,5.494A2.62,2.62,0,0,1,4035.246,1934.4Zm5.849-10.77a16.085,16.085,0,0,0-4.4,3.6,10.272,10.272,0,0,0-2.467,4.955,1.868,1.868,0,0,0,.462,1.783,1.58,1.58,0,0,0,1.6-.149c1.271-.652,2.572-2.6,3.568-5.345A25.771,25.771,0,0,0,4041.1,1923.633Zm-5.785-11.405a6.981,6.981,0,0,0-4.1,1.821c-1.224,1.118-1.9,2.5-1.612,3.275.138.371.491.567,1.048.583a3.848,3.848,0,0,0,2.993-1.914A11.992,11.992,0,0,0,4035.31,1912.228Z" transform="translate(-4027.177 -1892.367)"/></g></g><g class="d" transform="translate(220.125 47.068)"><rect class="e" width="53.096" height="30.932" rx="15.466" transform="translate(0 0)"/></g><g transform="translate(226.278 51.86)"><g transform="translate(0 0)"><path class="f" d="M4499.55,1110.519a10.674,10.674,0,1,1,0-21.347v2.287a8.386,8.386,0,1,0,7.284,12.545l1.985,1.136a10.669,10.669,0,0,1-9.27,5.379Z" transform="translate(-4488.876 -1089.172)"/></g></g><g transform="translate(236.952 51.86)"><g transform="translate(0 0)"><path class="e" d="M4684.669,1105.141l-1.984-1.136a8.39,8.39,0,0,0-7.285-12.545v-2.287a10.676,10.676,0,0,1,9.269,15.969Z" transform="translate(-4675.4 -1089.172)"/></g></g><g class="g" transform="translate(220.125 67.598)"><path class="f" d="M4408.595,1364.2h-27.256v6.749a3.663,3.663,0,0,0,3.652,3.653h27.334v-6.671A3.734,3.734,0,0,0,4408.595,1364.2Z" transform="translate(-4381.339 -1364.2)"/></g><g transform="translate(220.996 95.262)"><rect class="h" width="10.728" height="9.421" transform="translate(0 0)"/></g><g class="i" transform="translate(220.996 96.46)"><rect class="c" width="10.728" height="3.975"/></g><g transform="translate(203.297 69.232)"><path class="h" d="M4131.362,1392.75h-41.987a2.1,2.1,0,0,0-2.1,2.1v25.377a2.1,2.1,0,0,0,2.1,2.1h30.36v.286a.369.369,0,0,0,.368.368h1.5a.368.368,0,0,0,.366-.368v-.286h1.579v.286a.369.369,0,0,0,.368.368h1.5a.369.369,0,0,0,.367-.368v-.286h1.579v.286a.369.369,0,0,0,.368.368h1.5a.369.369,0,0,0,.368-.368v-.286h1.77a2.1,2.1,0,0,0,2.1-2.1v-25.377A2.1,2.1,0,0,0,4131.362,1392.75Z" transform="translate(-4087.28 -1392.75)"/></g><g transform="translate(47.765 109.616)"><path class="e" d="M1410.91,2127.211a18.617,18.617,0,0,0-.086-10.541l5.6-2.374-1.557-3.674-5.6,2.374a18.62,18.62,0,0,0-7.516-7.386l2.284-5.646-3.7-1.5-2.286,5.648a18.618,18.618,0,0,0-10.528.1l-2.382-5.62-3.674,1.558,2.383,5.623a18.617,18.617,0,0,0-7.372,7.5l-5.668-2.293-1.5,3.7,5.67,2.294a18.618,18.618,0,0,0,.087,10.514l-5.633,2.388,1.558,3.675,5.631-2.387a18.633,18.633,0,0,0,5.425,6.093,14.931,14.931,0,0,1,2.907-2.851,14.7,14.7,0,1,1,16.819-.589,14.923,14.923,0,0,1,3.1,2.645q.674-.559,1.3-1.183a18.507,18.507,0,0,0,3.239-4.372l5.64,2.282,1.5-3.7Z" transform="translate(-1369.309 -2098.468)"/></g><g class="g" transform="translate(49.479 7.726)"><path class="e" d="M1418.736,377.086s40.287-1.2,73.611-27.175-28.259-40.381-57.075-26.756S1379.882,377.667,1418.736,377.086Z" transform="translate(-1399.264 -317.923)"/></g><g class="j" transform="translate(123.195 27.344)"><circle class="k" cx="9.112" cy="9.112" r="9.112" transform="translate(0 12.886) rotate(-45)"/></g><g class="d" transform="translate(123.195 27.344)"><circle class="l" cx="9.112" cy="9.112" r="9.112" transform="translate(0 12.886) rotate(-45)"/></g><g transform="translate(130.835 35.315)"><path class="h" d="M2827.6,806.4a3.313,3.313,0,1,0-2.635,0,5.4,5.4,0,0,0-3.984,5.243,5.574,5.574,0,0,0,.059.808,9.1,9.1,0,0,0,10.5-.086,5.627,5.627,0,0,0,.048-.722A5.4,5.4,0,0,0,2827.6,806.4Z" transform="translate(-2820.982 -800.048)"/></g><g transform="translate(123.071 0)"><g class="j" transform="translate(0 0)"><circle class="k" cx="9.112" cy="9.112" r="9.112" transform="translate(0 12.886) rotate(-45)"/></g><g class="d" transform="translate(0 0)"><circle class="l" cx="9.112" cy="9.112" r="9.112" transform="translate(0 12.886) rotate(-45)"/></g><g transform="translate(7.64 7.971)"><path class="h" d="M2825.431,328.56a3.314,3.314,0,1,0-2.636,0,5.4,5.4,0,0,0-3.984,5.243,5.507,5.507,0,0,0,.059.808,9.1,9.1,0,0,0,10.5-.086,5.58,5.58,0,0,0,.048-.722A5.4,5.4,0,0,0,2825.431,328.56Z" transform="translate(-2818.811 -322.206)"/></g></g><g class="m" transform="translate(1.003 163.592)"><path class="k" d="M846.4,3041.717H552.142s37.49,10.566,59.763,9.315,32.49-5.4,50.472.391,33.92,2.893,50.472-.861,36.446,1.173,50.88,2.62C787.125,3055.528,830.212,3050.391,846.4,3041.717Z" transform="translate(-552.142 -3041.717)"/></g><g transform="translate(68.684 43.287)"><path class="k" d="M54.84,0h0a54.84,54.84,0,0,1,54.84,54.84v65.874a0,0,0,0,1,0,0H0a0,0,0,0,1,0,0V54.84A54.84,54.84,0,0,1,54.84,0Z" transform="translate(0 0)"/></g><g class="m" transform="translate(68.684 43.287)"><path class="b" d="M54.84,0a54.84,54.84,0,0,1,54.84,54.84v65.874H0V54.84A54.84,54.84,0,0,1,54.84,0Z" transform="translate(0 0)"/></g><g class="i" transform="translate(126.976 40.564)"><path class="c" d="M2771.758,891.781h-18.21a9.111,9.111,0,0,0,18.21,0Z" transform="translate(-2753.548 -891.781)"/></g><g transform="translate(68.967 43.287)"><path class="n" d="M1739.832,948.252h109.112a11.432,11.432,0,0,0-11.144-8.889h-86.823A11.432,11.432,0,0,0,1739.832,948.252Z" transform="translate(-1739.832 -939.363)"/></g><g transform="translate(165.796 46.352)"><circle class="o" cx="1.507" cy="1.507" r="1.507" transform="translate(0)"/></g><g transform="translate(158.003 46.352)"><circle class="o" cx="1.507" cy="1.507" r="1.507" transform="translate(0)"/></g><g transform="translate(150.209 46.352)"><circle class="o" cx="1.507" cy="1.507" r="1.507"/></g><g class="j" transform="translate(77.011 46.761)"><path class="l" d="M1924.068,1002.214h-42.6a1.076,1.076,0,0,1-1.073-1.073h0a1.076,1.076,0,0,1,1.073-1.073h42.6a1.076,1.076,0,0,1,1.073,1.073h0A1.076,1.076,0,0,1,1924.068,1002.214Z" transform="translate(-1880.39 -1000.068)"/></g><g transform="translate(178.363 106.99)"><rect class="h" width="97.317" height="5.211" transform="translate(0 0)"/></g><g transform="translate(191.849 159.403)"><rect class="h" width="13.793" height="4.189" transform="translate(0)"/></g><g transform="translate(246.255 159.403)"><rect class="h" width="13.793" height="4.189" transform="translate(0)"/></g><g class="j" transform="translate(196.243 112.201)"><rect class="h" width="5.057" height="47.202" transform="translate(0 0)"/></g><g class="j" transform="translate(250.648 112.201)"><rect class="h" width="5.057" height="47.202" transform="translate(0 0)"/></g><g class="j" transform="translate(255.705 122.418)"><rect class="h" width="8.225" height="2.197" transform="translate(0 0)"/></g><g transform="translate(263.93 120.068)"><rect class="h" width="1.992" height="6.948" rx="0.996"/></g><g class="j" transform="translate(264.952 122.52)"><rect class="h" width="1.941" height="1.941" rx="0.971" transform="translate(0 0)"/></g><g class="d" transform="translate(15.463 25.764)"><circle class="k" cx="11.706" cy="11.706" r="11.706" transform="translate(0 16.555) rotate(-45)"/></g><g class="d" transform="translate(3.757 81.094)"><circle class="k" cx="11.706" cy="11.706" r="11.706" transform="translate(0 16.555) rotate(-45)"/></g><g transform="translate(25.11 38.023)"><g transform="translate(9.524 0.336)"><path class="h" d="M1139.849,856.844l4.251,3.871a1.11,1.11,0,0,1-.209.361,1.058,1.058,0,0,0,.275-.712v-6.393a1.059,1.059,0,0,0-.289-.727,1.113,1.113,0,0,1,.214.353Z" transform="translate(-1139.849 -853.244)"/></g><g transform="translate(0.618)"><path class="h" d="M991,851.9l5.791-4.432a1.058,1.058,0,0,0-.431-.092H984.648a1.057,1.057,0,0,0-.445.1l5.811,4.426A.806.806,0,0,0,991,851.9Z" transform="translate(-984.203 -847.372)"/></g><g transform="translate(13.514 0.297)"><path class="h" d="M1209.574,852.561l.027.027Z" transform="translate(-1209.574 -852.561)"/></g><g transform="translate(0 0.344)"><path class="h" d="M977.8,857.032l-4.317-3.287a1.11,1.11,0,0,1,.213-.36,1.058,1.058,0,0,0-.281.719V860.5a1.059,1.059,0,0,0,.322.762,1.1,1.1,0,0,1-.222-.324Z" transform="translate(-973.41 -853.385)"/></g><g transform="translate(13.516 8.171)"><path class="h" d="M1209.65,990.163c-.015.017-.031.034-.048.05C1209.619,990.2,1209.634,990.18,1209.65,990.163Z" transform="translate(-1209.602 -990.163)"/></g><g transform="translate(0.288 0.296)"><path class="h" d="M978.446,852.579c.013-.014.027-.027.04-.041Z" transform="translate(-978.446 -852.538)"/></g><g transform="translate(0.69 4.425)"><path class="h" d="M993.668,924.707l-1.014.776a1.544,1.544,0,0,1-1.893,0l-.937-.714-4.35,3.961a1.057,1.057,0,0,0,.373.068h11.716a1.056,1.056,0,0,0,.461-.106l-4.365-3.975Z" transform="translate(-985.474 -924.707)"/></g><g transform="translate(0.282 0.337)"><path class="h" d="M978.33,853.264l.006-.007Z" transform="translate(-978.33 -853.257)"/></g><g transform="translate(0.322 8.218)"><path class="h" d="M979.4,991.22l.006-.005a1.062,1.062,0,0,1-.368-.233A1.017,1.017,0,0,0,979.4,991.22Z" transform="translate(-979.042 -990.982)"/></g><g transform="translate(13.239 8.221)"><path class="h" d="M1204.773,991.23a1.03,1.03,0,0,0,.271-.2,1.069,1.069,0,0,1-.277.192Z" transform="translate(-1204.768 -991.033)"/></g><g transform="translate(0.329 0.094)"><path class="h" d="M979.435,849.017a1.024,1.024,0,0,0-.283.2,1.06,1.06,0,0,1,.289-.2Z" transform="translate(-979.152 -849.017)"/></g><g transform="translate(13.563 8.168)"><path class="h" d="M1210.435,990.11l0,0Z" transform="translate(-1210.435 -990.107)"/></g><g transform="translate(13.541 0.324)"><path class="h" d="M1210.049,853.032l.011.012Z" transform="translate(-1210.049 -853.032)"/></g><g transform="translate(13.209 0.087)"><path class="h" d="M1204.244,848.891l-.006,0a1.062,1.062,0,0,1,.305.205A1.022,1.022,0,0,0,1204.244,848.891Z" transform="translate(-1204.238 -848.891)"/></g></g><g transform="translate(93.498 11.322)"><g class="j" transform="translate(0 0)"><circle class="k" cx="9.112" cy="9.112" r="9.112" transform="translate(0 12.886) rotate(-45)"/></g><g class="d" transform="translate(0 0)"><circle class="l" cx="9.112" cy="9.112" r="9.112" transform="translate(0 12.886) rotate(-45)"/></g><g transform="translate(7.64 7.971)"><path class="h" d="M2308.631,526.421a3.313,3.313,0,1,0-2.635,0,5.4,5.4,0,0,0-3.984,5.243,5.61,5.61,0,0,0,.059.808,9.1,9.1,0,0,0,10.5-.086,5.538,5.538,0,0,0,.049-.722A5.4,5.4,0,0,0,2308.631,526.421Z" transform="translate(-2302.012 -520.067)"/></g></g><g transform="translate(106.2 33.127)"><g transform="translate(0 0)"><path class="c" d="M2390.673,771.933a.191.191,0,0,1-.191-.191v-9.748a.191.191,0,1,1,.381,0v9.748A.19.19,0,0,1,2390.673,771.933Z" transform="translate(-2390.482 -761.804)"/></g></g><g transform="translate(114.314 13.685)"><path class="c" d="M2532.468,428.653a.191.191,0,0,1-.086-.361l12.362-6.208a.191.191,0,1,1,.171.341l-12.362,6.208A.19.19,0,0,1,2532.468,428.653Z" transform="translate(-2532.277 -422.063)"/></g><g transform="translate(113.949 28.801)"><g transform="translate(0 0)"><path class="c" d="M2539.389,694.94a.19.19,0,0,1-.1-.029l-13.3-8.34a.191.191,0,0,1,.2-.323l13.3,8.34a.191.191,0,0,1-.1.352Z" transform="translate(-2525.899 -686.218)"/></g></g><g transform="translate(104.566 41.486)"><path class="c" d="M2361.933,909.707a1.824,1.824,0,1,1,3.649,0Z" transform="translate(-2361.933 -907.883)"/></g><g transform="translate(178.356 58)"><path class="c" d="M3651.422,1196.471a1.824,1.824,0,0,1,0,3.649Z" transform="translate(-3651.422 -1196.471)"/></g><g transform="translate(66.855 66.277)"><path class="c" d="M1704.737,1344.771a1.824,1.824,0,0,1,0-3.649Z" transform="translate(-1702.913 -1341.122)"/></g><g transform="translate(66.855 95.848)"><path class="c" d="M1704.737,1861.519a1.824,1.824,0,0,1,0-3.649Z" transform="translate(-1702.913 -1857.87)"/></g><g transform="translate(41.559 48.647)"><g transform="translate(0)"><path class="c" d="M1287.745,1052.9a.191.191,0,0,1-.112-.037l-26.684-19.5a.191.191,0,0,1,.225-.308l26.684,19.5a.19.19,0,0,1-.112.344Z" transform="translate(-1260.87 -1033.024)"/></g></g><g transform="translate(31.811 97.441)"><g transform="translate(0 0)"><path class="c" d="M1125.568,1886.087h-34.853a.19.19,0,1,1,0-.381h34.853a.19.19,0,0,1,0,.381Z" transform="translate(-1090.525 -1885.706)"/></g></g><g transform="translate(10.306 91.538)"><path class="h" d="M733.6,1786.9c-1.754-2.309-4.4,1.02-5.8-1.772s-3.545-2.954-5.03-2.148c-2.646,1.435-.306,4.661-3.133,4.117-3.258-.626-4.321.266-4.78,1.575-.734,2.094,1.45,3.491,1.45,3.491h5.783v-3.457h-.69l1.5-1.771,1.5,1.771h-.66v3.457h2.435l-1.455-1.716h.69v-3.512h1.651v3.512h.66l-1.454,1.716h5.667S735.6,1789.538,733.6,1786.9Z" transform="translate(-714.704 -1782.562)"/></g><g class="m" transform="translate(68.684 50.172)"><g transform="translate(0.627 0.782)"><path class="h" d="M1745.835,1073.359l.007-.021Z" transform="translate(-1745.835 -1073.338)"/></g><g transform="translate(0.72 0.502)"><path class="h" d="M1747.455,1068.486l.017-.044Z" transform="translate(-1747.455 -1068.442)"/></g><g transform="translate(0.933 0)"><path class="h" d="M1751.18,1059.671h0l-.008.017Z" transform="translate(-1751.173 -1059.671)"/></g><g transform="translate(0.82 0.243)"><path class="h" d="M1749.214,1063.959l.017-.043Z" transform="translate(-1749.214 -1063.916)"/></g><g transform="translate(0.442 1.331)"><path class="h" d="M1742.6,1082.995c.005-.02.011-.039.017-.059C1742.607,1082.956,1742.6,1082.975,1742.6,1082.995Z" transform="translate(-1742.596 -1082.936)"/></g><g transform="translate(0.364 1.589)"><path class="h" d="M1741.234,1087.523l.023-.088Z" transform="translate(-1741.234 -1087.435)"/></g><g transform="translate(0 2.004)"><path class="b" d="M1735.161,1094.7a11.447,11.447,0,0,0-.284,2.539v109.286h31.362V1094.7Z" transform="translate(-1734.877 -1094.697)"/></g><g transform="translate(0.297 1.849)"><path class="h" d="M1740.064,1092.088l.024-.1Z" transform="translate(-1740.064 -1091.989)"/></g></g><g transform="translate(50.923 134.993)"><path class="f" d="M1466.688,2570.916l-.582-.236a18.61,18.61,0,0,0-.086-10.54l5.6-2.374-1.557-3.675-5.6,2.374a18.617,18.617,0,0,0-7.516-7.386l2.284-5.645-3.7-1.5-2.285,5.648a18.61,18.61,0,0,0-10.528.1l-2.382-5.62-3.675,1.558,2.383,5.623a18.617,18.617,0,0,0-7.372,7.5l-5.668-2.294-1.5,3.7,5.67,2.294a18.617,18.617,0,0,0-.022,10.141l4.192-.018a14.685,14.685,0,1,1,27.463.37Z" transform="translate(-1424.505 -2541.938)"/></g><g class="m" transform="translate(204.931 70.866)"><rect class="l" width="24.56" height="42.912" rx="12.28" transform="translate(42.912 0) rotate(90)"/></g><g class="m" transform="translate(224.971 96.243)"><circle class="l" cx="0.844" cy="0.844" r="0.844" transform="translate(0 0)"/></g><g transform="translate(216.476 104.466)"><rect class="h" width="19.822" height="2.614" rx="1.307" transform="translate(0 0)"/></g><g transform="translate(259.75 80.627)"><g transform="translate(1.991 16.911)"><path class="e" d="M5114.494,1896.881h-4.388l-1.516-9.477h7.418Z" transform="translate(-5108.59 -1887.405)"/></g><g class="g" transform="translate(1.991 16.911)"><path class="f" d="M5114.89,1894.4c-3.985-1.279-5.34-5.3-5.743-7h-.557l1.515,9.477h4.389Z" transform="translate(-5108.59 -1887.405)"/></g><g class="p" transform="translate(0)"><path class="e" d="M5079.478,1607.173s-5.912-.278-5.675-4.236c.169-2.838,4.489-3.3,3.134-6.522s.848-4.363,1.609-4.49c2.216-.369,3.05,1.694,2.838,4.151s1.41,3.269,2.583,5.083C5085.365,1603.319,5084.349,1607.512,5079.478,1607.173Z" transform="translate(-5073.796 -1591.882)"/></g><g class="g" transform="translate(0 7.602)"><path class="f" d="M5079.169,1729.7c-2.7-.743-2.994-3.314-2.886-4.975-.973,1.009-2.386,1.855-2.48,3.454-.237,3.957,5.675,4.235,5.675,4.235,2.963.206,4.5-1.265,4.935-2.935A8.633,8.633,0,0,1,5079.169,1729.7Z" transform="translate(-5073.796 -1724.722)"/></g><g transform="translate(4.94 7.939)"><path class="f" d="M5160.121,1739.609l.83-8.986.606,8.986Z" transform="translate(-5160.121 -1730.622)"/></g></g><g class="d" transform="translate(207 72.772)"><rect class="l" width="15.194" height="18.733" rx="7.597" transform="translate(0)"/></g><g transform="translate(209.043 73.888)"><g transform="translate(0)"><path class="h" d="M4193.206,1485.171a5.527,5.527,0,1,1,0-11.055v1.634a3.894,3.894,0,1,0,3.894,3.894h1.633A5.534,5.534,0,0,1,4193.206,1485.171Z" transform="translate(-4187.678 -1474.116)"/></g></g><g class="d" transform="translate(214.57 74.16)"><path class="h" d="M4289.527,1484.129h-1.09a4.17,4.17,0,0,0-4.166-4.166v-1.089A5.262,5.262,0,0,1,4289.527,1484.129Z" transform="translate(-4284.271 -1478.874)"/></g><g transform="translate(209.015 87.747)"><rect class="h" width="4.03" height="1.852" rx="0.926"/></g><g class="d" transform="translate(216.095 87.747)"><rect class="h" width="4.03" height="1.852" rx="0.926"/></g><g class="i" transform="translate(208.195 73.746)"><path class="c" d="M4186.8,1471.631a1.409,1.409,0,0,1,.071.442v15.9a1.42,1.42,0,0,1-1.417,1.416H4173.09a1.4,1.4,0,0,1-.221-.017,1.838,1.838,0,0,0,1.46.726h11.518a1.843,1.843,0,0,0,1.837-1.838V1473.2A1.841,1.841,0,0,0,4186.8,1471.631Z" transform="translate(-4172.869 -1471.631)"/></g><g class="d" transform="translate(228.62 72.772)"><rect class="l" width="15.194" height="10.6" rx="5.3"/></g><g class="d" transform="translate(228.62 84.97)"><rect class="l" width="15.194" height="6.535" rx="3.267"/></g><g class="i" transform="translate(229.484 73.635)"><path class="c" d="M4559.2,1469.7a1.054,1.054,0,0,1,.02.2v8.47a1.068,1.068,0,0,1-1.065,1.065h-13.064a1.077,1.077,0,0,1-.2-.02,1.36,1.36,0,0,0,1.2.728h12.482a1.36,1.36,0,0,0,1.355-1.356V1470.9A1.359,1.359,0,0,0,4559.2,1469.7Z" transform="translate(-4544.891 -1469.701)"/></g><g class="i" transform="translate(229.337 85.687)"><path class="c" d="M4556.8,1680.315a.735.735,0,0,1,.01.119v4.862a.839.839,0,0,1-.836.836h-13.522a.863.863,0,0,1-.118-.01.837.837,0,0,0,.827.717h13.52a.839.839,0,0,0,.837-.836v-4.863A.838.838,0,0,0,4556.8,1680.315Z" transform="translate(-4542.335 -1680.315)"/></g><g transform="translate(229.818 74.187)"><path class="h" d="M4562.958,1480.167h-11.817a.41.41,0,0,1-.409-.408h0a.41.41,0,0,1,.409-.408h11.817a.409.409,0,0,1,.408.408h0A.409.409,0,0,1,4562.958,1480.167Z" transform="translate(-4550.733 -1479.35)"/></g><g transform="translate(229.818 76.529)"><rect class="h" width="12.634" height="0.817" rx="0.408"/></g><g transform="translate(229.818 78.871)"><path class="h" d="M4562.958,1562.009h-11.817a.409.409,0,0,1-.409-.408h0a.41.41,0,0,1,.409-.408h11.817a.409.409,0,0,1,.408.408h0A.409.409,0,0,1,4562.958,1562.009Z" transform="translate(-4550.733 -1561.192)"/></g><g transform="translate(229.818 81.212)"><rect class="h" width="8.169" height="0.817" rx="0.408"/></g><g transform="translate(230.036 85.787)"><rect class="h" width="2.233" height="2.233" rx="1.116" transform="translate(0 0)"/></g><g transform="translate(233.412 85.787)"><rect class="h" width="2.233" height="2.233" rx="1.116" transform="translate(0 0)"/></g><g transform="translate(236.788 85.787)"><rect class="h" width="2.233" height="2.233" rx="1.116" transform="translate(0 0)"/></g><g class="p" transform="translate(240.165 85.787)"><rect class="h" width="2.233" height="2.233" rx="1.116" transform="translate(0 0)"/></g><g class="p" transform="translate(230.036 88.564)"><rect class="h" width="2.233" height="2.233" rx="1.116"/></g><g class="d" transform="translate(233.412 88.564)"><rect class="h" width="2.233" height="2.233" rx="1.116"/></g><g class="d" transform="translate(236.788 88.564)"><rect class="h" width="2.233" height="2.233" rx="1.116"/></g><g class="d" transform="translate(240.165 88.564)"><rect class="h" width="2.233" height="2.233" rx="1.116" transform="translate(0)"/></g><g transform="translate(255.685 51.315)"><rect class="e" width="13.56" height="8.55" rx="4.275" transform="translate(0 0)"/></g><g transform="translate(256.556 52.568)"><path class="f" d="M5029.295,1102.47h-10.837a.464.464,0,0,1-.462-.463h0a.464.464,0,0,1,.462-.463h10.837a.464.464,0,0,1,.463.463h0A.464.464,0,0,1,5029.295,1102.47Z" transform="translate(-5017.995 -1101.544)"/></g><g transform="translate(256.556 55.127)"><path class="f" d="M5029.295,1147.2h-10.837a.464.464,0,0,1-.462-.463h0a.464.464,0,0,1,.462-.463h10.837a.464.464,0,0,1,.463.463h0A.464.464,0,0,1,5029.295,1147.2Z" transform="translate(-5017.995 -1146.271)"/></g><g transform="translate(256.556 57.687)"><path class="f" d="M5025.21,1191.925h-6.753a.464.464,0,0,1-.462-.463h0a.464.464,0,0,1,.462-.463h6.753a.464.464,0,0,1,.463.463h0A.464.464,0,0,1,5025.21,1191.925Z" transform="translate(-5017.995 -1190.999)"/></g><g transform="translate(255.685 65.365)"><rect class="e" width="13.56" height="8.55" rx="4.275" transform="translate(0)"/></g><g transform="translate(256.556 66.618)"><rect class="f" width="11.763" height="0.926" rx="0.463"/></g><g transform="translate(256.556 69.177)"><path class="f" d="M5029.295,1392.724h-10.837a.464.464,0,0,1-.462-.463h0a.464.464,0,0,1,.462-.463h10.837a.464.464,0,0,1,.463.463h0A.464.464,0,0,1,5029.295,1392.724Z" transform="translate(-5017.995 -1391.798)"/></g><g transform="translate(256.556 71.737)"><path class="f" d="M5020.8,1437.451h-2.342a.464.464,0,0,1-.462-.463h0a.464.464,0,0,1,.462-.463h2.342a.465.465,0,0,1,.463.463h0A.465.465,0,0,1,5020.8,1437.451Z" transform="translate(-5017.995 -1436.525)"/></g><g class="d" transform="translate(256.583 52.146)"><path class="f" d="M5031.089,1094.178a1.09,1.09,0,0,1,.026.231v6.426a1.065,1.065,0,0,1-1.062,1.062h-11.437a1.067,1.067,0,0,1-.164-.014,1.065,1.065,0,0,0,1.035.831h11.437a1.065,1.065,0,0,0,1.062-1.062v-6.426A1.066,1.066,0,0,0,5031.089,1094.178Z" transform="translate(-5018.453 -1094.178)"/></g><g class="d" transform="translate(256.583 66.087)"><path class="f" d="M5031.089,1337.8a1.09,1.09,0,0,1,.026.231v6.426a1.065,1.065,0,0,1-1.062,1.062h-11.437a1.067,1.067,0,0,1-.164-.014,1.065,1.065,0,0,0,1.035.831h11.437a1.065,1.065,0,0,0,1.062-1.062v-6.426A1.066,1.066,0,0,0,5031.089,1337.8Z" transform="translate(-5018.453 -1337.801)"/></g><g transform="translate(246.411 54.991)"><g transform="translate(0)"><path class="f" d="M4840.846,1146.9a.136.136,0,0,1-.039-.267l9.137-2.735a.136.136,0,0,1,.078.261l-9.137,2.735A.147.147,0,0,1,4840.846,1146.9Z" transform="translate(-4840.709 -1143.891)"/></g></g><g transform="translate(246.536 66.81)"><g transform="translate(0)"><path class="f" d="M4852.04,1353.692a.134.134,0,0,1-.043-.007l-9.013-2.994a.136.136,0,1,1,.085-.258l9.013,2.994a.136.136,0,0,1-.042.265Z" transform="translate(-4842.89 -1350.426)"/></g></g><g transform="translate(178.465 59.654)"><path class="c" d="M3678.157,1252.809h-14.921V1225.75h-9.721a.191.191,0,0,1,0-.381h10.1v27.059h14.541a.19.19,0,0,1,0,.381Z" transform="translate(-3653.325 -1225.369)"/></g><g transform="translate(21.551 121.479)"><g transform="translate(3.863 27.615)"><path class="e" d="M987.755,2802.865h-6.714l-2.319-14.5h11.352Z" transform="translate(-978.722 -2788.364)"/></g><g class="g" transform="translate(3.863 27.615)"><path class="f" d="M988.362,2799.074c-6.1-1.958-8.171-8.111-8.786-10.709h-.853l2.319,14.5h6.714Z" transform="translate(-978.722 -2788.364)"/></g><g transform="translate(0 0)"><path class="e" d="M920.749,2329.192s-8.351.471-9.422-3.769,6.571-4.4,5.225-8.308c-1.713-4.968-.444-12.5,3.384-11.178,4.711,1.627-.6,6.125,4.069,7.924s2.1,4.368,1.713,6.424,1.559,1.776,3.341,3.64C930.9,2325.851,930.042,2329.106,920.749,2329.192Z" transform="translate(-911.223 -2305.783)"/></g><g class="g" transform="translate(0 14.609)"><path class="f" d="M920.748,2569.875c5.981-.055,8.468-1.423,8.99-2.9a21.89,21.89,0,0,1-14.6-5.9c-1.815,1.35-4.474,2.414-3.813,5.031C912.4,2570.346,920.748,2569.875,920.748,2569.875Z" transform="translate(-911.223 -2561.075)"/></g><g transform="translate(8.375 13.887)"><path class="f" d="M1057.574,2562.2l1.271-13.751.928,13.751Z" transform="translate(-1057.574 -2548.454)"/></g></g><g class="j" transform="translate(71.5 54.675)"><circle class="k" cx="9.112" cy="9.112" r="9.112" transform="translate(0 12.886) rotate(-45)"/></g><g class="d" transform="translate(71.5 54.675)"><circle class="l" cx="9.112" cy="9.112" r="9.112" transform="translate(0 12.886) rotate(-45)"/></g><g class="j" transform="translate(71.5 79.344)"><circle class="k" cx="9.112" cy="9.112" r="9.112" transform="translate(0 12.886) rotate(-45)"/></g><g class="d" transform="translate(71.5 79.344)"><circle class="l" cx="9.112" cy="9.112" r="9.112" transform="translate(0 12.886) rotate(-45)"/></g><g class="j" transform="translate(71.5 104.013)"><circle class="k" cx="9.112" cy="9.112" r="9.112" transform="translate(0 12.886) rotate(-45)"/></g><g class="d" transform="translate(71.5 104.013)"><circle class="l" cx="9.112" cy="9.112" r="9.112" transform="translate(0 12.886) rotate(-45)"/></g><g transform="translate(79.14 111.984)"><path class="h" d="M1924.215,2146.217a3.313,3.313,0,1,0-2.635,0,5.394,5.394,0,0,0-3.984,5.243,5.539,5.539,0,0,0,.059.808,9.1,9.1,0,0,0,10.5-.086,5.575,5.575,0,0,0,.048-.722A5.394,5.394,0,0,0,1924.215,2146.217Z" transform="translate(-1917.596 -2139.863)"/></g><g transform="translate(79.14 87.37)"><path class="h" d="M1924.215,1716.07a3.313,3.313,0,1,0-2.635,0,5.4,5.4,0,0,0-3.984,5.243,5.539,5.539,0,0,0,.059.808,9.1,9.1,0,0,0,10.5-.086,5.583,5.583,0,0,0,.048-.722A5.4,5.4,0,0,0,1924.215,1716.07Z" transform="translate(-1917.596 -1709.716)"/></g><g class="i" transform="translate(77.81 86.904)"><path class="c" d="M1908.324,1701.57a9.112,9.112,0,0,1-13.969,11.633,9.112,9.112,0,1,0,13.969-11.633Z" transform="translate(-1894.355 -1701.57)"/></g><g class="i" transform="translate(77.81 111.682)"><path class="c" d="M1908.324,2134.572a9.112,9.112,0,0,1-13.969,11.633,9.112,9.112,0,1,0,13.969-11.633Z" transform="translate(-1894.355 -2134.572)"/></g><g class="i" transform="translate(77.81 62.235)"><path class="c" d="M1908.324,1270.471a9.112,9.112,0,0,1-13.969,11.633,9.112,9.112,0,1,0,13.969-11.633Z" transform="translate(-1894.355 -1270.471)"/></g><g transform="translate(75.508 60.029)"><g transform="translate(0)"><path class="c" d="M1867.6,1238.834a2.971,2.971,0,0,0-.871-3.63c-.788-.576.174-1.975-.988-2.846-1.486-1.114-2.062.291-3.746-.058s-2.527,1.51-2.527,1.51c-1.974.61-1.8,2.846-.929,4.269s-1.765,3.21-4.124,3.311c-.1,0-.2.011-.29.021a9.04,9.04,0,0,0,1.734,3.737c.4-.185.83-.395,1.281-.634,3.83-2.025,10.75-.918,10.75-.918C1869.115,1241.448,1867.123,1239.891,1867.6,1238.834Z" transform="translate(-1854.131 -1231.92)"/></g><g transform="translate(5.85 6.991)"><path class="q" d="M1956.354,1357.591a4.837,4.837,0,0,0,1.831-2.331v-1.165h2.913v1.082a5.565,5.565,0,0,0,1.665,2.247C1963.845,1358.174,1957.686,1359.006,1956.354,1357.591Z" transform="translate(-1956.354 -1354.095)"/></g><g transform="translate(6.178 6.991)"><path class="r" d="M1966.926,1356a6.159,6.159,0,0,1-.414-.822v-1.082h-1.87l-1.044.289v.876a5.173,5.173,0,0,1-1.5,2.095l.67.319s.749-1.581,1.082-1.249S1965.463,1357.238,1966.926,1356Z" transform="translate(-1962.096 -1354.095)"/></g><g transform="translate(6.347 1.581)"><path class="q" d="M1965.038,1262.566s.207,4.558,2.693,4.558,2.832-4.213,2.763-4.558a2.72,2.72,0,0,0-2.417-2.97C1965.452,1259.113,1965.038,1262.566,1965.038,1262.566Z" transform="translate(-1965.038 -1259.55)"/></g><g transform="translate(11.319 3.84)"><path class="q" d="M2051.935,1299.363s1.036-.967.967.345-.967,1.381-.967,1.381Z" transform="translate(-2051.935 -1299.019)"/></g><g transform="translate(5.929 3.84)"><path class="q" d="M1958.708,1299.363s-1.036-.967-.967.345.967,1.381.967,1.381Z" transform="translate(-1957.738 -1299.019)"/></g><g transform="translate(6.495 1.306)"><path class="c" d="M1972.234,1257.772c.251.077.472-.367.652-.433a1.615,1.615,0,0,0-.4-1.9c-.749-.5-2.663-1.082-3.746-.333a3.011,3.011,0,0,0-1.1,2.241.911.911,0,0,1,.353.506c.083.333.179-.43.749-.832a1.458,1.458,0,0,1,1.375-.149c.626.265.9-.2,1.394.087S1971.944,1257.683,1972.234,1257.772Z" transform="translate(-1967.636 -1254.75)"/></g><g transform="translate(9.678 5.103)"><path class="c" d="M2023.531,1321.31a.146.146,0,1,1-.055-.2A.145.145,0,0,1,2023.531,1321.31Z" transform="translate(-2023.258 -1321.093)"/></g><g transform="translate(9.719 3.963)"><path class="c" d="M2024.76,1301.435a.043.043,0,0,1-.026-.01.766.766,0,0,0-.7-.122.042.042,0,0,1-.028-.079.838.838,0,0,1,.78.138.041.041,0,0,1,0,.059A.042.042,0,0,1,2024.76,1301.435Z" transform="translate(-2023.981 -1301.182)"/></g><g transform="translate(8.211 5.103)"><path class="c" d="M1997.633,1321.31a.146.146,0,1,0,.055-.2A.145.145,0,0,0,1997.633,1321.31Z" transform="translate(-1997.614 -1321.093)"/></g><g transform="translate(7.639 3.88)"><path class="c" d="M1987.66,1299.98a.041.041,0,0,0,.026-.01.767.767,0,0,1,.7-.122.042.042,0,1,0,.028-.078.836.836,0,0,0-.78.138.042.042,0,0,0,0,.059A.043.043,0,0,0,1987.66,1299.98Z" transform="translate(-1987.617 -1299.727)"/></g><g transform="translate(7.087 4.328)"><path class="c" d="M1978.927,1309.392a.921.921,0,1,1,.947-.921A.936.936,0,0,1,1978.927,1309.392Zm0-1.74a.819.819,0,1,0,.842.819A.832.832,0,0,0,1978.927,1307.652Z" transform="translate(-1977.979 -1307.55)"/></g><g transform="translate(9.179 4.411)"><path class="c" d="M2015.478,1310.846a.921.921,0,1,1,.942-.921A.933.933,0,0,1,2015.478,1310.846Zm0-1.74a.819.819,0,1,0,.837.819A.829.829,0,0,0,2015.478,1309.106Z" transform="translate(-2014.536 -1309.004)"/></g><g transform="translate(8.877 5.132)"><path class="c" d="M2009.273,1321.717l-.022-.08a.582.582,0,0,1,.365,0l-.042.072A.51.51,0,0,0,2009.273,1321.717Z" transform="translate(-2009.251 -1321.608)"/></g><g transform="translate(8.871 5.857)"><path class="r" d="M2009.42,1334.708a.49.49,0,0,0-.055-.091.529.529,0,0,1-.12-.311c.011-.186.311.353.457.7.092.217-.109.41-.436.306s.171-.073.26-.151C2009.594,1335.1,2009.477,1334.829,2009.42,1334.708Z" transform="translate(-2009.156 -1334.268)"/></g><g transform="translate(1.494 9.738)"><path class="f" d="M1880.234,1405.263a9.078,9.078,0,0,0,14.625.224,29.746,29.746,0,0,0-4.026-3.392,5.263,5.263,0,0,1-5.917.049A20.26,20.26,0,0,0,1880.234,1405.263Z" transform="translate(-1880.234 -1402.095)"/></g></g><g class="d" transform="translate(222.194 75.985)"><rect class="l" width="6.426" height="0.545" transform="translate(0)"/></g><g transform="translate(193.822 103.921)"><g class="j" transform="translate(0 0.163)"><path class="h" d="M3921.691,2004.748a3.256,3.256,0,0,1,6.48,0Z" transform="translate(-3921.691 -2001.807)"/></g><g transform="translate(3.104 0)"><path class="c" d="M3976.071,2000.531a.136.136,0,0,1-.136-.136v-1.307a.136.136,0,1,1,.272,0v1.307A.136.136,0,0,1,3976.071,2000.531Z" transform="translate(-3975.935 -1998.952)"/></g></g><g transform="translate(178.363 141.298)"><path class="f" d="M3652.168,2658.692a11.564,11.564,0,0,1,.237,15.724h3.915a14.666,14.666,0,0,0,2.077-5.857l4.782.1.067-3.138-4.783-.1a14.63,14.63,0,0,0-3.011-7.72l3.458-3.313-2.171-2.266-3.459,3.315a14.617,14.617,0,0,0-1.734-1.257v3.908Q3651.865,2658.377,3652.168,2658.692Z" transform="translate(-3651.545 -2652.122)"/></g><g transform="translate(104.294 56.979)"><rect class="l" width="29.932" height="28.719" rx="14.359"/></g><g class="d" transform="translate(104.294 56.979)"><rect class="e" width="29.932" height="28.719" rx="14.359"/></g><g class="m" transform="translate(104.213 92.586)"><rect class="l" width="29.932" height="44.989" rx="14.966"/></g><g transform="translate(107.859 59.81)"><path class="b" d="M2430.868,1250.91a11.4,11.4,0,1,1,0-22.8v2.443a8.958,8.958,0,1,0,7.781,13.4l2.12,1.214a11.4,11.4,0,0,1-9.9,5.745Z" transform="translate(-2419.466 -1228.107)"/><g transform="translate(11.401)"><path class="b" d="M2628.611,1245.165l-2.121-1.214a8.961,8.961,0,0,0-7.781-13.4v-2.443a11.4,11.4,0,0,1,9.9,17.058Z" transform="translate(-2618.709 -1228.107)"/></g></g><g class="g" transform="translate(106.115 58.8)"><path class="f" d="M2416.958,1210.453a2.686,2.686,0,0,1,.153.894v23.289a2.723,2.723,0,0,1-2.715,2.714h-24.5a2.688,2.688,0,0,1-.894-.153,2.724,2.724,0,0,0,2.562,1.821h24.5a2.722,2.722,0,0,0,2.714-2.714v-23.289A2.724,2.724,0,0,0,2416.958,1210.453Z" transform="translate(-2389 -1210.453)"/></g><g transform="translate(141.709 56.979)"><rect class="l" width="29.932" height="28.719" rx="14.359" transform="translate(0)"/></g><g class="g" transform="translate(143.53 58.8)"><path class="f" d="M3070.8,1210.453a2.7,2.7,0,0,1,.153.894v23.289a2.723,2.723,0,0,1-2.715,2.714h-24.5a2.69,2.69,0,0,1-.894-.153,2.725,2.725,0,0,0,2.562,1.821h24.5a2.722,2.722,0,0,0,2.714-2.714v-23.289A2.724,2.724,0,0,0,3070.8,1210.453Z" transform="translate(-3042.837 -1210.453)"/></g><g transform="translate(114.406 66.181)"><path class="b" d="M2541.3,1348.344a4.829,4.829,0,1,1-2.584-8.908v4.8Z" transform="translate(-2533.887 -1339.436)"/></g><g transform="translate(119.235 66.181)"><path class="e" d="M2620.853,1348.344a4.829,4.829,0,0,0-2.584-8.908v4.8Z" transform="translate(-2618.268 -1339.436)"/></g><g transform="translate(136.881 67.824)"><path class="l" d="M2931.637,1368.152v6.978l-5.005-3.792Z" transform="translate(-2926.631 -1368.152)"/></g><g class="d" transform="translate(136.881 56.979)"><path class="e" d="M2958.677,1178.628h-24.5a2.722,2.722,0,0,0-2.714,2.714v8.244l-4.829,3.073,4.829,3.658v8.316a2.722,2.722,0,0,0,2.714,2.715h24.5a2.723,2.723,0,0,0,2.715-2.715v-23.29A2.723,2.723,0,0,0,2958.677,1178.628Z" transform="translate(-2926.631 -1178.628)"/></g><g transform="translate(143.83 59.865)"><path class="b" d="M3072.063,1231.733h-22.655a1.338,1.338,0,0,1-1.334-1.334h0a1.338,1.338,0,0,1,1.334-1.334h22.655a1.338,1.338,0,0,1,1.334,1.334h0A1.338,1.338,0,0,1,3072.063,1231.733Z" transform="translate(-3048.074 -1229.065)"/></g><g transform="translate(143.83 66.781)"><path class="b" d="M1.334,0H23.988a1.334,1.334,0,0,1,1.334,1.334v0a1.334,1.334,0,0,1-1.334,1.334H1.334A1.334,1.334,0,0,1,0,1.334v0A1.334,1.334,0,0,1,1.334,0Z" transform="translate(0)"/></g><g transform="translate(143.83 73.697)"><path class="b" d="M3072.063,1473.453h-22.655a1.338,1.338,0,0,1-1.334-1.334h0a1.338,1.338,0,0,1,1.334-1.334h22.655a1.338,1.338,0,0,1,1.334,1.334h0A1.338,1.338,0,0,1,3072.063,1473.453Z" transform="translate(-3048.074 -1470.785)"/></g><g transform="translate(143.83 80.613)"><path class="b" d="M3061.334,1594.314h-11.926a1.338,1.338,0,0,1-1.334-1.334h0a1.338,1.338,0,0,1,1.334-1.334h11.926a1.338,1.338,0,0,1,1.334,1.334h0A1.338,1.338,0,0,1,3061.334,1594.314Z" transform="translate(-3048.074 -1591.645)"/></g><g class="i" transform="translate(106.071 95.108)"><path class="c" d="M2416.193,1844.94a3.369,3.369,0,0,1,.116.876v38.194a3.407,3.407,0,0,1-3.4,3.4h-23.137a3.368,3.368,0,0,1-1.539-.372,3.411,3.411,0,0,0,3.282,2.521h23.137a3.408,3.408,0,0,0,3.4-3.4v-38.194A3.407,3.407,0,0,0,2416.193,1844.94Z" transform="translate(-2388.235 -1844.94)"/></g><g transform="translate(139.182 90.342)"><circle class="b" cx="5.437" cy="5.437" r="5.437" transform="translate(0 7.69) rotate(-45)"/></g><g class="p" transform="translate(153.615 90.342)"><circle class="b" cx="5.437" cy="5.437" r="5.437" transform="translate(0 7.69) rotate(-45)"/></g><g class="p" transform="translate(168.049 90.342)"><circle class="b" cx="5.437" cy="5.437" r="5.437" transform="translate(0 7.69) rotate(-45)"/></g><g class="s" transform="translate(141.434 109.45)"><circle class="b" cx="5.437" cy="5.437" r="5.437"/></g><g class="s" transform="translate(155.867 109.45)"><circle class="b" cx="5.437" cy="5.437" r="5.437" transform="translate(0)"/></g><g class="m" transform="translate(170.301 109.45)"><circle class="b" cx="5.437" cy="5.437" r="5.437" transform="translate(0)"/></g><g class="m" transform="translate(139.182 124.449)"><circle class="f" cx="5.437" cy="5.437" r="5.437" transform="translate(0 7.69) rotate(-45)"/></g><g class="g" transform="translate(153.615 124.449)"><circle class="f" cx="5.437" cy="5.437" r="5.437" transform="translate(0 7.69) rotate(-45)"/></g><g class="g" transform="translate(168.049 124.449)"><circle class="f" cx="5.437" cy="5.437" r="5.437" transform="translate(0 7.69) rotate(-45)"/></g><g class="d" transform="translate(104.213 92.586)"><path class="h" d="M2382.292,1800.873h-23.137a3.407,3.407,0,0,0-3.4,3.4v4.256h29.932v-4.256A3.407,3.407,0,0,0,2382.292,1800.873Z" transform="translate(-2355.757 -1800.873)"/></g><g class="d" transform="translate(104.213 109.574)"><rect class="h" width="29.932" height="9.334" transform="translate(0 0)"/></g><g class="d" transform="translate(104.213 128.242)"><path class="h" d="M2385.689,2429.9v-5.936h-29.932v5.936a3.407,3.407,0,0,0,3.4,3.4h23.137A3.407,3.407,0,0,0,2385.689,2429.9Z" transform="translate(-2355.757 -2423.96)"/></g><g class="j" transform="translate(105.438 95.807)"><circle class="l" cx="0.817" cy="0.817" r="0.817" transform="translate(0 0)"/></g><g class="j" transform="translate(105.438 104.084)"><circle class="l" cx="0.817" cy="0.817" r="0.817"/></g><g class="j" transform="translate(105.438 113.451)"><circle class="l" cx="0.817" cy="0.817" r="0.817"/></g><g class="j" transform="translate(105.438 122.927)"><circle class="l" cx="0.817" cy="0.817" r="0.817"/></g><g class="j" transform="translate(105.438 131.912)"><circle class="l" cx="0.817" cy="0.817" r="0.817"/></g><g transform="translate(104.24 144.056)"><rect class="l" width="67.418" height="14.515" rx="7.258"/></g><g class="d" transform="translate(104.24 144.056)"><rect class="e" width="67.418" height="14.515" rx="7.258"/></g><g class="g" transform="translate(105.813 145.877)"><path class="f" d="M2449.13,2732.14a3.713,3.713,0,0,1,.43,1.74v7.394a3.466,3.466,0,0,1-3.34,3.561h-60.739a3.161,3.161,0,0,1-1.767-.543,3.32,3.32,0,0,0,2.91,1.821h60.739a3.466,3.466,0,0,0,3.34-3.561v-7.394A3.625,3.625,0,0,0,2449.13,2732.14Z" transform="translate(-2383.715 -2732.14)"/></g><g transform="translate(104.24 144.059)"><path class="f" d="M2359.545,2700.377a3.459,3.459,0,0,0-3.322,3.445v7.618a3.458,3.458,0,0,0,3.322,3.445Z" transform="translate(-2356.223 -2700.377)"/></g><g class="d" transform="translate(105.819 146.786)"><g transform="translate(0 0)"><path class="f" d="M2434.3,2756.82a7.806,7.806,0,0,1-2.063-.278c-2.417-.656-4.469-2.417-6.532-4.317-3.9-3.588-6.47-5.958-14.053-.067-2.955,2.3-5.14,3.157-7.052,3.157-2.228,0-4.084-1.169-6.356-2.6-.909-.572-1.851-1.165-2.928-1.76-2.475-1.367-5.068-1.17-7.71.586a14.132,14.132,0,0,0-3.291,3.119.273.273,0,0,1-.444-.316,14.437,14.437,0,0,1,3.42-3.247,9.068,9.068,0,0,1,3.725-1.505,7.165,7.165,0,0,1,4.564.888c1.091.6,2.081,1.226,2.955,1.776,2.1,1.324,3.764,2.369,5.661,2.5,2.042.145,4.239-.79,7.123-3.031,3.646-2.832,6.325-3.958,8.691-3.649,2.161.282,3.876,1.73,6.064,3.746,4.39,4.043,8.012,6.559,14.666,2.071,3.405-2.3,5.6-3.705,7.324-3.906,1.71-.2,2.992.707,5.052,2.683a.272.272,0,0,1-.377.393c-1.975-1.893-3.109-2.708-4.612-2.534-1.6.186-3.746,1.566-7.083,3.816a14.5,14.5,0,0,1-4.817,2.247A8.612,8.612,0,0,1,2434.3,2756.82Z" transform="translate(-2383.82 -2748.03)"/></g></g><g transform="translate(106.799 145.897)"><g transform="translate(0 0)"><path class="f" d="M2469.077,2742.633a.272.272,0,0,1-.195-.082l-.266-.271c-3-3.063-8.031-8.19-14.34-9.181-2.869-.45-5.41,1.7-7.868,3.771a18.462,18.462,0,0,1-4.51,3.143,4.537,4.537,0,0,1-4.847-.706c-2.833-2.224-5.622-4.281-8.6-5.014-3.229-.8-6.255.069-9.524,2.725a19.488,19.488,0,0,1-5.877,3.224,25.99,25.99,0,0,1-5.748,1.273,27.314,27.314,0,0,1-6.118.027.272.272,0,0,1,.074-.54,27.313,27.313,0,0,0,6-.03,21.9,21.9,0,0,0,11.327-4.377,13.842,13.842,0,0,1,5.224-2.819,9.51,9.51,0,0,1,4.774-.011c3.08.76,5.921,2.853,8.8,5.115a3.985,3.985,0,0,0,4.305.63,18.12,18.12,0,0,0,4.365-3.055c2.551-2.155,5.19-4.382,8.3-3.893,6.488,1.019,11.594,6.226,14.645,9.338l.265.271a.272.272,0,0,1-.194.463Z" transform="translate(-2400.95 -2732.494)"/></g></g><g transform="translate(120.4 150.577)"><circle class="f" cx="0.953" cy="0.953" r="0.953" transform="translate(0 1.348) rotate(-45)"/></g><g transform="translate(135.825 147.378)"><circle class="f" cx="0.953" cy="0.953" r="0.953" transform="translate(0 0)"/></g><g transform="translate(148.058 150.898)"><circle class="f" cx="0.953" cy="0.953" r="0.953" transform="translate(0 0.729) rotate(-22.5)"/></g><g transform="translate(166.997 148.545)"><circle class="f" cx="0.953" cy="0.953" r="0.953" transform="matrix(0.16, -0.987, 0.987, 0.16, 0, 1.881)"/></g><g transform="translate(73.154 91.853)"><g transform="translate(23.264 24.786)"><path class="r" d="M2226.558,2224.538a14.82,14.82,0,0,1,1.588.21,3.346,3.346,0,0,1,.329.083,5.187,5.187,0,0,1,.612.23c.628.281,1.173.668.963.9-.26.288-.732-.19-1.261-.132a1.333,1.333,0,0,0-.38.09c-.285.129-.278.41,1.109,1,2.207.934,1.939,2.45-.2,1.632a11.248,11.248,0,0,1-3.55-2.216,48.794,48.794,0,0,1-6.244-1.575l2.158-3.554C2224.232,2222.8,2226.558,2224.538,2226.558,2224.538Z" transform="translate(-2219.523 -2221.202)"/></g><g transform="translate(11.976 9.363)"><path class="t" d="M2025.911,1953.07c.832-.134,2.927-1.849,3.526-1.256,1.181,1.17,2,2.262,1.865,6.24-.187,5.684,4.949,7.948,7.275,10.436l-1.65,4.279s-6.431-1.8-10.444-5.866C2021.587,1961.94,2020.388,1953.958,2025.911,1953.07Z" transform="translate(-2022.262 -1951.69)"/></g><g transform="translate(14.948 10.969)"><path class="u" d="M2080.162,1979.756q.716.382,1.584.81s4.656,11.319.693,27.854a40.459,40.459,0,0,1-8.233,1.9Z" transform="translate(-2074.206 -1979.756)"/></g><g transform="translate(18.428 38.496)"><path class="v" d="M2136.059,2461.041s8.659-1.3,14.486,2.019-2.124,15.684-2.124,15.684l-13.4-13.342Z" transform="translate(-2135.024 -2460.789)"/></g><g class="i" transform="translate(18.428 38.496)"><path class="w" d="M2136.059,2461.041s8.659-1.3,14.486,2.019-2.124,15.684-2.124,15.684l-13.4-13.342Z" transform="translate(-2135.024 -2460.789)"/></g><g transform="translate(19.369 51.873)"><g transform="translate(2.021)"><path class="q" d="M2192.2,2696.341l-2.707,2.486-.417.88-2.282-.988.665-.9,1.789-3.264Z" transform="translate(-2186.794 -2694.553)"/></g><g transform="translate(0 3.389)"><path class="c" d="M2157.371,2761.634c.422.35.81.357,1.133-.085.306-.417-.246-1.388-.726-1.878a7.975,7.975,0,0,1-1.754-3.977.349.349,0,0,0-.173-.265,5.2,5.2,0,0,1-1.718-1.529c-.122-.18-.435-.142-.6,0l-1.874,1.863c-.379.333-.142,1.017.246,1.339Z" transform="translate(-2151.469 -2753.778)"/></g><g transform="translate(4.4 7.551)"><path class="v" d="M2228.394,2826.761l.01,0a1.072,1.072,0,0,0,1.052-.138.068.068,0,1,0-.086-.1.933.933,0,0,1-.915.117.068.068,0,0,0-.061.121Z" transform="translate(-2228.361 -2826.508)"/></g><g transform="translate(3.976 6.55)"><path class="v" d="M2220.986,2809.264l.01,0a1.071,1.071,0,0,0,1.051-.137.068.068,0,0,0,.009-.1.067.067,0,0,0-.095-.009.935.935,0,0,1-.914.117.068.068,0,0,0-.062.12Z" transform="translate(-2220.954 -2809.011)"/></g><g transform="translate(4.968 8.64)"><path class="v" d="M2238.313,2845.795l.01.005a1.072,1.072,0,0,0,1.052-.138.068.068,0,0,0-.086-.1h0a.933.933,0,0,1-.914.117.068.068,0,0,0-.061.12Z" transform="translate(-2238.28 -2845.542)"/></g></g><g transform="translate(27.81 64.803)"><g transform="translate(0.277)"><path class="q" d="M2307.725,2920.519l-.709,3.5.06.972-2.475.238.146-1.111-.92-3.442Z" transform="translate(-2303.827 -2920.519)"/></g><g transform="translate(0 3.795)"><path class="c" d="M2306.849,2992.066c.539.1.882-.079.952-.623.066-.513-.886-1.1-1.543-1.294a7.97,7.97,0,0,1-3.457-2.635.351.351,0,0,0-.28-.149,5.189,5.189,0,0,1-2.243-.508c-.194-.1-.449.085-.523.29l-.741,2.537c-.171.474.367.958.863,1.053Z" transform="translate(-2298.981 -2986.829)"/></g><g transform="translate(4.855 6.006)"><path class="v" d="M2383.883,3026.194h.01a1.071,1.071,0,0,0,.855-.628.068.068,0,1,0-.125-.05.937.937,0,0,1-.744.544.068.068,0,0,0,0,.135Z" transform="translate(-2383.819 -3025.472)"/></g><g transform="translate(4 5.334)"><path class="v" d="M2368.946,3014.451h.011a1.071,1.071,0,0,0,.854-.628.068.068,0,0,0-.038-.088.067.067,0,0,0-.088.038.936.936,0,0,1-.744.544.067.067,0,0,0,0,.134Z" transform="translate(-2368.882 -3013.729)"/></g><g transform="translate(5.878 6.685)"><path class="v" d="M2401.762,3038.071h.011a1.069,1.069,0,0,0,.855-.628.068.068,0,1,0-.125-.05h0a.936.936,0,0,1-.744.544.068.068,0,0,0-.06.075A.069.069,0,0,0,2401.762,3038.071Z" transform="translate(-2401.697 -3037.35)"/></g></g><g transform="translate(1.705 37.009)"><path class="w" d="M1843,2434.809s-2.238,12.565,7.461,13.778c6.535.817,6.877-1.679,11.49,1.089,3.268,1.961,3.1,13.435,7.9,13.615,4.357.163,4.357.054,4.357.054s3.648-12.634-4.3-21.021c-5.562-5.866-11-6.045-11-6.045Z" transform="translate(-1842.775 -2434.809)"/></g><g transform="translate(16.579 2.628)"><path class="q" d="M2107.959,1844.623a27.843,27.843,0,0,1,.289-4.59c.281-.459.831.766,1.242.136s.458-1.4,1-1.361.927.064.656-.51.23-.834.377-1.428a2.291,2.291,0,0,0-.078-1.4c-.137-.44-.427-1.165-2.451-1.423s-3.055.3-3.164,1.466a8.546,8.546,0,0,1-1.214,3.417,10.143,10.143,0,0,1-1.913,1.945s1.549,2.655,2.57,3.127A10.175,10.175,0,0,0,2107.959,1844.623Z" transform="translate(-2102.703 -1833.981)"/></g><g transform="translate(24.53 5.733)"><path class="c" d="M2241.652,1888.4a.132.132,0,1,0,.113-.149A.132.132,0,0,0,2241.652,1888.4Z" transform="translate(-2241.651 -1888.25)"/></g><g transform="translate(24.375 5.368)"><path class="c" d="M2238.977,1881.988a.038.038,0,0,0,.02,0,.7.7,0,0,1,.632.13.038.038,0,0,0,.053,0,.038.038,0,0,0,0-.053.76.76,0,0,0-.706-.145.038.038,0,0,0-.023.048A.037.037,0,0,0,2238.977,1881.988Z" transform="translate(-2238.947 -1881.878)"/></g><g transform="translate(21.423 7.648)"><path class="r" d="M2188.289,1922.649a5.673,5.673,0,0,1-.813-.857c-.33-.452.154,1.127.469,1.466C2187.944,1923.258,2188,1922.562,2188.289,1922.649Z" transform="translate(-2187.365 -1921.712)"/></g><g class="i" transform="translate(1.705 37.421)"><path class="c" d="M1848.59,2448.719c4.7-.473,12.325-4.3,12.625-5.212a12.878,12.878,0,0,0-1.587-.368l-16.69-1.143c-.259,1.98-.98,10.537,5.418,12.87C1846.8,2452.859,1844.606,2449.121,1848.59,2448.719Z" transform="translate(-1842.776 -2441.997)"/></g><g transform="translate(0.784 37.989)"><path class="l" d="M1826.689,2451.939v2.886a31.72,31.72,0,0,0,14.4,0Z" transform="translate(-1826.689 -2451.939)"/></g><g transform="translate(13.734 11.307)"><path class="l" d="M2052.994,2015.521s5.919-1.077,8.343-2.641c0,0,2.824-11.042.087-26.225l-1.963-1Z" transform="translate(-2052.994 -1985.653)"/></g><g transform="translate(0 8.379)"><path class="b" d="M1833.891,1937.085a21.118,21.118,0,0,1-4.069-2.59c-14.928,11.225-16.834,29.972-16.834,29.972,3.781,2.545,11.66,3.867,15.927,3.352C1828.914,1967.819,1832.718,1960.438,1833.891,1937.085Z" transform="translate(-1812.987 -1934.495)"/></g><g class="m" transform="translate(0 9.49)"><path class="b" d="M1831.35,1953.905c-.714,5.108-4.059,21.65-17.711,25.21a34.061,34.061,0,0,0-.651,3.652c3.781,2.545,11.66,3.867,15.927,3.351,0,0,3.8-7.381,4.977-30.734C1832.8,1954.8,1831.969,1954.3,1831.35,1953.905Z" transform="translate(-1812.988 -1953.905)"/></g><g transform="translate(18.193 0)"><path class="c" d="M2130.91,1794.572a2.577,2.577,0,0,0,.049.294c.18.826.837.46,1.335.046.514-.428.53-.276,1.144.206.483.38.639-.476.683-.858a.776.776,0,0,0-.02-.292c-.142-.533-.194-1.5.22-1.509a.364.364,0,0,1,.372.231.57.57,0,0,0,.553.371c.491-.031.284-.7.773-.958.357-.191.721.357,1.144.813a1.115,1.115,0,0,0,1.824-.385.719.719,0,0,0-.315-1.043c-1.558-.929.352-2.423-1.642-2.255-.7.059-.953.346-1.371-.343s-1.221-1.125-1.91-.588c-.806.629-.479,1.36-1.372,1.42s-1.86.539-1.25,1.675c.375.7.511,1.333.175,1.79A2.915,2.915,0,0,0,2130.91,1794.572Z" transform="translate(-2130.91 -1788.063)"/></g><g transform="translate(25.075 24.436)"><path class="v" d="M2260.027,2215.5l6.253,5.476a1.651,1.651,0,0,1-.462,2.769l-6.1,2.5a1.65,1.65,0,0,1-1.714-.285l-6.253-5.476a1.65,1.65,0,0,1,.461-2.769l6.1-2.5A1.652,1.652,0,0,1,2260.027,2215.5Z" transform="translate(-2251.184 -2215.088)"/></g><g class="d" transform="translate(25.768 25.127)"><path class="k" d="M2277.538,2233.388a.962.962,0,0,1-.574,1.1l-6.1,2.5a.953.953,0,0,1-1-.166l-6.253-5.475a.948.948,0,0,1-.306-.511.963.963,0,0,1,.573-1.1l6.1-2.5a.954.954,0,0,1,1,.166l6.253,5.476A.945.945,0,0,1,2277.538,2233.388Z" transform="translate(-2263.284 -2227.164)"/></g><g transform="translate(26.844 28.106)"><path class="f" d="M2286.529,2282.537l-3.722-3.21a.435.435,0,0,0-.612.045h0a.436.436,0,0,0,.045.612l3.722,3.21a.435.435,0,0,0,.612-.045h0A.435.435,0,0,0,2286.529,2282.537Z" transform="translate(-2282.089 -2279.222)"/></g><g transform="translate(29.225 27.159)"><path class="f" d="M2330.149,2267.717l-5.731-4.942a.435.435,0,0,0-.612.045h0a.435.435,0,0,0,.045.612l5.731,4.942a.435.435,0,0,0,.612-.045h0A.435.435,0,0,0,2330.149,2267.717Z" transform="translate(-2323.701 -2262.669)"/></g><g transform="translate(31.832 26.008)"><path class="f" d="M2375.813,2247.691l-5.839-5.035a.435.435,0,0,0-.612.045h0a.435.435,0,0,0,.045.612l5.838,5.035a.435.435,0,0,0,.612-.045h0A.435.435,0,0,0,2375.813,2247.691Z" transform="translate(-2369.257 -2242.552)"/></g><g transform="translate(11.755 11.901)"><g transform="translate(10.076 17.486)"><path class="t" d="M2201.518,2304.825a14.9,14.9,0,0,1,1.593.176c.819.139,2.239.814,1.931,1.171-.254.293-.736-.174-1.264-.1-.229.031-.5.1-.522.25-.02.164.27.421,1.274.82,2.227.885,1.993,2.407-.166,1.636a11.273,11.273,0,0,1-2.558-1.323,9.3,9.3,0,0,1-1.04-.814,48.691,48.691,0,0,1-6.276-1.438l2.08-3.6C2199.156,2303.141,2201.518,2304.825,2201.518,2304.825Z" transform="translate(-2194.49 -2301.597)"/></g><path class="t" d="M2021.626,1996.087a2.946,2.946,0,0,1,2.464.588,11.713,11.713,0,0,1,2.976,8.12c-.176,5.654,4.6,7.686,6.761,10.058l-1.536,4.32s-5.979-1.511-9.711-5.384C2018.03,2009.064,2016.489,1997.2,2021.626,1996.087Z" transform="translate(-2018.411 -1996.028)"/></g></g><g transform="translate(140.504 148.671)"><g transform="translate(4.493 29.782)"><path class="r" d="M3078.626,3304.788a45.512,45.512,0,0,1-5.938,2.281s-1.275,3.76-3.22,4.046c-1.7.25-.961-.771.294-2.414s1.013-1.913.3-1.778-.814.451-1.063.23c-.3-.268.691-1.108,1.372-1.318a6.081,6.081,0,0,1,1.473-.221s2.587-2.412,5.025-4.2Z" transform="translate(-3068.474 -3301.414)"/></g><g transform="translate(9.515 16.13)"><path class="n" d="M3161.174,3073.327a11.206,11.206,0,0,0,1.514-3.3,5.725,5.725,0,0,0,.239-.843c1.2-7.483,10.74-8.636,11.026-1.873.291,6.871-8.686,10.989-8.686,10.989a71.455,71.455,0,0,1-7.04,3.375l-1.993-2.887S3158.808,3075.717,3161.174,3073.327Z" transform="translate(-3156.235 -3062.848)"/></g><g transform="translate(18.002 4.222)"><path class="q" d="M3304.554,2854.882a3.928,3.928,0,0,1,.294,2.3,2.777,2.777,0,0,0,1.616,3.7c1.489.612,2.991-1.649,1.623-4.247S3304.554,2854.882,3304.554,2854.882Z" transform="translate(-3304.554 -2854.751)"/></g><g transform="translate(19.102 6.798)"><path class="q" d="M3324.009,2901.777a5.664,5.664,0,0,1,.4,2.1,10.249,10.249,0,0,1-.646,2.262l5.333-1.293s-2.44-2.7-2.666-4.524S3324.009,2901.777,3324.009,2901.777Z" transform="translate(-3323.767 -2899.772)"/></g><g transform="translate(12.856 11.146)"><path class="x" d="M3223.52,3000.9a22.063,22.063,0,0,0,13.1-4.283c-.811-3.063-1.747-6.3-2.752-9.222-2.816-8.183-7.675-11.63-7.675-11.63a14.061,14.061,0,0,1-5.414,1.131l-.566,1.454a76.95,76.95,0,0,0-3.276,10.771,71.143,71.143,0,0,0-2.324,9.917A22.1,22.1,0,0,0,3223.52,3000.9Z" transform="translate(-3214.612 -2975.76)"/></g><g class="m" transform="translate(14.47 11.146)"><path class="x" d="M3263.224,2996.612c-.811-3.063-1.747-6.3-2.752-9.222-2.816-8.183-7.675-11.63-7.675-11.63a14.058,14.058,0,0,1-5.413,1.131l-.566,1.454a76.87,76.87,0,0,0-3.276,10.771s-.3.921-.709,2.426c3.308.958,8.136,3.187,14.076,8.3A22.11,22.11,0,0,0,3263.224,2996.612Z" transform="translate(-3242.833 -2975.76)"/></g><g transform="translate(0 3.129)"><path class="q" d="M2992.2,2836.78a7.283,7.283,0,0,0,1.159.858c.585.315.7.05.633-.448-.1-.73-.412-.854-.173-1.1.29-.292,1.087.767,1.262,1.471a6.2,6.2,0,0,1,.14,1.512s1.606,1.93,3.113,4.07l-3.162,1.537a39.7,39.7,0,0,1-1.479-4.833,11.435,11.435,0,0,1-1.63-.555c-1-.571-1.954-1.078-2.069-2.178C2989.775,2835.047,2990.6,2835.408,2992.2,2836.78Z" transform="translate(-2989.959 -2835.658)"/><g transform="translate(4.052 5.619)"><path class="n" d="M3064.423,2944.355a11.976,11.976,0,0,0,3.954,3.8c2.851,1.683,7.642,3.416,11.34,1.849,7.078-3,5.262-11.011-1.969-9.961,0,0-5.587,1.316-6.358.52a75.642,75.642,0,0,0-6.773-6.7l-3.85,1.9A23.8,23.8,0,0,0,3064.423,2944.355Z" transform="translate(-3060.767 -2933.857)"/></g></g><g transform="translate(16.739)"><path class="b" d="M3286.338,2790.5a3.028,3.028,0,0,1-1.489-3.212,2.031,2.031,0,0,0-1.328-2.056,2.367,2.367,0,0,1-.871-.98c-.762-2.451,1.091-3.58,2.56-3.213,1.307.327,1.522,1.3,2.6.693,1.242-.7,4.422-1.455,4.313,1.812,0,0-.569,2.885,2,2.963s4.538,2.115,4.084,4.229a4.336,4.336,0,0,0,2.8,5.168c2.345.861,6.783,2.656,6.253,6.1s-3.763,3.427-1.8,6.48-2.233,6.317-5.289,4.566c-2.291-1.312-2.74-2.569-5.494-1.026-2.723,1.525-6.153-.7-5.473-4.455s1.815-5.325-1.135-6.734-2.149-4.767-1.134-6.343C3288,2792.854,3288.235,2791.592,3286.338,2790.5Z" transform="translate(-3282.472 -2780.975)"/></g></g><g transform="translate(214.086 79.753)"><g transform="translate(18.695 74.918)"><g transform="translate(2.45)"><path class="q" d="M4645.338,2887.188l2.023,3.232.141.833,2.593-.971-.414-.878-.953-3.584Z" transform="translate(-4645.338 -2885.82)"/></g><g transform="translate(0 3.739)"><path class="c" d="M4603.643,2958c-.528.219-.916.106-1.1-.435-.176-.509.673-1.307,1.3-1.646a8.324,8.324,0,0,0,2.973-3.418.359.359,0,0,1,.253-.211,6.041,6.041,0,0,0,2.3-1.048.378.378,0,0,1,.558.1l1.464,2.383a.854.854,0,0,1-.4,1.236Z" transform="translate(-4602.517 -2951.155)"/></g><g transform="translate(2.622 7.037)"><path class="v" d="M4649.355,3009.361l-.011,0a1.114,1.114,0,0,1-1-.461.069.069,0,0,1,.02-.1.071.071,0,0,1,.1.02h0a.971.971,0,0,0,.874.4.07.07,0,0,1,.024.138Z" transform="translate(-4648.328 -3008.793)"/></g><g transform="translate(3.352 6.171)"><path class="v" d="M4662.121,2994.226h-.012a1.116,1.116,0,0,1-1-.461.07.07,0,1,1,.117-.078h0a.977.977,0,0,0,.875.4.071.071,0,0,1,.077.063A.072.072,0,0,1,4662.121,2994.226Z" transform="translate(-4661.093 -2993.657)"/></g><g transform="translate(1.721 7.946)"><path class="v" d="M4633.616,3025.254l-.011,0a1.115,1.115,0,0,1-1.005-.461.07.07,0,0,1,.118-.078.975.975,0,0,0,.874.4.071.071,0,0,1,.024.139Z" transform="translate(-4632.588 -3024.685)"/></g></g><g transform="translate(9.355 48.873)"><path class="v" d="M4453.951,2430.676c-.847,2.678-2.017,4.959-1.4,8.611,0,0,1.944,14.309,2.933,16.606s-1.449,3.338-5.353,3.389c0,0-10.338-16.818-10.836-26.339Z" transform="translate(-4439.295 -2430.676)"/></g><g class="i" transform="translate(9.573 51.96)"><path class="c" d="M4450.794,2495.59c-1.155-3.9,5.332-10.979,5.332-10.979l-13.015,1.134c1.264,7.721,7.25,18.613,9.634,22.727l.005.008c.021.038.043.075.065.112l0,.007.059.1c0,.007.009.014.013.022l.054.092c0,.006.007.013.011.019.018.03.035.061.052.089l.011.019.05.086a.143.143,0,0,1,.01.016l.05.085a.114.114,0,0,1,.007.013l.047.079.013.021.093.156.016.028.149.249c.005.01.012.02.018.03l.021.036a.187.187,0,0,1,.014.023l.024.041.014.022.016.028c.007.01.012.02.018.028l.013.022.016.027.014.021a.256.256,0,0,0,.015.025l.008.013.018.03,0,0c.042.07.065.106.065.106l.292-.006h.041l.272-.009.049,0c.089,0,.178-.008.266-.013l.039,0,.272-.019h0l.268-.023.028,0,.253-.026.037,0,.244-.03.03,0q.255-.034.493-.078l.016,0,.228-.044.027-.006.216-.048.022-.005c.15-.036.294-.074.432-.116l.006,0c.066-.02.132-.042.2-.063l.019-.007c.063-.021.125-.044.184-.067l.018-.007c.061-.024.121-.048.179-.073h0C4453.988,2506.514,4451.634,2498.419,4450.794,2495.59Z" transform="translate(-4443.111 -2484.611)"/></g><g transform="translate(0.448 78.831)"><g transform="translate(4.961)"><path class="q" d="M4370.341,2954.469l.953,3.693-.117.836,2.766-.143-.13-.961.173-3.705Z" transform="translate(-4370.341 -2954.188)"/></g><g transform="translate(0 3.922)"><path class="c" d="M4284.57,3027.471c-.57.049-.905-.175-.92-.747-.013-.539,1.036-1.043,1.738-1.177a8.325,8.325,0,0,0,3.865-2.363.36.36,0,0,1,.3-.125,6.046,6.046,0,0,0,2.509-.306.378.378,0,0,1,.5.262l.676,2.714a.854.854,0,0,1-.754,1.058Z" transform="translate(-4283.649 -3022.729)"/></g><g transform="translate(3.39 5.757)"><path class="v" d="M4343.719,3055.621h-.011a1.114,1.114,0,0,1-.819-.743.071.071,0,0,1,.136-.039h0a.971.971,0,0,0,.714.644.072.072,0,0,1,.054.084A.071.071,0,0,1,4343.719,3055.621Z" transform="translate(-4342.886 -3054.788)"/></g><g transform="translate(4.347 5.151)"><path class="v" d="M4360.454,3045.04h-.011a1.115,1.115,0,0,1-.819-.743.07.07,0,1,1,.135-.039h0a.976.976,0,0,0,.714.644.07.07,0,0,1-.019.139Z" transform="translate(-4359.621 -3044.205)"/></g><g transform="translate(2.257 6.352)"><path class="v" d="M4323.919,3066.029h-.011a1.117,1.117,0,0,1-.819-.743.071.071,0,1,1,.136-.039.973.973,0,0,0,.714.643.071.071,0,0,1-.019.14Z" transform="translate(-4323.086 -3065.195)"/></g></g><g transform="translate(1.455 51.949)"><path class="v" d="M4320.158,2485.668c-1.176,1.375-2.708,2.235-4.395,3.842a13.493,13.493,0,0,0-3.988,7.237c-.811,4.222-1.826,10.458-1.5,13.345.277,2.445-2.592,3.024-6.374,2.3,0,0-4.63-18.884-1.666-27.973Z" transform="translate(-4301.245 -2484.422)"/></g><g transform="translate(1.059 51.615)"><path class="l" d="M4294.324,2481.09V2483s13.451,3.213,24.886-1.58l-.163-2.832Z" transform="translate(-4294.324 -2478.585)"/></g><g transform="translate(6.084 1.36)"><path class="q" d="M4383.9,1613.365a53.235,53.235,0,0,0,.98-6.023c-.136-.605-1.19.526-1.4-.313s.021-1.7-.586-1.854-1.034-.274-.525-.8.059-1,.117-1.7a2.647,2.647,0,0,1,.606-1.5c.313-.429.9-1.112,3.2-.643s3.22,1.466,2.907,2.773a9.836,9.836,0,0,0,.057,4.177,11.672,11.672,0,0,0,1.364,2.831s-2.675,2.322-3.964,2.458A16.812,16.812,0,0,0,4383.9,1613.365Z" transform="translate(-4382.142 -1600.372)"/></g><g transform="translate(7.099 4.162)"><path class="c" d="M4400.165,1649.557a.153.153,0,1,1-.068-.2A.152.152,0,0,1,4400.165,1649.557Z" transform="translate(-4399.875 -1649.336)"/></g><g transform="translate(6.941 3.723)"><path class="c" d="M4397.915,1641.99a.042.042,0,0,1-.025-.013.8.8,0,0,0-.715-.206.044.044,0,1,1-.02-.085.877.877,0,0,1,.8.231.044.044,0,0,1,0,.062A.041.041,0,0,1,4397.915,1641.99Z" transform="translate(-4397.121 -1641.667)"/></g><g transform="translate(8.616 7.453)"><path class="r" d="M4426.387,1707.545a6.533,6.533,0,0,0,1.205-.633c.527-.371-.586,1.173-1.055,1.425C4426.537,1708.338,4426.733,1707.556,4426.387,1707.545Z" transform="translate(-4426.387 -1706.855)"/></g><g transform="translate(5.357)"><path class="c" d="M4374.394,1581.823c.491-.654.882-1.771.446-1.879a.424.424,0,0,0-.458.131.672.672,0,0,1-.619.237,1.866,1.866,0,0,0-1.874-.5s-1.952.591-2.341-.381c-.545-1.361.925-2.995,3.431-2.4,2.42.579,2.886-1.2,4.139,0s-.654,4.411,1.143,7.243c.9,1.42-1.416,2.233-1.742.926a3.51,3.51,0,0,0-1.035-1.47C4374.83,1583.294,4373.635,1582.835,4374.394,1581.823Z" transform="translate(-4369.435 -1576.606)"/></g><g transform="translate(14.744 12.658)"><path class="f" d="M4534.216,1797.8s12.085,11.105,9.54,16.109c-2.134,4.194-9.349,4.977-9.349,4.977l-.927-15Z" transform="translate(-4533.48 -1797.802)"/></g><g class="m" transform="translate(14.744 12.658)"><path class="b" d="M4534.216,1797.8s12.085,11.105,9.54,16.109c-2.134,4.194-9.349,4.977-9.349,4.977l-.927-15Z" transform="translate(-4533.48 -1797.802)"/></g><g transform="translate(0 10.717)"><path class="n" d="M4301.45,1805.551c-10.006,5.873-25.3,2.393-25.3,2.393a93.9,93.9,0,0,1,2.828-31.612,101.131,101.131,0,0,1,4.388-10.858s4.814.161,7.134-1.579c0,0,9.64,9.8,11.708,41.224Z" transform="translate(-4275.823 -1763.894)"/></g><g class="m" transform="translate(0 12.212)"><path class="y" d="M4301.45,1830.173l.753-.433q-.042-.648-.089-1.283c-22.88.971-17.551-33-16.552-38.447a19.541,19.541,0,0,1-2.2.085,101.131,101.131,0,0,0-4.388,10.858,93.9,93.9,0,0,0-2.828,31.612S4291.444,1836.046,4301.45,1830.173Z" transform="translate(-4275.823 -1790.01)"/></g></g><g transform="translate(195.485 103.813)"><path class="q" d="M3969,2004.921a74.85,74.85,0,0,1-11.5-4.5s-4.308,2.235-6.231.817c-1.405-1.036.374-2.243,2.156-2.1,1.751.143,2.639-.581,1.905-1.062s-1.093-.293-1.124-.7c-.038-.489,1.539-.385,2.312.007a7.372,7.372,0,0,1,1.474,1.051s8.72.156,11.837,1.455Z" transform="translate(-3950.757 -1997.057)"/></g><g transform="translate(205.614 93.636)"><path class="b" d="M4150.318,1819.9a5.793,5.793,0,0,0-3.723-.587c-1.749.536-4.939,3.676-6.847,7.62-2.725,5.635-5.509,2.077-11.266,3.688l-.715,4.269s7.626,5.544,13.6,3.571C4151.237,1835.2,4155.246,1823.594,4150.318,1819.9Z" transform="translate(-4127.768 -1819.215)"/></g></svg>